SplineFontDB: 3.0
FontName: BoonBaan-400i
FullName: BoonBaan Italic
FamilyName: BoonBaan
Weight: 400
Copyright: Copyright 2014-2017, Sungsit Sawaiwan (https://fontuni.com | uni@fontuni.com). This Font Software is licensed under the SIL Open Font License, Version 1.1 (http://scripts.sil.org/OFL).
UComments: "BoonHome Font Information+AA0ACgANAAoA-BoonHome is a Unicode typeface family that supports Lao and Thai languages. Since version 0.2, it was expanded to completely support the following Unicode ranges:+AAoACgAA-- Basic Latin+AAoA-- Latin-1 Supplement+AAoA-- Latin Extended-A+AAoACgAA-And partially included some glyphs from Latin Extended-B and Latin Extended Additional for Vietnamese language.+AAoA +AAoA-2014-1-12: Initiated.+AAoACgAA-2014-1-29: BoonHome v0.1+AAoACgAA-- Created basic OpenType features for Lao and Thai languages.+AAoA-- Completed Lao and Thai glyphs.+AAoA-- Generated 400 & 700 weights with Oblique style.+AAoACgAA-2014-2-09: BoonHome v0.2+AAoACgAA-- Corrected some Lao and Thai glyphs.+AAoA-- Corrected OpenType features for Lao and Thai's vowels and tone marks.+AAoA-- Completed Basic Latin, Latin-1 Supplement, Latin Extended-A.+AAoA-- Partially included Latin Extended-B and Latin Extended Additional.+AAoA-- Kerned diacritic glyphs, especially for Vietnamese language."
Version: 2.0
ItalicAngle: -9
UnderlinePosition: -60
UnderlineWidth: 30
Ascent: 960
Descent: 240
InvalidEm: 0
woffMajor: 0
woffMinor: 2
LayerCount: 4
Layer: 0 0 "Back" 1
Layer: 1 0 "Fore" 0
Layer: 2 0 "400" 0
Layer: 3 0 "700" 0
StyleMap: 0x0001
FSType: 0
OS2Version: 0
OS2_WeightWidthSlopeOnly: 0
OS2_UseTypoMetrics: 0
CreationTime: 1389497698
ModificationTime: 1486297446
PfmFamily: 33
TTFWeight: 400
TTFWidth: 5
LineGap: 0
VLineGap: 0
Panose: 0 0 0 0 0 0 0 0 0 0
OS2TypoAscent: 1220
OS2TypoAOffset: 0
OS2TypoDescent: -360
OS2TypoDOffset: 0
OS2TypoLinegap: 0
OS2WinAscent: 1220
OS2WinAOffset: 0
OS2WinDescent: 360
OS2WinDOffset: 0
HheadAscent: 1220
HheadAOffset: 0
HheadDescent: -360

StartChar: uni0E81
Encoding: 495 3713 0
Width: 700
VWidth: 0
GlyphClass: 2
Flags: HMW
LayerCount: 4
Layer: 2
SplineSet
178 555 m 0
 150 555 124 533 120 505 c 0
 120 502 119 499 119 497 c 0
 119 473 137 455 162 455 c 0
 190 455 216 477 220 505 c 0
 220 508 221 511 221 513 c 0
 221 537 203 555 178 555 c 0
113 145 m 0
 85 145 59 123 55 95 c 0
 55 92 54 89 54 87 c 0
 54 63 72 45 97 45 c 0
 125 45 151 67 155 95 c 0
 155 98 156 101 156 103 c 0
 156 127 138 145 113 145 c 0
281 531 m 1
 322 569 391 610 467 610 c 0
 560 610 621 560 621 463 c 0
 621 449 619 435 617 420 c 2
 550 0 l 1
 460 0 l 1
 527 420 l 2
 529 433 530 446 530 457 c 0
 530 505 508 535 435 535 c 0
 361 535 310 499 273 458 c 1
 215 95 l 2
 205 34 148 -10 88 -10 c 0
 34 -10 -6 26 -6 78 c 0
 -6 84 -6 89 -5 95 c 0
 5 156 62 200 122 200 c 0
 129 200 135 199 141 198 c 1
 174 402 l 1
 168 401 160 400 153 400 c 0
 99 400 59 436 59 488 c 0
 59 494 59 499 60 505 c 0
 70 566 127 610 187 610 c 0
 238 610 276 578 281 531 c 1
EndSplineSet
Layer: 3
SplineSet
181 545 m 0
 153 545 127 523 123 495 c 0
 123 492 122 489 122 487 c 0
 122 463 140 445 165 445 c 0
 193 445 219 467 223 495 c 0
 223 498 224 501 224 503 c 0
 224 527 206 545 181 545 c 0
120 155 m 0
 92 155 66 133 62 105 c 0
 62 102 61 99 61 97 c 0
 61 73 79 55 104 55 c 0
 132 55 158 77 162 105 c 0
 162 108 163 111 163 113 c 0
 163 137 145 155 120 155 c 0
134 382 m 1
 83 389 46 424 46 476 c 0
 46 482 47 488 48 495 c 0
 59 565 124 610 192 610 c 0
 251 610 297 576 300 521 c 1
 345 567 410 610 497 610 c 0
 586 610 638 563 638 461 c 0
 638 443 637 422 633 400 c 2
 570 0 l 1
 420 0 l 1
 483 400 l 2
 485 412 486 422 486 431 c 0
 486 480 462 500 419 500 c 0
 369 500 324 468 288 430 c 1
 268 300 l 1
 237 105 l 2
 226 35 161 -10 93 -10 c 0
 31 -10 -15 27 -15 86 c 0
 -15 92 -14 98 -13 105 c 0
 -3 167 49 210 108 218 c 1
 107 224 107 231 108 240 c 2
 118 300 l 1
 127 360 l 2
 128 369 131 376 134 382 c 1
EndSplineSet
Colour: ffff00
EndChar

StartChar: uni0E82
Encoding: 496 3714 1
Width: 700
VWidth: 0
GlyphClass: 2
Flags: HMW
LayerCount: 4
Layer: 2
SplineSet
490 0 m 1
 500 60 l 2
 503 80 510 98 516 111 c 1
 471 61 380 -20 247 -20 c 0
 124 -20 49 34 49 110 c 0
 49 117 50 123 51 130 c 0
 70 249 220 276 328 305 c 0
 446 337 519 371 528 430 c 0
 529 436 529 442 529 448 c 0
 529 511 470 550 377 550 c 0
 332 550 296 544 268 538 c 1
 300 526 321 498 321 461 c 0
 321 456 321 451 320 445 c 0
 310 384 254 340 194 340 c 0
 140 340 99 376 99 428 c 0
 99 434 99 439 100 445 c 0
 117 551 256 620 388 620 c 0
 509 620 620 564 620 457 c 0
 620 448 619 439 618 430 c 0
 600 317 473 271 347 235 c 0
 229 201 150 185 141 130 c 0
 141 127 140 125 140 122 c 0
 140 85 179 55 259 55 c 0
 426 55 507 175 533 210 c 1
 583 210 l 1
 550 0 l 1
 490 0 l 1
203 395 m 0
 231 395 256 417 260 445 c 0
 260 448 261 451 261 453 c 0
 261 477 243 495 218 495 c 0
 190 495 164 473 160 445 c 0
 160 442 159 440 159 438 c 0
 159 414 178 395 203 395 c 0
EndSplineSet
Layer: 3
SplineSet
188 395 m 0
 216 395 241 417 245 445 c 0
 245 448 246 451 246 453 c 0
 246 477 228 495 203 495 c 0
 175 495 149 473 145 445 c 0
 145 442 144 440 144 438 c 0
 144 414 163 395 188 395 c 0
490 0 m 1
 501 70 l 2
 503 83 508 95 513 107 c 1
 463 45 378 -20 257 -20 c 0
 118 -20 22 46 22 128 c 0
 22 133 22 139 23 145 c 0
 42 268 184 287 331 325 c 0
 455 357 500 374 507 420 c 0
 508 425 508 431 508 436 c 0
 508 490 461 525 373 525 c 0
 342 525 319 522 302 518 c 1
 315 505 322 486 322 464 c 0
 322 458 321 452 320 445 c 0
 309 375 245 330 177 330 c 0
 115 330 68 367 68 426 c 0
 68 432 69 438 70 445 c 0
 83 527 200 620 388 620 c 0
 546 620 647 546 647 438 c 0
 647 429 646 420 645 410 c 0
 627 295 503 256 344 215 c 0
 212 181 178 175 172 140 c 0
 172 138 172 136 172 134 c 0
 172 102 218 85 273 85 c 0
 397 85 493 151 523 210 c 1
 613 210 l 1
 580 0 l 1
 490 0 l 1
EndSplineSet
Colour: ffff00
EndChar

StartChar: uni0E84
Encoding: 497 3716 2
Width: 700
VWidth: 0
GlyphClass: 2
Flags: HMW
LayerCount: 4
Layer: 2
SplineSet
223 145 m 0
 195 145 169 123 165 95 c 0
 165 92 164 89 164 87 c 0
 164 63 182 45 207 45 c 0
 235 45 261 67 265 95 c 0
 265 98 266 101 266 103 c 0
 266 127 248 145 223 145 c 0
232 200 m 0
 286 200 326 164 326 112 c 0
 326 106 326 101 325 95 c 0
 315 34 258 -10 198 -10 c 0
 104 -10 42 41 42 123 c 0
 42 132 43 141 44 150 c 0
 54 213 108 268 177 303 c 1
 124 320 85 349 85 401 c 0
 85 407 86 414 87 420 c 0
 105 535 238 620 383 620 c 0
 516 620 619 557 619 449 c 0
 619 440 619 430 617 420 c 2
 550 0 l 1
 460 0 l 1
 527 420 l 2
 528 426 528 431 528 437 c 0
 528 499 472 545 371 545 c 0
 261 545 188 491 177 420 c 0
 176 417 176 413 176 410 c 0
 176 354 259 345 340 345 c 1
 330 285 l 1
 229 285 126 226 114 150 c 0
 112 141 112 133 112 125 c 0
 112 119 112 113 113 108 c 1
 129 160 178 200 232 200 c 0
EndSplineSet
Layer: 3
SplineSet
215 155 m 0
 187 155 161 133 157 105 c 0
 157 102 156 99 156 97 c 0
 156 73 174 55 199 55 c 0
 227 55 253 77 257 105 c 0
 257 108 258 111 258 113 c 0
 258 137 240 155 215 155 c 0
225 220 m 0
 287 220 334 183 334 124 c 0
 334 118 333 112 332 105 c 0
 321 35 256 -10 188 -10 c 0
 93 -10 12 33 12 129 c 0
 12 139 13 149 15 160 c 0
 25 222 72 269 135 300 c 1
 81 320 55 352 55 398 c 0
 55 405 56 412 57 420 c 0
 71 511 190 620 383 620 c 0
 558 620 645 534 645 425 c 0
 645 414 644 402 642 390 c 2
 580 0 l 1
 430 0 l 1
 492 390 l 2
 493 396 493 401 493 407 c 0
 493 469 439 510 366 510 c 0
 286 510 217 477 207 420 c 0
 206 416 206 412 206 409 c 0
 206 366 253 345 340 345 c 1
 329 275 l 1
 213 275 121 230 110 160 c 0
 109 155 109 150 109 146 c 1
 132 185 176 220 225 220 c 0
EndSplineSet
Colour: ffff00
EndChar

StartChar: uni0E87
Encoding: 498 3719 3
Width: 540
VWidth: 0
GlyphClass: 2
Flags: HMW
LayerCount: 4
Layer: 2
SplineSet
165 475 m 0
 137 475 111 453 107 425 c 0
 107 422 106 419 106 417 c 0
 106 393 124 375 149 375 c 0
 177 375 203 397 207 425 c 0
 207 428 208 431 208 433 c 0
 208 457 190 475 165 475 c 0
47 425 m 0
 65 536 162 610 272 610 c 0
 370 610 448 564 448 453 c 0
 448 440 447 425 445 410 c 2
 366 -90 l 2
 344 -226 257 -260 159 -260 c 0
 86 -260 4 -231 -30 -190 c 1
 18 -140 l 1
 37 -158 96 -190 170 -190 c 0
 239 -190 266 -155 276 -90 c 2
 355 410 l 2
 357 423 358 436 358 447 c 0
 358 513 321 540 261 540 c 0
 230 540 202 534 181 525 c 1
 232 521 268 490 268 441 c 0
 268 436 268 431 267 425 c 0
 257 364 201 320 141 320 c 0
 87 320 46 356 46 408 c 0
 46 414 46 419 47 425 c 0
EndSplineSet
Layer: 3
SplineSet
165 445 m 0
 137 445 112 423 108 395 c 0
 108 392 107 389 107 387 c 0
 107 363 125 345 150 345 c 0
 178 345 204 367 208 395 c 0
 208 398 209 400 209 402 c 0
 209 426 190 445 165 445 c 0
33 395 m 0
 52 517 157 610 287 610 c 0
 391 610 476 548 476 437 c 0
 476 425 475 413 473 400 c 2
 396 -90 l 2
 379 -197 280 -260 139 -260 c 0
 35 -260 -25 -210 -49 -185 c 1
 23 -110 l 1
 39 -133 98 -160 140 -160 c 0
 200 -160 240 -130 246 -90 c 2
 325 410 l 2
 327 420 327 429 327 438 c 0
 327 501 287 520 237 520 c 0
 212 520 190 512 172 500 c 1
 232 497 284 467 284 411 c 0
 284 406 284 401 283 395 c 0
 272 325 207 280 139 280 c 0
 77 280 31 317 31 376 c 0
 31 382 32 388 33 395 c 0
EndSplineSet
Colour: ffff00
EndChar

StartChar: uni0E88
Encoding: 499 3720 4
Width: 650
VWidth: 0
GlyphClass: 2
Flags: HMW
LayerCount: 4
Layer: 2
SplineSet
230 315 m 0
 202 315 176 293 172 265 c 0
 172 262 171 259 171 257 c 0
 171 233 189 215 214 215 c 0
 242 215 268 237 272 265 c 0
 272 268 273 271 273 273 c 0
 273 297 255 315 230 315 c 0
222 161 m 1
 217 160 211 160 205 160 c 0
 151 160 111 196 111 248 c 0
 111 254 111 259 112 265 c 0
 122 326 179 370 239 370 c 0
 302 370 338 330 338 279 c 0
 338 273 337 267 336 260 c 0
 324 187 286 164 279 120 c 0
 279 117 278 114 278 111 c 0
 278 83 299 60 341 60 c 0
 382 60 422 75 431 130 c 2
 477 420 l 2
 478 427 479 433 479 439 c 0
 479 500 430 545 336 545 c 0
 233 545 168 491 157 420 c 1
 67 420 l 1
 85 535 208 620 348 620 c 0
 476 620 570 557 570 451 c 0
 570 441 569 431 567 420 c 2
 521 130 l 2
 507 41 440 -10 329 -10 c 0
 230 -10 195 33 195 82 c 0
 195 88 195 94 196 100 c 0
 200 126 210 145 222 161 c 1
EndSplineSet
Layer: 3
SplineSet
207 295 m 0
 179 295 153 273 149 245 c 0
 149 242 148 239 148 237 c 0
 148 213 166 195 191 195 c 0
 219 195 245 217 249 245 c 0
 249 248 250 251 250 253 c 0
 250 277 232 295 207 295 c 0
217 360 m 0
 288 360 326 318 326 267 c 0
 326 262 326 256 325 250 c 0
 315 186 286 163 281 130 c 0
 281 127 280 125 280 122 c 0
 280 95 302 80 333 80 c 0
 369 80 396 99 401 130 c 2
 442 390 l 2
 443 396 444 403 444 409 c 0
 444 462 404 500 329 500 c 0
 245 500 192 450 182 390 c 1
 32 390 l 1
 50 504 160 620 348 620 c 0
 518 620 595 526 595 423 c 0
 595 412 594 401 592 390 c 2
 552 140 l 2
 538 51 451 -10 318 -10 c 0
 207 -10 155 30 155 85 c 0
 155 90 155 95 156 100 c 0
 158 114 162 126 168 136 c 1
 113 141 73 173 73 227 c 0
 73 233 73 239 74 245 c 0
 85 315 149 360 217 360 c 0
EndSplineSet
Colour: ffff00
EndChar

StartChar: uni0E8A
Encoding: 500 3722 5
Width: 710
VWidth: 0
GlyphClass: 2
Flags: HMW
AnchorPoint: "LaoBelow2.mark" 570 0 basechar 0
LayerCount: 4
Layer: 2
SplineSet
203 395 m 0
 231 395 256 417 260 445 c 0
 260 448 261 451 261 453 c 0
 261 477 243 495 218 495 c 0
 190 495 164 473 160 445 c 0
 160 442 159 440 159 438 c 0
 159 414 178 395 203 395 c 0
442 -240 m 1
 490 60 l 2
 493 79 498 94 503 106 c 1
 459 56 376 -20 247 -20 c 0
 124 -20 49 34 49 110 c 0
 49 117 50 123 51 130 c 0
 70 249 220 276 328 305 c 0
 446 337 519 371 528 430 c 0
 529 436 529 442 529 448 c 0
 529 511 470 550 377 550 c 0
 332 550 296 544 268 538 c 1
 300 526 321 498 321 461 c 0
 321 456 321 451 320 445 c 0
 310 384 254 340 194 340 c 0
 140 340 99 376 99 428 c 0
 99 434 99 439 100 445 c 0
 117 551 256 620 388 620 c 0
 509 620 620 564 620 457 c 0
 620 448 619 439 618 430 c 0
 600 317 473 271 347 235 c 0
 229 201 150 185 141 130 c 0
 141 127 140 125 140 122 c 0
 140 85 179 55 259 55 c 0
 426 55 497 175 523 210 c 1
 593 210 l 1
 522 -240 l 1
 442 -240 l 1
EndSplineSet
Layer: 3
SplineSet
188 395 m 0
 216 395 241 417 245 445 c 0
 245 448 246 451 246 453 c 0
 246 477 228 495 203 495 c 0
 175 495 149 473 145 445 c 0
 145 442 144 440 144 438 c 0
 144 414 163 395 188 395 c 0
412 -240 m 1
 450 0 l 2
 454 25 464 50 473 70 c 1
 425 22 354 -20 257 -20 c 0
 118 -20 22 46 22 128 c 0
 22 133 22 139 23 145 c 0
 42 268 184 287 331 325 c 0
 455 357 500 374 507 420 c 0
 508 425 508 431 508 436 c 0
 508 490 461 525 373 525 c 0
 342 525 319 522 302 518 c 1
 315 505 322 486 322 464 c 0
 322 458 321 452 320 445 c 0
 309 375 245 330 177 330 c 0
 115 330 68 367 68 426 c 0
 68 432 69 438 70 445 c 0
 83 527 200 620 388 620 c 0
 546 620 647 546 647 438 c 0
 647 429 646 420 645 410 c 0
 627 295 503 256 344 215 c 0
 212 181 178 175 172 140 c 0
 172 138 172 136 172 134 c 0
 172 102 218 85 273 85 c 0
 397 85 483 151 513 210 c 1
 613 210 l 1
 542 -240 l 1
 412 -240 l 1
EndSplineSet
Colour: ffff00
EndChar

StartChar: uni0E8D
Encoding: 501 3725 6
Width: 700
VWidth: 0
GlyphClass: 2
Flags: HMW
LayerCount: 4
Layer: 2
SplineSet
272 455 m 0
 300 455 326 477 330 505 c 0
 330 508 331 511 331 513 c 0
 331 537 313 555 288 555 c 0
 260 555 234 533 230 505 c 0
 230 502 229 499 229 497 c 0
 229 473 247 455 272 455 c 0
263 400 m 0
 209 400 174 440 174 492 c 1
 168 481 164 467 161 450 c 0
 160 445 160 441 160 436 c 0
 160 367 240 315 335 315 c 1
 325 255 l 1
 239 255 149 245 139 180 c 0
 138 174 138 169 138 163 c 0
 138 101 193 55 294 55 c 0
 404 55 478 109 489 180 c 2
 555 600 l 1
 645 600 l 1
 579 180 l 2
 559 55 427 -20 282 -20 c 0
 148 -20 47 53 47 155 c 0
 47 163 48 171 49 180 c 0
 59 244 111 278 176 297 c 1
 125 328 89 375 89 430 c 0
 89 437 90 443 91 450 c 0
 106 547 193 610 297 610 c 0
 351 610 391 574 391 522 c 0
 391 516 391 511 390 505 c 0
 380 444 323 400 263 400 c 0
EndSplineSet
Layer: 3
SplineSet
260 445 m 0
 288 445 314 467 318 495 c 0
 318 498 319 501 319 503 c 0
 319 527 301 545 276 545 c 0
 248 545 222 523 218 495 c 0
 218 492 217 489 217 487 c 0
 217 463 235 445 260 445 c 0
250 380 m 0
 201 380 169 415 158 454 c 1
 156 450 156 445 155 440 c 0
 154 435 154 431 154 427 c 0
 154 365 227 325 336 325 c 1
 325 255 l 1
 231 255 177 230 169 180 c 0
 169 176 168 173 168 170 c 0
 168 119 224 90 299 90 c 0
 379 90 452 139 463 210 c 2
 525 600 l 1
 675 600 l 1
 613 210 l 2
 593 85 475 -20 282 -20 c 0
 103 -20 18 74 18 160 c 0
 18 167 18 174 19 180 c 0
 28 237 65 277 135 300 c 1
 89 327 58 367 58 418 c 0
 58 425 59 432 60 440 c 0
 79 558 182 610 287 610 c 0
 349 610 395 573 395 514 c 0
 395 508 394 502 393 495 c 0
 382 425 318 380 250 380 c 0
EndSplineSet
Colour: ffff00
EndChar

StartChar: uni0E94
Encoding: 502 3732 7
Width: 700
VWidth: 0
GlyphClass: 2
Flags: HMW
LayerCount: 4
Layer: 2
SplineSet
213 145 m 0
 185 145 159 123 155 95 c 0
 155 92 154 89 154 87 c 0
 154 63 172 45 197 45 c 0
 225 45 251 67 255 95 c 0
 255 98 256 101 256 103 c 0
 256 127 238 145 213 145 c 0
222 200 m 0
 276 200 316 164 316 112 c 0
 316 106 316 101 315 95 c 0
 305 34 248 -10 188 -10 c 0
 102 -10 52 47 52 127 c 0
 52 138 53 149 55 160 c 2
 97 420 l 2
 115 535 243 620 388 620 c 0
 521 620 619 557 619 450 c 0
 619 440 619 430 617 420 c 2
 550 0 l 1
 460 0 l 1
 527 420 l 2
 528 426 528 432 528 438 c 0
 528 500 476 545 376 545 c 0
 266 545 198 491 187 420 c 2
 147 173 l 1
 168 190 195 200 222 200 c 0
EndSplineSet
Layer: 3
SplineSet
215 155 m 0
 187 155 161 133 157 105 c 0
 157 102 156 99 156 97 c 0
 156 73 174 55 199 55 c 0
 227 55 253 77 257 105 c 0
 257 108 258 111 258 113 c 0
 258 137 240 155 215 155 c 0
225 220 m 0
 287 220 334 183 334 124 c 0
 334 118 333 112 332 105 c 0
 321 35 256 -10 188 -10 c 0
 93 -10 23 46 23 133 c 0
 23 142 24 151 25 160 c 2
 62 390 l 2
 80 505 195 620 388 620 c 0
 562 620 645 534 645 426 c 0
 645 414 644 402 642 390 c 2
 580 0 l 1
 430 0 l 1
 492 390 l 2
 493 396 493 403 493 409 c 0
 493 470 444 510 371 510 c 0
 291 510 223 461 212 390 c 2
 188 240 l 2
 187 231 183 219 179 208 c 1
 193 215 208 220 225 220 c 0
EndSplineSet
Colour: ffff00
EndChar

StartChar: uni0E95
Encoding: 503 3733 8
Width: 700
VWidth: 0
GlyphClass: 2
Flags: HMW
LayerCount: 4
Layer: 2
SplineSet
213 145 m 0
 185 145 159 123 155 95 c 0
 155 92 154 89 154 87 c 0
 154 63 172 45 197 45 c 0
 225 45 251 67 255 95 c 0
 255 98 256 101 256 103 c 0
 256 127 238 145 213 145 c 0
222 200 m 0
 276 200 316 164 316 112 c 0
 316 106 316 101 315 95 c 0
 305 34 248 -10 188 -10 c 0
 102 -10 52 47 52 127 c 0
 52 138 53 149 55 160 c 2
 97 420 l 2
 118 551 243 620 273 620 c 1
 373 525 l 1
 503 620 l 1
 530 620 620 563 620 454 c 0
 620 443 619 432 617 420 c 2
 550 0 l 1
 460 0 l 1
 527 420 l 2
 528 429 529 439 529 449 c 0
 529 482 520 516 491 540 c 1
 361 450 l 1
 261 540 l 1
 213 509 193 459 187 420 c 2
 147 173 l 1
 168 190 195 200 222 200 c 0
EndSplineSet
Layer: 3
SplineSet
215 155 m 0
 187 155 161 133 157 105 c 0
 157 102 156 99 156 97 c 0
 156 73 174 55 199 55 c 0
 227 55 253 77 257 105 c 0
 257 108 258 111 258 113 c 0
 258 137 240 155 215 155 c 0
225 220 m 0
 287 220 334 183 334 124 c 0
 334 118 333 112 332 105 c 0
 321 35 256 -10 188 -10 c 0
 93 -10 23 46 23 133 c 0
 23 142 24 151 25 160 c 2
 62 390 l 2
 88 552 222 620 283 620 c 1
 373 525 l 1
 493 620 l 1
 548 620 646 565 646 436 c 0
 646 422 645 406 642 390 c 2
 580 0 l 1
 430 0 l 1
 492 390 l 2
 496 414 498 433 498 449 c 0
 498 480 491 498 476 510 c 1
 357 420 l 1
 266 510 l 1
 238 492 223 460 212 390 c 2
 188 240 l 2
 187 231 183 219 179 208 c 1
 193 215 208 220 225 220 c 0
EndSplineSet
Colour: ffff00
EndChar

StartChar: uni0E96
Encoding: 504 3734 9
Width: 710
VWidth: 0
GlyphClass: 2
Flags: HMW
AnchorPoint: "LaoBelow2.mark" 540 0 basechar 0
LayerCount: 4
Layer: 2
SplineSet
178 555 m 0
 150 555 124 533 120 505 c 0
 120 502 119 499 119 497 c 0
 119 473 137 455 162 455 c 0
 190 455 216 477 220 505 c 0
 220 508 221 511 221 513 c 0
 221 537 203 555 178 555 c 0
213 145 m 0
 185 145 159 123 155 95 c 0
 155 92 154 89 154 87 c 0
 154 63 172 45 197 45 c 0
 225 45 251 67 255 95 c 0
 255 98 256 101 256 103 c 0
 256 127 238 145 213 145 c 0
222 200 m 0
 276 200 316 164 316 112 c 0
 316 106 316 101 315 95 c 0
 305 34 248 -10 188 -10 c 0
 134 -10 94 26 94 78 c 0
 94 84 94 89 95 95 c 2
 143 400 l 1
 94 405 59 439 59 488 c 0
 59 493 59 499 60 505 c 0
 70 566 127 610 187 610 c 0
 237 610 275 580 281 534 c 1
 326 572 395 610 467 610 c 0
 560 610 621 560 621 463 c 0
 621 449 619 435 617 420 c 2
 512 -240 l 1
 422 -240 l 1
 527 420 l 2
 529 433 530 446 530 457 c 0
 530 505 508 535 435 535 c 0
 343 535 278 478 238 427 c 1
 201 198 l 1
 207 199 215 200 222 200 c 0
EndSplineSet
Layer: 3
SplineSet
181 545 m 0
 153 545 127 523 123 495 c 0
 123 492 122 489 122 487 c 0
 122 463 140 445 165 445 c 0
 193 445 219 467 223 495 c 0
 223 498 224 501 224 503 c 0
 224 527 206 545 181 545 c 0
200 155 m 0
 172 155 146 133 142 105 c 0
 142 102 141 99 141 97 c 0
 141 73 159 55 184 55 c 0
 212 55 238 77 242 105 c 0
 242 108 243 111 243 113 c 0
 243 137 225 155 200 155 c 0
116 386 m 1
 75 398 46 431 46 476 c 0
 46 482 47 488 48 495 c 0
 59 565 124 610 192 610 c 0
 251 610 297 576 300 521 c 1
 345 567 410 610 497 610 c 0
 586 610 638 563 638 461 c 0
 638 443 637 422 633 400 c 2
 532 -240 l 1
 382 -240 l 1
 483 400 l 2
 485 412 486 422 486 431 c 0
 486 480 462 500 419 500 c 0
 357 500 304 452 264 402 c 1
 248 300 l 1
 238 240 l 2
 237 231 235 224 232 218 c 1
 283 211 319 176 319 124 c 0
 319 118 318 112 317 105 c 0
 306 35 241 -10 173 -10 c 0
 111 -10 65 27 65 86 c 0
 65 92 66 98 67 105 c 2
 98 300 l 1
 107 360 l 2
 109 372 112 380 116 386 c 1
EndSplineSet
Colour: ffff00
EndChar

StartChar: uni0E97
Encoding: 505 3735 10
Width: 780
VWidth: 0
GlyphClass: 2
Flags: HMW
LayerCount: 4
Layer: 2
SplineSet
188 555 m 0
 160 555 134 533 130 505 c 0
 130 502 129 499 129 497 c 0
 129 473 147 455 172 455 c 0
 200 455 226 477 230 505 c 0
 230 508 231 511 231 513 c 0
 231 537 213 555 188 555 c 0
188 300 m 2
 161 130 l 2
 160 125 160 119 160 115 c 0
 160 73 196 65 225 65 c 0
 257 65 302 75 311 130 c 2
 364 470 l 2
 378 559 457 610 552 610 c 0
 638 610 696 569 696 495 c 0
 696 487 695 479 694 470 c 2
 620 0 l 1
 530 0 l 1
 604 470 l 2
 605 475 605 481 605 485 c 0
 605 527 569 535 540 535 c 0
 508 535 463 525 454 470 c 2
 401 130 l 2
 387 41 308 -10 213 -10 c 0
 127 -10 69 31 69 105 c 0
 69 113 70 121 71 130 c 2
 98 300 l 2
 106 353 147 379 181 406 c 1
 175 405 170 405 164 405 c 0
 110 405 69 437 69 488 c 0
 69 493 69 499 70 505 c 0
 80 566 137 610 197 610 c 0
 261 610 300 570 300 518 c 0
 300 512 300 506 299 500 c 0
 284 403 201 380 188 300 c 2
EndSplineSet
Layer: 3
SplineSet
165 445 m 0
 193 445 219 467 223 495 c 0
 223 498 224 501 224 503 c 0
 224 527 206 545 181 545 c 0
 153 545 127 523 123 495 c 0
 123 492 122 489 122 487 c 0
 122 463 140 445 165 445 c 0
156 385 m 0
 94 385 47 418 47 476 c 0
 47 482 47 489 48 495 c 0
 59 565 124 610 192 610 c 0
 265 610 318 564 318 500 c 0
 318 494 317 487 316 480 c 0
 301 383 238 364 223 270 c 2
 204 150 l 2
 203 146 203 142 203 138 c 0
 203 111 222 100 246 100 c 0
 273 100 298 114 304 150 c 2
 351 450 l 2
 367 548 452 610 562 610 c 0
 662 610 733 559 733 476 c 0
 733 468 732 459 731 450 c 2
 660 0 l 1
 510 0 l 1
 581 450 l 2
 582 454 582 458 582 462 c 0
 582 489 563 500 539 500 c 0
 512 500 487 486 481 450 c 2
 434 150 l 2
 418 52 333 -10 223 -10 c 0
 123 -10 52 41 52 124 c 0
 52 132 53 141 54 150 c 2
 73 270 l 2
 82 325 122 356 161 385 c 1
 160 385 158 385 156 385 c 0
EndSplineSet
Colour: ffff00
EndChar

StartChar: uni0E99
Encoding: 506 3737 11
Width: 690
VWidth: 0
GlyphClass: 2
Flags: HMW
LayerCount: 4
Layer: 2
SplineSet
2 15 m 1
 36 70 l 1
 45 65 65 55 84 55 c 0
 111 55 123 83 129 120 c 2
 174 402 l 1
 168 401 160 400 153 400 c 0
 99 400 59 436 59 488 c 0
 59 494 59 499 60 505 c 0
 70 566 127 610 187 610 c 0
 241 610 281 574 281 522 c 0
 281 516 281 511 280 505 c 2
 223 144 l 1
 248 102 286 65 350 65 c 0
 435 65 467 107 477 170 c 2
 545 600 l 1
 635 600 l 1
 567 170 l 2
 549 57 475 -10 368 -10 c 0
 294 -10 239 26 206 72 c 1
 187 28 147 -10 88 -10 c 0
 46 -10 19 6 2 15 c 1
178 555 m 0
 150 555 124 533 120 505 c 0
 120 502 119 499 119 497 c 0
 119 473 137 455 162 455 c 0
 190 455 216 477 220 505 c 0
 220 508 221 511 221 513 c 0
 221 537 203 555 178 555 c 0
EndSplineSet
Layer: 3
SplineSet
175 445 m 0
 203 445 229 467 233 495 c 0
 233 498 234 501 234 503 c 0
 234 527 216 545 191 545 c 0
 163 545 137 523 133 495 c 0
 133 492 132 489 132 487 c 0
 132 463 150 445 175 445 c 0
308 495 m 2
 255 158 l 1
 279 125 311 100 356 100 c 0
 407 100 441 128 452 200 c 2
 515 600 l 1
 665 600 l 1
 602 200 l 2
 579 56 503 -10 398 -10 c 0
 315 -10 265 29 234 72 c 1
 210 21 161 -10 93 -10 c 0
 36 -10 2 4 -18 15 c 1
 18 85 l 1
 18 85 38 76 59 76 c 0
 76 76 93 83 99 120 c 2
 137 360 l 2
 139 372 142 380 146 386 c 1
 94 392 56 424 56 476 c 0
 56 482 57 488 58 495 c 0
 69 565 134 610 202 610 c 0
 264 610 310 573 310 514 c 0
 310 508 309 502 308 495 c 2
EndSplineSet
Colour: ffff00
EndChar

StartChar: uni0E9A
Encoding: 507 3738 12
Width: 710
VWidth: 0
GlyphClass: 2
Flags: HMW
LayerCount: 4
Layer: 2
SplineSet
178 555 m 0
 150 555 124 533 120 505 c 0
 120 502 119 499 119 497 c 0
 119 473 137 455 162 455 c 0
 190 455 216 477 220 505 c 0
 220 508 221 511 221 513 c 0
 221 537 203 555 178 555 c 0
88 300 m 2
 96 353 137 379 171 406 c 1
 165 405 160 405 154 405 c 0
 100 405 59 437 59 488 c 0
 59 493 59 499 60 505 c 0
 70 566 127 610 187 610 c 0
 251 610 290 570 290 518 c 0
 290 512 290 506 289 500 c 0
 274 403 191 380 178 300 c 2
 157 170 l 2
 156 165 156 161 156 156 c 0
 156 98 212 55 309 55 c 0
 414 55 487 105 497 170 c 2
 565 600 l 1
 655 600 l 1
 587 170 l 2
 565 34 432 -20 297 -20 c 0
 173 -20 64 25 64 138 c 0
 64 148 65 159 67 170 c 2
 88 300 l 2
EndSplineSet
Layer: 3
SplineSet
165 445 m 0
 193 445 219 467 223 495 c 0
 223 498 224 501 224 503 c 0
 224 527 206 545 181 545 c 0
 153 545 127 523 123 495 c 0
 123 492 122 489 122 487 c 0
 122 463 140 445 165 445 c 0
156 385 m 0
 94 385 47 418 47 476 c 0
 47 482 47 489 48 495 c 0
 59 565 124 610 192 610 c 0
 265 610 318 564 318 500 c 0
 318 494 317 487 316 480 c 0
 301 383 238 364 223 270 c 2
 210 190 l 2
 209 183 208 176 208 170 c 0
 208 114 252 90 324 90 c 0
 404 90 459 119 470 190 c 2
 535 600 l 1
 685 600 l 1
 620 190 l 2
 600 65 511 -20 307 -20 c 0
 125 -20 57 55 57 153 c 0
 57 165 58 177 60 190 c 2
 73 270 l 2
 82 325 122 356 161 385 c 1
 160 385 158 385 156 385 c 0
EndSplineSet
Colour: ffff00
EndChar

StartChar: uni0E9B
Encoding: 508 3739 13
Width: 720
VWidth: 0
GlyphClass: 2
Flags: HMW
LayerCount: 4
Layer: 2
SplineSet
178 555 m 0
 150 555 124 533 120 505 c 0
 120 502 119 499 119 497 c 0
 119 473 137 455 162 455 c 0
 190 455 216 477 220 505 c 0
 220 508 221 511 221 513 c 0
 221 537 203 555 178 555 c 0
88 300 m 2
 96 353 137 379 171 406 c 1
 165 405 160 405 154 405 c 0
 100 405 59 437 59 488 c 0
 59 493 59 499 60 505 c 0
 70 566 127 610 187 610 c 0
 251 610 290 570 290 518 c 0
 290 512 290 506 289 500 c 0
 274 403 191 380 178 300 c 2
 157 170 l 2
 156 165 156 161 156 156 c 0
 156 98 212 55 309 55 c 0
 414 55 487 105 497 170 c 2
 603 840 l 1
 693 840 l 1
 587 170 l 2
 565 34 432 -20 297 -20 c 0
 173 -20 64 25 64 138 c 0
 64 148 65 159 67 170 c 2
 88 300 l 2
EndSplineSet
Layer: 3
SplineSet
165 445 m 0
 193 445 219 467 223 495 c 0
 223 498 224 501 224 503 c 0
 224 527 206 545 181 545 c 0
 153 545 127 523 123 495 c 0
 123 492 122 489 122 487 c 0
 122 463 140 445 165 445 c 0
156 385 m 0
 94 385 47 418 47 476 c 0
 47 482 47 489 48 495 c 0
 59 565 124 610 192 610 c 0
 265 610 318 564 318 500 c 0
 318 494 317 487 316 480 c 0
 301 383 238 364 223 270 c 2
 210 190 l 2
 209 183 208 176 208 170 c 0
 208 114 252 90 324 90 c 0
 404 90 459 119 470 190 c 2
 573 840 l 1
 723 840 l 1
 620 190 l 2
 600 65 511 -20 307 -20 c 0
 125 -20 57 55 57 153 c 0
 57 165 58 177 60 190 c 2
 73 270 l 2
 82 325 122 356 161 385 c 1
 160 385 158 385 156 385 c 0
EndSplineSet
Colour: ffff00
EndChar

StartChar: uni0E9C
Encoding: 509 3740 14
Width: 800
VWidth: 0
GlyphClass: 2
Flags: HMW
LayerCount: 4
Layer: 2
SplineSet
268 555 m 0
 240 555 214 533 210 505 c 0
 210 502 209 499 209 497 c 0
 209 473 227 455 252 455 c 0
 280 455 306 477 310 505 c 0
 310 508 311 511 311 513 c 0
 311 537 293 555 268 555 c 0
277 610 m 0
 331 610 371 574 371 522 c 0
 371 516 371 511 370 505 c 0
 360 444 304 405 244 405 c 0
 220 405 201 413 188 427 c 1
 144 150 l 2
 143 144 143 139 143 134 c 0
 143 94 169 65 215 65 c 0
 267 65 306 98 314 150 c 2
 338 300 l 1
 428 300 l 1
 404 150 l 2
 403 144 403 139 403 133 c 0
 403 91 429 65 475 65 c 0
 527 65 566 102 574 150 c 2
 613 400 l 2
 614 407 619 416 625 425 c 1
 610 416 591 410 570 410 c 0
 516 410 479 441 479 491 c 0
 479 497 480 504 481 510 c 0
 491 571 542 610 602 610 c 0
 626 610 644 602 657 591 c 1
 656 598 656 606 657 615 c 2
 665 660 l 1
 745 660 l 1
 664 150 l 2
 648 47 570 -10 463 -10 c 0
 399 -10 363 22 345 61 c 1
 315 22 267 -10 203 -10 c 0
 108 -10 51 35 51 118 c 0
 51 128 52 139 54 150 c 2
 101 450 l 2
 113 527 169 610 277 610 c 0
599 560 m 0
 571 560 545 538 541 510 c 0
 541 507 540 504 540 502 c 0
 540 478 558 460 583 460 c 0
 611 460 637 482 641 510 c 0
 641 513 642 516 642 518 c 0
 642 542 624 560 599 560 c 0
EndSplineSet
Layer: 3
SplineSet
655 660 m 1
 775 660 l 1
 694 150 l 2
 678 49 592 -10 478 -10 c 0
 421 -10 372 14 344 54 c 1
 304 14 245 -10 188 -10 c 0
 85 -10 22 38 22 121 c 0
 22 130 22 140 24 150 c 2
 71 450 l 2
 83 527 139 610 247 610 c 0
 309 610 355 573 355 514 c 0
 355 508 354 502 353 495 c 0
 342 425 279 385 211 385 c 0
 209 385 207 385 204 385 c 1
 206 375 207 363 205 350 c 2
 174 150 l 2
 174 147 173 145 173 142 c 0
 173 113 202 100 226 100 c 0
 252 100 288 115 294 150 c 2
 322 330 l 1
 452 330 l 1
 424 150 l 2
 424 147 423 145 423 142 c 0
 423 113 452 100 476 100 c 0
 502 100 538 115 544 150 c 2
 575 350 l 2
 577 363 583 374 588 383 c 1
 579 381 569 380 560 380 c 0
 498 380 451 417 451 476 c 0
 451 482 452 488 453 495 c 0
 464 565 529 610 597 610 c 0
 617 610 634 605 649 596 c 1
 647 604 647 612 648 620 c 2
 655 660 l 1
586 545 m 0
 558 545 532 523 528 495 c 0
 528 492 527 489 527 487 c 0
 527 463 545 445 570 445 c 0
 598 445 624 467 628 495 c 0
 628 498 629 501 629 503 c 0
 629 527 611 545 586 545 c 0
220 445 m 0
 248 445 274 467 278 495 c 0
 278 498 279 501 279 503 c 0
 279 527 261 545 236 545 c 0
 208 545 182 523 178 495 c 0
 178 492 177 489 177 487 c 0
 177 463 195 445 220 445 c 0
EndSplineSet
Colour: ffff00
EndChar

StartChar: uni0E9D
Encoding: 510 3741 15
Width: 800
VWidth: 0
GlyphClass: 2
Flags: HMW
LayerCount: 4
Layer: 2
SplineSet
268 555 m 0
 240 555 214 533 210 505 c 0
 210 502 209 499 209 497 c 0
 209 473 227 455 252 455 c 0
 280 455 306 477 310 505 c 0
 310 508 311 511 311 513 c 0
 311 537 293 555 268 555 c 0
277 610 m 0
 331 610 371 574 371 522 c 0
 371 516 371 511 370 505 c 0
 360 444 304 405 244 405 c 0
 220 405 201 413 188 427 c 1
 144 150 l 2
 143 144 143 139 143 134 c 0
 143 94 169 65 215 65 c 0
 267 65 306 98 314 150 c 2
 338 300 l 1
 428 300 l 1
 404 150 l 2
 403 144 403 139 403 133 c 0
 403 91 429 65 475 65 c 0
 527 65 566 102 574 150 c 2
 683 840 l 1
 773 840 l 1
 664 150 l 2
 648 47 570 -10 463 -10 c 0
 399 -10 363 22 345 61 c 1
 315 22 267 -10 203 -10 c 0
 108 -10 51 35 51 118 c 0
 51 128 52 139 54 150 c 2
 101 450 l 2
 113 527 169 610 277 610 c 0
EndSplineSet
Layer: 3
SplineSet
220 445 m 0
 248 445 274 467 278 495 c 0
 278 498 279 501 279 503 c 0
 279 527 261 545 236 545 c 0
 208 545 182 523 178 495 c 0
 178 492 177 489 177 487 c 0
 177 463 195 445 220 445 c 0
204 385 m 1
 206 375 207 363 205 350 c 2
 174 150 l 2
 174 147 173 145 173 142 c 0
 173 113 202 100 226 100 c 0
 252 100 288 115 294 150 c 2
 322 330 l 1
 452 330 l 1
 424 150 l 2
 424 147 423 145 423 142 c 0
 423 113 452 100 476 100 c 0
 502 100 538 115 544 150 c 2
 653 840 l 1
 803 840 l 1
 694 150 l 2
 678 49 592 -10 478 -10 c 0
 421 -10 372 14 344 54 c 1
 304 14 245 -10 188 -10 c 0
 85 -10 22 38 22 121 c 0
 22 130 22 140 24 150 c 2
 71 450 l 2
 83 527 139 610 247 610 c 0
 309 610 355 573 355 514 c 0
 355 508 354 502 353 495 c 0
 342 425 279 385 211 385 c 0
 209 385 207 385 204 385 c 1
EndSplineSet
Colour: ffff00
EndChar

StartChar: uni0E9E
Encoding: 511 3742 16
Width: 780
VWidth: 0
GlyphClass: 2
Flags: HMW
LayerCount: 4
Layer: 2
SplineSet
178 555 m 0
 150 555 124 533 120 505 c 0
 120 502 119 499 119 497 c 0
 119 473 137 455 162 455 c 0
 190 455 216 477 220 505 c 0
 220 508 221 511 221 513 c 0
 221 537 203 555 178 555 c 0
344 58 m 1
 310 15 260 -10 208 -10 c 0
 112 -10 61 41 61 118 c 0
 61 128 62 139 64 150 c 2
 88 300 l 2
 96 353 137 379 171 406 c 1
 165 405 160 405 154 405 c 0
 100 405 59 437 59 488 c 0
 59 493 59 499 60 505 c 0
 70 566 127 610 187 610 c 0
 251 610 290 570 290 518 c 0
 290 512 290 506 289 500 c 0
 274 403 191 380 178 300 c 2
 154 150 l 2
 153 143 153 137 153 131 c 0
 153 89 177 65 220 65 c 0
 269 65 306 97 314 150 c 2
 338 300 l 1
 428 300 l 1
 404 150 l 2
 403 143 403 137 403 131 c 0
 403 89 427 65 470 65 c 0
 519 65 556 97 564 150 c 2
 635 600 l 1
 725 600 l 1
 654 150 l 2
 639 56 567 -10 458 -10 c 0
 406 -10 364 15 344 58 c 1
EndSplineSet
Layer: 3
SplineSet
165 445 m 0
 193 445 219 467 223 495 c 0
 223 498 224 501 224 503 c 0
 224 527 206 545 181 545 c 0
 153 545 127 523 123 495 c 0
 123 492 122 489 122 487 c 0
 122 463 140 445 165 445 c 0
156 385 m 0
 94 385 47 418 47 476 c 0
 47 482 47 489 48 495 c 0
 59 565 124 610 192 610 c 0
 265 610 318 564 318 500 c 0
 318 494 317 487 316 480 c 0
 301 383 238 364 223 270 c 2
 204 150 l 2
 203 146 203 142 203 139 c 0
 203 112 223 100 246 100 c 0
 272 100 298 115 304 150 c 2
 332 330 l 1
 462 330 l 1
 434 150 l 2
 433 146 433 142 433 139 c 0
 433 112 453 100 476 100 c 0
 502 100 528 115 534 150 c 2
 605 600 l 1
 755 600 l 1
 684 150 l 2
 668 49 592 -10 478 -10 c 0
 423 -10 378 12 353 49 c 1
 316 12 263 -10 208 -10 c 0
 107 -10 51 37 51 118 c 0
 51 128 52 139 54 150 c 2
 73 270 l 2
 82 325 122 356 161 385 c 1
 160 385 158 385 156 385 c 0
EndSplineSet
Colour: ffff00
EndChar

StartChar: uni0E9F
Encoding: 512 3743 17
Width: 790
VWidth: 0
GlyphClass: 2
Flags: HMW
LayerCount: 4
Layer: 2
SplineSet
178 555 m 0
 150 555 124 533 120 505 c 0
 120 502 119 499 119 497 c 0
 119 473 137 455 162 455 c 0
 190 455 216 477 220 505 c 0
 220 508 221 511 221 513 c 0
 221 537 203 555 178 555 c 0
344 58 m 1
 310 15 260 -10 208 -10 c 0
 112 -10 61 41 61 118 c 0
 61 128 62 139 64 150 c 2
 88 300 l 2
 96 353 137 379 171 406 c 1
 165 405 160 405 154 405 c 0
 100 405 59 437 59 488 c 0
 59 493 59 499 60 505 c 0
 70 566 127 610 187 610 c 0
 251 610 290 570 290 518 c 0
 290 512 290 506 289 500 c 0
 274 403 191 380 178 300 c 2
 154 150 l 2
 153 143 153 137 153 131 c 0
 153 89 177 65 220 65 c 0
 269 65 306 97 314 150 c 2
 338 300 l 1
 428 300 l 1
 404 150 l 2
 403 143 403 137 403 131 c 0
 403 89 427 65 470 65 c 0
 519 65 556 97 564 150 c 2
 673 840 l 1
 763 840 l 1
 654 150 l 2
 639 56 567 -10 458 -10 c 0
 406 -10 364 15 344 58 c 1
EndSplineSet
Layer: 3
SplineSet
165 445 m 0
 193 445 219 467 223 495 c 0
 223 498 224 501 224 503 c 0
 224 527 206 545 181 545 c 0
 153 545 127 523 123 495 c 0
 123 492 122 489 122 487 c 0
 122 463 140 445 165 445 c 0
156 385 m 0
 94 385 47 418 47 476 c 0
 47 482 47 489 48 495 c 0
 59 565 124 610 192 610 c 0
 265 610 318 564 318 500 c 0
 318 494 317 487 316 480 c 0
 301 383 238 364 223 270 c 2
 204 150 l 2
 203 146 203 142 203 139 c 0
 203 112 223 100 246 100 c 0
 272 100 298 115 304 150 c 2
 332 330 l 1
 462 330 l 1
 434 150 l 2
 433 146 433 142 433 139 c 0
 433 112 453 100 476 100 c 0
 502 100 528 115 534 150 c 2
 643 840 l 1
 793 840 l 1
 684 150 l 2
 668 49 592 -10 478 -10 c 0
 423 -10 378 12 353 49 c 1
 316 12 263 -10 208 -10 c 0
 107 -10 51 37 51 118 c 0
 51 128 52 139 54 150 c 2
 73 270 l 2
 82 325 122 356 161 385 c 1
 160 385 158 385 156 385 c 0
EndSplineSet
Colour: ffff00
EndChar

StartChar: uni0EA1
Encoding: 513 3745 18
Width: 700
VWidth: 0
GlyphClass: 2
Flags: HMW
LayerCount: 4
Layer: 2
SplineSet
177 610 m 1
 258 610 282 575 282 529 c 0
 282 520 281 510 279 500 c 2
 221 134 l 1
 246 96 286 65 360 65 c 0
 451 65 478 111 489 180 c 2
 555 600 l 1
 645 600 l 1
 579 180 l 2
 559 55 474 -10 368 -10 c 0
 290 -10 234 27 205 63 c 1
 184 19 137 -10 88 -10 c 0
 34 -10 -6 26 -6 78 c 0
 -6 84 -6 89 -5 95 c 0
 5 156 62 200 122 200 c 0
 129 200 135 199 141 198 c 1
 189 500 l 2
 190 506 191 512 191 517 c 0
 191 536 183 545 166 545 c 1
 177 610 l 1
97 45 m 0
 125 45 151 67 155 95 c 0
 155 98 156 101 156 103 c 0
 156 127 138 145 113 145 c 0
 85 145 59 123 55 95 c 0
 55 92 54 89 54 87 c 0
 54 63 72 45 97 45 c 0
EndSplineSet
Layer: 3
SplineSet
120 155 m 0
 92 155 66 133 62 105 c 0
 62 102 61 99 61 97 c 0
 61 73 79 55 104 55 c 0
 132 55 158 77 162 105 c 0
 162 108 163 111 163 113 c 0
 163 137 145 155 120 155 c 0
137 610 m 1
 257 610 297 579 297 507 c 0
 297 493 296 477 293 460 c 2
 247 170 l 1
 271 132 306 100 356 100 c 0
 407 100 441 128 452 200 c 2
 515 600 l 1
 665 600 l 1
 602 200 l 2
 579 56 503 -10 398 -10 c 0
 311 -10 261 33 230 79 c 1
 209 24 152 -10 93 -10 c 0
 31 -10 -15 27 -15 86 c 0
 -15 92 -14 98 -13 105 c 0
 -3 167 49 210 108 218 c 1
 107 224 107 231 108 240 c 2
 143 460 l 2
 145 475 147 486 147 495 c 0
 147 514 140 520 122 520 c 1
 137 610 l 1
EndSplineSet
Colour: ffff00
EndChar

StartChar: uni0EA2
Encoding: 514 3746 19
Width: 710
VWidth: 0
GlyphClass: 2
Flags: HMW
LayerCount: 4
Layer: 2
SplineSet
272 455 m 0
 300 455 326 477 330 505 c 0
 330 508 331 511 331 513 c 0
 331 537 313 555 288 555 c 0
 260 555 234 533 230 505 c 0
 230 502 229 499 229 497 c 0
 229 473 247 455 272 455 c 0
263 400 m 0
 209 400 174 440 174 492 c 1
 168 481 164 467 161 450 c 0
 160 445 160 441 160 436 c 0
 160 367 240 315 335 315 c 1
 325 255 l 1
 239 255 149 245 139 180 c 0
 138 174 138 169 138 163 c 0
 138 101 193 55 294 55 c 0
 404 55 478 109 489 180 c 2
 593 840 l 1
 683 840 l 1
 579 180 l 2
 559 55 427 -20 282 -20 c 0
 148 -20 47 53 47 155 c 0
 47 163 48 171 49 180 c 0
 59 244 111 278 176 297 c 1
 125 328 89 375 89 430 c 0
 89 437 90 443 91 450 c 0
 106 547 193 610 297 610 c 0
 351 610 391 574 391 522 c 0
 391 516 391 511 390 505 c 0
 380 444 323 400 263 400 c 0
EndSplineSet
Layer: 3
SplineSet
260 445 m 0
 288 445 314 467 318 495 c 0
 318 498 319 501 319 503 c 0
 319 527 301 545 276 545 c 0
 248 545 222 523 218 495 c 0
 218 492 217 489 217 487 c 0
 217 463 235 445 260 445 c 0
250 380 m 0
 201 380 169 415 158 454 c 1
 156 450 156 445 155 440 c 0
 154 435 154 431 154 427 c 0
 154 365 227 325 336 325 c 1
 325 255 l 1
 231 255 177 230 169 180 c 0
 169 176 168 173 168 170 c 0
 168 119 224 90 299 90 c 0
 379 90 452 139 463 210 c 2
 563 840 l 1
 713 840 l 1
 613 210 l 2
 593 85 475 -20 282 -20 c 0
 103 -20 18 74 18 160 c 0
 18 167 18 174 19 180 c 0
 28 237 65 277 135 300 c 1
 89 327 58 367 58 418 c 0
 58 425 59 432 60 440 c 0
 79 558 182 610 287 610 c 0
 349 610 395 573 395 514 c 0
 395 508 394 502 393 495 c 0
 382 425 318 380 250 380 c 0
EndSplineSet
Colour: ffff00
EndChar

StartChar: uni0EA3
Encoding: 515 3747 20
Width: 680
VWidth: 0
GlyphClass: 2
Flags: HMW
LayerCount: 4
Layer: 2
SplineSet
373 620 m 0
 501 620 599 557 599 450 c 0
 599 440 599 430 597 420 c 1
 512 420 l 1
 513 426 513 431 513 437 c 0
 513 500 457 550 362 550 c 0
 259 550 183 498 175 445 c 0
 175 443 174 440 174 438 c 0
 174 388 267 373 350 350 c 0
 444 324 568 296 568 189 c 0
 568 181 567 174 566 165 c 0
 544 24 403 -20 272 -20 c 0
 176 -20 43 21 43 132 c 0
 43 139 44 147 45 155 c 0
 55 216 111 260 171 260 c 0
 225 260 266 224 266 172 c 0
 266 166 266 161 265 155 c 0
 258 108 222 74 179 61 c 1
 205 55 239 50 283 50 c 0
 384 50 464 88 475 155 c 0
 476 160 476 165 476 169 c 0
 476 233 396 251 309 275 c 0
 233 296 87 313 87 416 c 0
 87 422 88 428 89 435 c 0
 106 544 233 620 373 620 c 0
162 205 m 0
 134 205 109 183 105 155 c 0
 105 152 104 149 104 147 c 0
 104 123 122 105 147 105 c 0
 175 105 201 127 205 155 c 0
 205 158 206 160 206 162 c 0
 206 186 187 205 162 205 c 0
EndSplineSet
Layer: 3
SplineSet
147 205 m 0
 119 205 94 183 90 155 c 0
 90 152 89 149 89 147 c 0
 89 123 107 105 132 105 c 0
 160 105 186 127 190 155 c 0
 190 158 191 160 191 162 c 0
 191 186 172 205 147 205 c 0
158 270 m 0
 220 270 267 233 267 174 c 0
 267 168 266 162 265 155 c 0
 260 124 245 99 223 82 c 1
 238 78 261 75 292 75 c 0
 388 75 447 107 457 170 c 0
 458 173 458 176 458 179 c 0
 458 216 417 236 312 265 c 0
 194 298 66 314 66 410 c 0
 66 416 67 422 68 429 c 0
 85 538 223 620 378 620 c 0
 554 620 635 526 635 428 c 0
 635 419 634 409 633 400 c 1
 493 400 l 1
 494 406 494 412 494 418 c 0
 494 478 442 510 361 510 c 0
 275 510 220 469 215 440 c 0
 215 438 215 437 215 435 c 0
 215 397 289 387 359 370 c 0
 517 332 601 300 601 208 c 0
 601 199 601 190 599 180 c 0
 580 57 448 -20 277 -20 c 0
 101 -20 14 61 14 139 c 0
 14 144 14 150 15 155 c 0
 26 225 90 270 158 270 c 0
EndSplineSet
Colour: ffff00
EndChar

StartChar: uni0EA5
Encoding: 516 3749 21
Width: 690
VWidth: 0
GlyphClass: 2
Flags: HMW
LayerCount: 4
Layer: 2
SplineSet
171 135 m 0
 143 135 117 113 113 85 c 0
 113 82 112 80 112 78 c 0
 112 54 131 35 156 35 c 0
 184 35 209 57 213 85 c 0
 213 88 214 91 214 93 c 0
 214 117 196 135 171 135 c 0
189 185 m 0
 237 185 275 154 275 103 c 0
 275 97 274 91 273 85 c 0
 263 24 207 -20 147 -20 c 0
 87 -20 37 23 37 94 c 0
 37 102 38 111 39 120 c 0
 54 217 141 280 234 280 c 0
 388 280 423 151 433 60 c 1
 450 61 461 70 466 100 c 2
 517 420 l 2
 518 426 518 433 518 439 c 0
 518 506 459 545 366 545 c 0
 265 545 189 498 177 420 c 1
 87 420 l 1
 105 534 229 620 378 620 c 0
 515 620 609 548 609 447 c 0
 609 438 608 429 607 420 c 2
 556 100 l 2
 546 37 531 0 460 0 c 2
 370 0 l 1
 368 74 353 220 225 220 c 0
 175 220 134 194 116 160 c 1
 136 176 161 185 189 185 c 0
EndSplineSet
Layer: 3
SplineSet
161 130 m 0
 136 130 112 110 108 85 c 0
 108 83 107 80 107 78 c 0
 107 56 123 40 146 40 c 0
 171 40 194 60 198 85 c 0
 198 88 199 91 199 93 c 0
 199 114 183 130 161 130 c 0
169 185 m 0
 227 185 269 155 269 102 c 0
 269 96 269 91 268 85 c 0
 258 21 201 -20 137 -20 c 0
 64 -20 9 32 9 105 c 0
 9 113 10 121 11 130 c 0
 26 227 127 290 226 290 c 0
 368 290 420 208 441 130 c 1
 482 390 l 2
 483 396 483 401 483 407 c 0
 483 461 440 500 359 500 c 0
 270 500 212 450 202 390 c 1
 52 390 l 1
 70 504 180 620 378 620 c 0
 557 620 635 526 635 423 c 0
 635 412 634 401 632 390 c 2
 583 80 l 2
 571 3 532 0 420 0 c 2
 370 0 l 1
 368 79 343 200 202 200 c 0
 175 200 154 193 140 181 c 1
 149 184 159 185 169 185 c 0
EndSplineSet
Colour: ffff00
EndChar

StartChar: uni0EA7
Encoding: 517 3751 22
Width: 660
VWidth: 0
GlyphClass: 2
Flags: HMW
LayerCount: 4
Layer: 2
SplineSet
172 205 m 0
 144 205 119 183 115 155 c 0
 115 152 114 149 114 147 c 0
 114 123 132 105 157 105 c 0
 185 105 211 127 215 155 c 0
 215 158 216 160 216 162 c 0
 216 186 197 205 172 205 c 0
181 260 m 0
 235 260 276 224 276 172 c 0
 276 166 276 161 275 155 c 0
 267 106 230 72 185 60 c 1
 207 54 237 50 278 50 c 0
 367 50 437 103 449 180 c 2
 487 420 l 2
 488 427 489 433 489 439 c 0
 489 500 440 545 346 545 c 0
 243 545 178 491 167 420 c 1
 77 420 l 1
 95 535 218 620 358 620 c 0
 486 620 580 557 580 451 c 0
 580 441 579 431 577 420 c 2
 539 180 l 2
 516 34 376 -20 267 -20 c 0
 172 -20 53 20 53 129 c 0
 53 137 54 146 55 155 c 0
 65 216 121 260 181 260 c 0
EndSplineSet
Layer: 3
SplineSet
157 205 m 0
 129 205 104 183 100 155 c 0
 100 152 99 149 99 147 c 0
 99 123 117 105 142 105 c 0
 170 105 196 127 200 155 c 0
 200 158 201 160 201 162 c 0
 201 186 182 205 157 205 c 0
168 270 m 0
 230 270 277 233 277 174 c 0
 277 168 276 162 275 155 c 0
 270 122 253 96 229 79 c 1
 243 76 260 75 282 75 c 0
 368 75 409 118 420 190 c 2
 452 390 l 2
 453 396 454 403 454 409 c 0
 454 462 414 500 339 500 c 0
 255 500 202 450 192 390 c 1
 42 390 l 1
 60 504 170 620 358 620 c 0
 528 620 605 526 605 423 c 0
 605 412 604 401 602 390 c 2
 570 190 l 2
 551 67 438 -20 267 -20 c 0
 109 -20 23 48 23 134 c 0
 23 141 24 148 25 155 c 0
 36 225 100 270 168 270 c 0
EndSplineSet
Colour: ffff00
EndChar

StartChar: uni0EAA
Encoding: 518 3754 23
Width: 700
VWidth: 0
GlyphClass: 2
Flags: HMW
LayerCount: 4
Layer: 2
SplineSet
181 135 m 0
 153 135 127 113 123 85 c 0
 123 82 122 80 122 78 c 0
 122 54 141 35 166 35 c 0
 194 35 219 57 223 85 c 0
 223 88 224 91 224 93 c 0
 224 117 206 135 181 135 c 0
199 185 m 0
 247 185 285 154 285 103 c 0
 285 97 284 91 283 85 c 0
 273 24 217 -20 157 -20 c 0
 97 -20 47 23 47 94 c 0
 47 102 48 111 49 120 c 0
 64 217 151 280 244 280 c 0
 398 280 433 151 443 60 c 1
 460 61 471 70 476 100 c 2
 517 360 l 2
 519 371 523 380 527 386 c 1
 479 365 412 345 335 345 c 0
 205 345 91 387 91 447 c 0
 91 449 92 452 92 455 c 0
 105 539 238 620 378 620 c 0
 461 620 525 589 561 542 c 1
 559 551 558 560 560 570 c 2
 575 660 l 1
 655 660 l 1
 566 100 l 2
 556 37 541 0 470 0 c 2
 380 0 l 1
 378 74 363 220 235 220 c 0
 185 220 144 194 126 160 c 1
 146 176 171 185 199 185 c 0
540 455 m 1
 526 509 459 550 367 550 c 0
 260 550 183 489 183 458 c 0
 183 434 248 405 344 405 c 0
 435 405 504 434 540 455 c 1
EndSplineSet
Layer: 3
SplineSet
555 660 m 1
 675 660 l 1
 583 80 l 2
 571 3 532 0 420 0 c 2
 370 0 l 1
 368 79 343 200 202 200 c 0
 175 200 154 193 140 181 c 1
 149 184 159 185 169 185 c 0
 227 185 269 155 269 102 c 0
 269 96 269 91 268 85 c 0
 258 21 201 -20 137 -20 c 0
 64 -20 9 32 9 105 c 0
 9 113 10 121 11 130 c 0
 26 227 127 290 226 290 c 0
 368 290 420 208 441 130 c 1
 471 320 l 2
 474 336 481 349 491 360 c 1
 447 344 393 330 332 330 c 0
 203 330 60 363 60 440 c 0
 60 443 60 447 61 450 c 0
 72 517 194 620 378 620 c 0
 457 620 511 595 544 559 c 1
 542 568 541 579 543 590 c 2
 555 660 l 1
161 130 m 0
 136 130 112 110 108 85 c 0
 108 83 107 80 107 78 c 0
 107 56 123 40 146 40 c 0
 171 40 194 60 198 85 c 0
 198 88 199 91 199 93 c 0
 199 114 183 130 161 130 c 0
362 520 m 0
 279 520 191 481 191 448 c 0
 191 425 260 410 345 410 c 0
 417 410 475 426 515 443 c 1
 494 488 437 520 362 520 c 0
EndSplineSet
Colour: ffff00
EndChar

StartChar: uni0EAB
Encoding: 519 3755 24
Width: 830
VWidth: 0
GlyphClass: 2
Flags: HMW
LayerCount: 4
Layer: 2
SplineSet
444 560 m 0
 416 560 390 538 386 510 c 0
 386 507 385 504 385 502 c 0
 385 478 403 460 428 460 c 0
 456 460 482 482 486 510 c 0
 486 513 487 516 487 518 c 0
 487 542 469 560 444 560 c 0
188 555 m 0
 160 555 134 533 130 505 c 0
 130 502 129 499 129 497 c 0
 129 473 147 455 172 455 c 0
 200 455 226 477 230 505 c 0
 230 508 231 511 231 513 c 0
 231 537 213 555 188 555 c 0
542 517 m 1
 574 556 611 600 665 600 c 0
 710 600 748 570 748 508 c 0
 748 499 748 490 746 480 c 2
 670 0 l 1
 580 0 l 1
 653 460 l 2
 654 469 655 478 655 485 c 0
 655 511 646 525 623 525 c 0
 575 525 533 437 476 418 c 1
 431 130 l 2
 417 41 333 -10 228 -10 c 0
 132 -10 69 32 69 107 c 0
 69 114 70 122 71 130 c 2
 98 300 l 2
 106 353 147 379 181 406 c 1
 175 405 170 405 164 405 c 0
 110 405 69 437 69 488 c 0
 69 493 69 499 70 505 c 0
 80 566 137 610 197 610 c 0
 261 610 300 570 300 518 c 0
 300 512 300 506 299 500 c 0
 284 403 201 380 188 300 c 2
 161 130 l 2
 161 127 160 124 160 121 c 0
 160 82 201 65 240 65 c 0
 282 65 334 85 341 130 c 2
 386 416 l 1
 355 428 330 456 330 495 c 0
 330 500 330 505 331 510 c 0
 341 571 400 610 452 610 c 0
 499 610 542 578 542 526 c 0
 542 523 542 520 542 517 c 1
EndSplineSet
Layer: 3
SplineSet
452 550 m 0
 424 550 398 528 394 500 c 0
 394 497 393 494 393 492 c 0
 393 468 411 450 436 450 c 0
 464 450 490 472 494 500 c 0
 494 503 495 506 495 508 c 0
 495 532 477 550 452 550 c 0
165 445 m 0
 193 445 219 467 223 495 c 0
 223 498 224 501 224 503 c 0
 224 527 206 545 181 545 c 0
 153 545 127 523 123 495 c 0
 123 492 122 489 122 487 c 0
 122 463 140 445 165 445 c 0
156 385 m 0
 94 385 47 418 47 476 c 0
 47 482 47 489 48 495 c 0
 59 565 124 610 192 610 c 0
 265 610 318 564 318 500 c 0
 318 494 317 487 316 480 c 0
 301 383 238 364 223 270 c 2
 204 150 l 2
 203 147 203 144 203 141 c 0
 203 111 231 100 256 100 c 0
 283 100 318 114 324 150 c 2
 359 370 l 2
 361 384 366 396 370 405 c 1
 345 420 328 446 328 482 c 0
 328 488 328 494 329 500 c 0
 340 570 405 610 462 610 c 0
 514 610 561 576 561 517 c 1
 599 554 646 600 705 600 c 0
 763 600 788 567 788 511 c 0
 788 498 786 485 784 470 c 2
 710 0 l 1
 560 0 l 1
 627 420 l 2
 629 431 629 440 629 448 c 0
 629 470 623 480 606 480 c 0
 575 480 527 419 494 407 c 1
 454 150 l 2
 438 52 343 -10 233 -10 c 0
 132 -10 52 43 52 127 c 0
 52 135 53 142 54 150 c 2
 73 270 l 2
 82 325 122 356 161 385 c 1
 160 385 158 385 156 385 c 0
EndSplineSet
Colour: ffff00
EndChar

StartChar: uni0EAD
Encoding: 520 3757 25
Width: 690
VWidth: 0
GlyphClass: 2
Flags: HMW
LayerCount: 4
Layer: 2
SplineSet
162 205 m 0
 134 205 109 183 105 155 c 0
 105 152 104 149 104 147 c 0
 104 123 122 105 147 105 c 0
 175 105 201 127 205 155 c 0
 205 158 206 160 206 162 c 0
 206 186 187 205 162 205 c 0
171 260 m 0
 225 260 266 224 266 172 c 0
 266 166 266 161 265 155 c 0
 258 110 224 76 183 62 c 1
 209 56 243 50 288 50 c 0
 389 50 465 97 477 170 c 2
 505 350 l 2
 507 361 510 371 513 380 c 1
 466 362 405 345 335 345 c 0
 205 345 91 387 91 447 c 0
 91 449 92 452 92 455 c 0
 105 539 238 620 378 620 c 0
 507 620 609 557 609 449 c 0
 609 440 609 430 607 420 c 2
 567 170 l 2
 547 45 408 -20 277 -20 c 0
 154 -20 43 41 43 135 c 0
 43 142 44 148 45 155 c 0
 55 216 111 260 171 260 c 0
527 448 m 1
 519 506 456 550 367 550 c 0
 260 550 183 489 183 458 c 0
 183 434 248 405 344 405 c 0
 425 405 488 428 527 448 c 1
EndSplineSet
Layer: 3
SplineSet
147 205 m 0
 119 205 94 183 90 155 c 0
 90 152 89 149 89 147 c 0
 89 123 107 105 132 105 c 0
 160 105 186 127 190 155 c 0
 190 158 191 160 191 162 c 0
 191 186 172 205 147 205 c 0
158 270 m 0
 220 270 267 233 267 174 c 0
 267 168 266 162 265 155 c 0
 260 124 244 99 222 82 c 1
 239 78 262 75 292 75 c 0
 388 75 440 128 450 190 c 2
 471 320 l 2
 473 335 478 347 484 357 c 1
 443 342 390 330 332 330 c 0
 203 330 60 363 60 440 c 0
 60 443 60 447 61 450 c 0
 72 517 194 620 378 620 c 0
 557 620 635 526 635 423 c 0
 635 412 634 401 632 390 c 2
 600 190 l 2
 578 50 448 -20 277 -20 c 0
 117 -20 14 49 14 137 c 0
 14 143 14 149 15 155 c 0
 26 225 90 270 158 270 c 0
507 440 m 1
 488 486 431 520 362 520 c 0
 279 520 191 481 191 448 c 0
 191 425 260 410 345 410 c 0
 412 410 467 424 507 440 c 1
EndSplineSet
Colour: ffff00
EndChar

StartChar: uni0EAE
Encoding: 521 3758 26
Width: 700
VWidth: 0
GlyphClass: 2
Flags: HMW
LayerCount: 4
Layer: 2
SplineSet
585 600 m 1
 645 600 l 1
 612 390 l 1
 562 390 l 1
 548 425 503 545 336 545 c 0
 250 545 200 511 194 470 c 0
 194 467 193 464 193 461 c 0
 193 413 266 397 368 365 c 0
 474 332 579 289 579 193 c 0
 579 186 578 178 577 170 c 0
 557 45 418 -20 287 -20 c 0
 164 -20 53 41 53 135 c 0
 53 142 54 148 55 155 c 0
 65 216 121 260 181 260 c 0
 235 260 276 224 276 172 c 0
 276 166 276 161 275 155 c 0
 268 110 234 76 193 62 c 1
 219 56 253 50 298 50 c 0
 399 50 475 97 487 170 c 0
 488 174 488 177 488 181 c 0
 488 233 428 265 327 295 c 0
 235 322 102 347 102 449 c 0
 102 456 103 463 104 470 c 0
 118 557 214 620 348 620 c 0
 481 620 546 539 575 489 c 1
 574 495 574 501 574 509 c 0
 574 518 574 529 576 540 c 2
 585 600 l 1
172 205 m 0
 144 205 119 183 115 155 c 0
 115 152 114 149 114 147 c 0
 114 123 132 105 157 105 c 0
 185 105 211 127 215 155 c 0
 215 158 216 160 216 162 c 0
 216 186 197 205 172 205 c 0
EndSplineSet
Layer: 3
SplineSet
157 205 m 0
 129 205 104 183 100 155 c 0
 100 152 99 149 99 147 c 0
 99 123 117 105 142 105 c 0
 170 105 196 127 200 155 c 0
 200 158 201 160 201 162 c 0
 201 186 182 205 157 205 c 0
585 600 m 1
 675 600 l 1
 642 390 l 1
 552 390 l 1
 540 449 466 515 342 515 c 0
 284 515 229 496 223 460 c 0
 223 457 222 455 222 453 c 0
 222 424 258 416 371 385 c 0
 507 347 612 311 612 214 c 0
 612 206 611 198 610 190 c 0
 591 67 458 -20 287 -20 c 0
 111 -20 24 61 24 139 c 0
 24 144 24 150 25 155 c 0
 36 225 100 270 168 270 c 0
 230 270 277 233 277 174 c 0
 277 168 276 162 275 155 c 0
 270 124 255 99 233 82 c 1
 248 78 271 75 302 75 c 0
 398 75 459 117 469 180 c 0
 470 183 470 187 470 190 c 0
 470 229 429 245 324 275 c 0
 198 311 70 330 70 433 c 0
 70 440 71 447 72 455 c 0
 86 545 210 620 358 620 c 0
 479 620 544 555 574 493 c 1
 573 505 572 517 574 530 c 2
 585 600 l 1
EndSplineSet
Colour: ffff00
EndChar

StartChar: uni0EB0
Encoding: 523 3760 27
Width: 600
VWidth: 0
GlyphClass: 2
Flags: HMW
LayerCount: 4
Layer: 2
SplineSet
196 540 m 0
 171 540 147 520 143 495 c 0
 143 493 142 490 142 488 c 0
 142 466 158 450 181 450 c 0
 206 450 229 470 233 495 c 0
 233 498 234 501 234 503 c 0
 234 524 218 540 196 540 c 0
203 590 m 0
 253 590 289 558 289 511 c 0
 289 506 289 500 288 495 c 0
 285 477 276 462 264 450 c 1
 361 450 l 2
 415 450 445 473 457 550 c 1
 547 550 l 1
 526 420 452 380 350 380 c 2
 220 380 l 2
 124 380 86 424 86 476 c 0
 86 482 87 488 88 495 c 0
 97 551 148 590 203 590 c 0
142 200 m 0
 117 200 94 180 90 155 c 0
 90 152 89 149 89 147 c 0
 89 126 105 110 127 110 c 0
 152 110 176 130 180 155 c 0
 180 157 181 160 181 162 c 0
 181 184 165 200 142 200 c 0
150 250 m 0
 200 250 236 218 236 171 c 0
 236 166 236 160 235 155 c 0
 232 137 222 122 210 110 c 1
 307 110 l 2
 361 110 391 133 403 210 c 1
 493 210 l 1
 472 80 398 40 296 40 c 2
 166 40 l 2
 70 40 33 83 33 135 c 0
 33 142 34 148 35 155 c 0
 44 211 95 250 150 250 c 0
EndSplineSet
Layer: 3
SplineSet
122 200 m 0
 100 200 78 182 75 160 c 0
 75 158 75 156 75 154 c 0
 75 135 89 120 109 120 c 0
 131 120 152 138 155 160 c 0
 155 162 155 164 155 166 c 0
 155 185 142 200 122 200 c 0
131 260 m 0
 186 260 221 223 221 176 c 0
 221 171 221 166 220 160 c 0
 218 149 215 138 210 128 c 1
 221 132 231 135 241 135 c 2
 311 135 l 2
 365 135 394 153 406 230 c 1
 526 230 l 1
 505 100 428 40 326 40 c 2
 136 40 l 2
 40 40 3 87 3 140 c 0
 3 147 4 153 5 160 c 0
 14 215 70 260 131 260 c 0
176 540 m 0
 154 540 132 522 129 500 c 0
 129 498 129 496 129 494 c 0
 129 475 143 460 163 460 c 0
 185 460 206 478 209 500 c 0
 209 502 209 504 209 506 c 0
 209 525 196 540 176 540 c 0
185 600 m 0
 240 600 275 563 275 516 c 0
 275 511 275 506 274 500 c 0
 272 489 269 478 264 468 c 1
 275 472 285 475 295 475 c 2
 365 475 l 2
 419 475 448 493 460 570 c 1
 580 570 l 1
 559 440 482 380 380 380 c 2
 190 380 l 2
 94 380 57 427 57 480 c 0
 57 487 58 493 59 500 c 0
 68 555 124 600 185 600 c 0
EndSplineSet
Colour: ffff
EndChar

StartChar: uni0EB1
Encoding: 524 3761 28
Width: 0
VWidth: 0
GlyphClass: 4
Flags: HMW
LayerCount: 4
Layer: 2
SplineSet
-400 760 m 0
 -378 760 -356 778 -353 800 c 0
 -353 802 -353 804 -353 806 c 0
 -353 825 -367 840 -387 840 c 0
 -409 840 -430 822 -433 800 c 0
 -433 798 -433 796 -433 794 c 0
 -433 775 -420 760 -400 760 c 0
-321 765 m 1
 -229 765 l 2
 -165 765 -144 798 -134 860 c 1
 -54 860 l 1
 -72 745 -144 700 -229 700 c 2
 -359 700 l 2
 -445 700 -485 732 -485 782 c 0
 -485 788 -484 794 -483 800 c 0
 -475 850 -430 885 -380 885 c 0
 -335 885 -302 856 -302 814 c 0
 -302 809 -302 805 -303 800 c 0
 -305 787 -311 775 -321 765 c 1
EndSplineSet
Layer: 3
SplineSet
-406 845 m 0
 -425 845 -443 829 -446 810 c 0
 -446 808 -446 807 -446 805 c 0
 -446 788 -434 775 -417 775 c 0
 -397 775 -379 791 -376 810 c 0
 -376 812 -376 813 -376 815 c 0
 -376 832 -388 845 -406 845 c 0
-397 900 m 0
 -347 900 -315 868 -315 825 c 0
 -315 820 -315 815 -316 810 c 0
 -318 797 -322 785 -329 775 c 1
 -323 778 -316 780 -310 780 c 2
 -226 780 l 2
 -162 780 -142 808 -132 870 c 1
 -22 870 l 1
 -40 755 -113 700 -199 700 c 2
 -389 700 l 2
 -470 700 -513 741 -513 793 c 0
 -513 798 -513 804 -512 810 c 0
 -504 860 -452 900 -397 900 c 0
EndSplineSet
Colour: ffff
EndChar

StartChar: uni0EB2
Encoding: 525 3762 29
Width: 540
VWidth: 0
GlyphClass: 2
Flags: HMW
LayerCount: 4
Layer: 2
SplineSet
175 475 m 0
 147 475 121 453 117 425 c 0
 117 422 116 419 116 417 c 0
 116 393 134 375 159 375 c 0
 187 375 213 397 217 425 c 0
 217 428 218 431 218 433 c 0
 218 457 200 475 175 475 c 0
390 0 m 1
 300 0 l 1
 365 410 l 2
 367 423 368 436 368 447 c 0
 368 513 331 540 271 540 c 0
 240 540 212 534 191 525 c 1
 242 521 278 490 278 441 c 0
 278 436 278 431 277 425 c 0
 267 364 211 320 151 320 c 0
 97 320 56 356 56 408 c 0
 56 414 56 419 57 425 c 0
 75 536 172 610 282 610 c 0
 380 610 458 564 458 453 c 0
 458 440 457 425 455 410 c 2
 390 0 l 1
EndSplineSet
Layer: 3
SplineSet
165 445 m 0
 137 445 112 423 108 395 c 0
 108 392 107 389 107 387 c 0
 107 363 125 345 150 345 c 0
 178 345 204 367 208 395 c 0
 208 398 209 400 209 402 c 0
 209 426 190 445 165 445 c 0
260 0 m 9
 325 410 l 2
 327 420 327 429 327 438 c 0
 327 501 287 520 237 520 c 0
 212 520 190 512 172 500 c 1
 232 497 284 467 284 411 c 0
 284 406 284 401 283 395 c 0
 272 325 207 280 139 280 c 0
 77 280 31 317 31 376 c 0
 31 382 32 388 33 395 c 0
 52 517 157 610 287 610 c 0
 391 610 476 548 476 437 c 0
 476 425 475 413 473 400 c 2
 410 0 l 17
 260 0 l 9
EndSplineSet
Colour: ffff00
EndChar

StartChar: uni0EBD
Encoding: 535 3773 30
Width: 630
VWidth: 0
GlyphClass: 2
Flags: HMW
LayerCount: 4
Layer: 2
SplineSet
495 600 m 1
 555 600 l 1
 522 390 l 1
 472 390 l 1
 465 437 395 550 267 550 c 0
 195 550 152 521 146 480 c 0
 145 474 145 468 145 463 c 0
 145 430 167 403 287 365 c 0
 422 322 488 282 488 194 c 0
 488 183 487 172 485 160 c 2
 450 -60 l 2
 427 -206 288 -260 179 -260 c 0
 84 -260 -35 -220 -35 -111 c 0
 -35 -103 -34 -94 -33 -85 c 0
 -23 -24 33 20 93 20 c 0
 147 20 188 -16 188 -68 c 0
 188 -74 188 -79 187 -85 c 0
 179 -134 141 -168 96 -180 c 1
 118 -186 149 -190 190 -190 c 0
 279 -190 348 -137 360 -60 c 2
 395 160 l 2
 396 166 396 172 396 178 c 0
 396 231 354 268 257 295 c 0
 147 326 64 367 64 455 c 0
 64 463 65 471 66 480 c 0
 76 546 149 620 278 620 c 0
 382 620 453 549 485 491 c 1
 484 497 484 504 484 511 c 0
 484 520 484 530 486 540 c 2
 495 600 l 1
84 -35 m 0
 56 -35 31 -57 27 -85 c 0
 27 -88 26 -91 26 -93 c 0
 26 -117 44 -135 69 -135 c 0
 97 -135 123 -113 127 -85 c 0
 127 -82 128 -80 128 -78 c 0
 128 -54 109 -35 84 -35 c 0
EndSplineSet
Layer: 3
SplineSet
505 600 m 1
 595 600 l 1
 562 390 l 1
 472 390 l 1
 465 437 393 530 284 530 c 0
 216 530 169 498 163 460 c 0
 163 458 162 456 162 454 c 0
 162 416 225 397 328 365 c 0
 471 320 528 286 528 197 c 0
 528 183 527 167 524 150 c 2
 492 -50 l 2
 473 -173 360 -260 189 -260 c 0
 31 -260 -55 -192 -55 -106 c 0
 -55 -99 -54 -92 -53 -85 c 0
 -42 -15 22 30 90 30 c 0
 152 30 199 -7 199 -66 c 0
 199 -72 198 -78 197 -85 c 0
 192 -118 174 -144 150 -161 c 1
 164 -164 182 -165 204 -165 c 0
 290 -165 331 -122 342 -50 c 2
 374 150 l 2
 376 162 377 173 377 182 c 0
 377 222 353 244 244 275 c 0
 151 301 40 343 40 432 c 0
 40 438 40 444 41 450 c 0
 55 540 156 620 298 620 c 0
 406 620 468 552 497 495 c 1
 495 503 494 511 494 520 c 0
 494 526 495 533 496 540 c 2
 505 600 l 1
79 -35 m 0
 51 -35 26 -57 22 -85 c 0
 22 -88 21 -91 21 -93 c 0
 21 -117 39 -135 64 -135 c 0
 92 -135 118 -113 122 -85 c 0
 122 -82 123 -80 123 -78 c 0
 123 -54 104 -35 79 -35 c 0
EndSplineSet
Colour: ffff00
EndChar

StartChar: uni0EC0
Encoding: 536 3776 31
Width: 350
VWidth: 0
GlyphClass: 2
Flags: HMW
LayerCount: 4
Layer: 2
SplineSet
299 595 m 1
 276 540 l 1
 268 543 261 550 237 550 c 0
 213 550 204 531 200 503 c 2
 151 198 l 1
 157 199 165 200 172 200 c 0
 226 200 266 164 266 112 c 0
 266 106 266 101 265 95 c 0
 255 34 198 -10 138 -10 c 0
 84 -10 44 26 44 78 c 0
 44 84 44 89 45 95 c 2
 110 503 l 2
 121 570 157 610 227 610 c 0
 266 610 285 600 299 595 c 1
163 145 m 0
 135 145 109 123 105 95 c 0
 105 92 104 89 104 87 c 0
 104 63 122 45 147 45 c 0
 175 45 201 67 205 95 c 0
 205 98 206 101 206 103 c 0
 206 127 188 145 163 145 c 0
EndSplineSet
Layer: 3
SplineSet
160 155 m 0
 132 155 106 133 102 105 c 0
 102 102 101 99 101 97 c 0
 101 73 119 55 144 55 c 0
 172 55 198 77 202 105 c 0
 202 108 203 111 203 113 c 0
 203 137 185 155 160 155 c 0
353 585 m 1
 317 515 l 1
 317 515 297 524 276 524 c 0
 259 524 242 517 236 480 c 2
 198 240 l 2
 196 228 193 220 189 214 c 1
 241 208 279 176 279 124 c 0
 279 118 278 112 277 105 c 0
 266 35 201 -10 133 -10 c 0
 71 -10 25 27 25 86 c 0
 25 92 26 98 27 105 c 2
 86 480 l 2
 98 558 154 610 242 610 c 0
 299 610 333 596 353 585 c 1
EndSplineSet
Colour: ffff00
EndChar

StartChar: uni0EC1
Encoding: 537 3777 32
Width: 650
VWidth: 0
GlyphClass: 2
Flags: HMW
LayerCount: 4
Layer: 2
SplineSet
599 595 m 1
 576 540 l 1
 568 543 561 550 537 550 c 0
 513 550 504 531 500 503 c 2
 451 198 l 1
 457 199 465 200 472 200 c 0
 526 200 566 164 566 112 c 0
 566 106 566 101 565 95 c 0
 555 34 498 -10 438 -10 c 0
 384 -10 344 26 344 78 c 0
 344 84 344 89 345 95 c 2
 410 503 l 2
 421 570 457 610 527 610 c 0
 566 610 585 600 599 595 c 1
463 145 m 0
 435 145 409 123 405 95 c 0
 405 92 404 89 404 87 c 0
 404 63 422 45 447 45 c 0
 475 45 501 67 505 95 c 0
 505 98 506 101 506 103 c 0
 506 127 488 145 463 145 c 0
299 595 m 1
 276 540 l 1
 268 543 261 550 237 550 c 0
 213 550 204 531 200 503 c 2
 151 198 l 1
 157 199 165 200 172 200 c 0
 226 200 266 164 266 112 c 0
 266 106 266 101 265 95 c 0
 255 34 198 -10 138 -10 c 0
 84 -10 44 26 44 78 c 0
 44 84 44 89 45 95 c 2
 110 503 l 2
 121 570 157 610 227 610 c 0
 266 610 285 600 299 595 c 1
163 145 m 0
 135 145 109 123 105 95 c 0
 105 92 104 89 104 87 c 0
 104 63 122 45 147 45 c 0
 175 45 201 67 205 95 c 0
 205 98 206 101 206 103 c 0
 206 127 188 145 163 145 c 0
EndSplineSet
Layer: 3
SplineSet
460 155 m 0
 432 155 406 133 402 105 c 0
 402 102 401 99 401 97 c 0
 401 73 419 55 444 55 c 0
 472 55 498 77 502 105 c 0
 502 108 503 111 503 113 c 0
 503 137 485 155 460 155 c 0
653 585 m 1
 617 515 l 1
 617 515 597 524 576 524 c 0
 559 524 542 517 536 480 c 2
 498 240 l 2
 496 228 493 220 489 214 c 1
 541 208 579 176 579 124 c 0
 579 118 578 112 577 105 c 0
 566 35 501 -10 433 -10 c 0
 371 -10 325 27 325 86 c 0
 325 92 326 98 327 105 c 2
 386 480 l 2
 398 558 454 610 542 610 c 0
 599 610 633 596 653 585 c 1
160 155 m 0
 132 155 106 133 102 105 c 0
 102 102 101 99 101 97 c 0
 101 73 119 55 144 55 c 0
 172 55 198 77 202 105 c 0
 202 108 203 111 203 113 c 0
 203 137 185 155 160 155 c 0
353 585 m 1
 317 515 l 1
 317 515 297 524 276 524 c 0
 259 524 242 517 236 480 c 2
 198 240 l 2
 196 228 193 220 189 214 c 1
 241 208 279 176 279 124 c 0
 279 118 278 112 277 105 c 0
 266 35 201 -10 133 -10 c 0
 71 -10 25 27 25 86 c 0
 25 92 26 98 27 105 c 2
 86 480 l 2
 98 558 154 610 242 610 c 0
 299 610 333 596 353 585 c 1
EndSplineSet
Colour: ffff00
EndChar

StartChar: uni0EC2
Encoding: 538 3778 33
Width: 420
VWidth: 0
GlyphClass: 2
Flags: HMW
LayerCount: 4
Layer: 2
SplineSet
402 960 m 1
 452 960 l 1
 424 780 l 1
 384 780 l 1
 382 798 321 930 207 930 c 0
 160 930 134 909 129 880 c 0
 129 877 128 875 128 873 c 0
 128 839 168 830 221 795 c 0
 272 762 291 729 291 670 c 0
 291 647 288 621 283 590 c 2
 221 198 l 1
 227 199 235 200 242 200 c 0
 296 200 336 164 336 112 c 0
 336 106 336 101 335 95 c 0
 325 34 268 -10 208 -10 c 0
 154 -10 114 26 114 78 c 0
 114 84 114 89 115 95 c 2
 193 590 l 2
 198 620 201 644 201 664 c 0
 201 701 189 725 149 750 c 0
 110 774 57 795 57 859 c 0
 57 866 58 872 59 880 c 0
 68 934 124 990 217 990 c 0
 312 990 365 915 391 865 c 1
 390 872 390 881 391 890 c 2
 402 960 l 1
233 145 m 0
 205 145 179 123 175 95 c 0
 175 92 174 89 174 87 c 0
 174 63 192 45 217 45 c 0
 245 45 271 67 275 95 c 0
 275 98 276 101 276 103 c 0
 276 127 258 145 233 145 c 0
EndSplineSet
Layer: 3
SplineSet
230 155 m 0
 202 155 176 133 172 105 c 0
 172 102 171 99 171 97 c 0
 171 73 189 55 214 55 c 0
 242 55 268 77 272 105 c 0
 272 108 273 111 273 113 c 0
 273 137 255 155 230 155 c 0
417 990 m 1
 497 990 l 1
 464 780 l 1
 394 780 l 1
 394 780 338 900 233 900 c 0
 191 900 159 876 155 850 c 0
 155 847 154 845 154 842 c 0
 154 802 202 787 260 755 c 0
 314 725 329 693 329 650 c 0
 329 632 327 613 323 590 c 2
 268 240 l 2
 266 228 263 220 259 214 c 1
 311 208 349 176 349 124 c 0
 349 118 348 112 347 105 c 0
 336 35 271 -10 203 -10 c 0
 141 -10 95 27 95 86 c 0
 95 92 96 98 97 105 c 2
 173 590 l 2
 174 597 176 604 177 610 c 0
 178 620 180 629 180 637 c 0
 180 664 168 686 122 710 c 0
 77 733 33 768 33 828 c 0
 33 835 34 842 35 850 c 0
 46 918 118 990 237 990 c 0
 319 990 374 940 406 893 c 1
 405 904 405 916 407 930 c 2
 417 990 l 1
EndSplineSet
Colour: ffff00
EndChar

StartChar: uni0EC3
Encoding: 539 3779 34
Width: 420
VWidth: 0
GlyphClass: 2
Flags: HMW
LayerCount: 4
Layer: 2
SplineSet
233 145 m 0
 205 145 179 123 175 95 c 0
 175 92 174 89 174 87 c 0
 174 63 192 45 217 45 c 0
 245 45 271 67 275 95 c 0
 275 98 276 101 276 103 c 0
 276 127 258 145 233 145 c 0
195 790 m 1
 120 760 l 1
 108 778 101 797 101 820 c 0
 101 826 102 833 103 840 c 0
 115 917 195 990 317 990 c 0
 428 990 485 929 485 860 c 0
 485 853 484 847 483 840 c 0
 464 719 303 718 283 590 c 2
 221 198 l 1
 227 199 235 200 242 200 c 0
 296 200 336 164 336 112 c 0
 336 106 336 101 335 95 c 0
 325 34 268 -10 208 -10 c 0
 154 -10 114 26 114 78 c 0
 114 84 114 89 115 95 c 2
 193 590 l 2
 218 747 400 755 413 840 c 0
 414 844 414 848 414 852 c 0
 414 892 382 930 307 930 c 0
 231 930 190 885 183 840 c 0
 183 837 182 835 182 832 c 0
 182 814 190 799 195 790 c 1
EndSplineSet
Layer: 3
SplineSet
230 155 m 0
 202 155 176 133 172 105 c 0
 172 102 171 99 171 97 c 0
 171 73 189 55 214 55 c 0
 242 55 268 77 272 105 c 0
 272 108 273 111 273 113 c 0
 273 137 255 155 230 155 c 0
207 770 m 1
 96 730 l 1
 83 749 69 770 69 804 c 0
 69 810 70 817 71 825 c 0
 83 902 179 990 327 990 c 0
 464 990 532 914 532 842 c 0
 532 836 532 831 531 825 c 0
 512 704 340 697 323 590 c 2
 268 240 l 2
 266 228 263 220 259 214 c 1
 311 208 349 176 349 124 c 0
 349 118 348 112 347 105 c 0
 336 35 271 -10 203 -10 c 0
 141 -10 95 27 95 86 c 0
 95 92 96 98 97 105 c 2
 173 590 l 2
 195 730 398 740 411 825 c 0
 412 828 412 832 412 835 c 0
 412 875 372 900 313 900 c 0
 249 900 198 870 191 825 c 0
 190 822 190 819 190 816 c 0
 190 797 200 779 207 770 c 1
EndSplineSet
Colour: ffff00
EndChar

StartChar: uni0EC4
Encoding: 540 3780 35
Width: 420
VWidth: 0
GlyphClass: 2
Flags: HMW
LayerCount: 4
Layer: 2
SplineSet
114 975 m 1
 126 981 158 990 187 990 c 0
 244 990 263 956 263 915 c 0
 263 907 262 898 261 890 c 2
 250 820 l 2
 249 812 248 805 248 798 c 0
 248 769 262 755 300 755 c 2
 440 755 l 1
 429 690 l 1
 317 690 292 644 282 580 c 2
 221 198 l 1
 227 199 235 200 242 200 c 0
 296 200 336 164 336 112 c 0
 336 106 336 101 335 95 c 0
 325 34 268 -10 208 -10 c 0
 154 -10 114 26 114 78 c 0
 114 84 114 89 115 95 c 2
 192 580 l 2
 200 632 228 668 266 691 c 1
 203 698 175 732 175 779 c 0
 175 786 176 793 177 800 c 2
 188 870 l 2
 190 884 192 895 192 904 c 0
 192 922 185 930 167 930 c 0
 149 930 131 924 121 920 c 1
 114 975 l 1
233 145 m 0
 205 145 179 123 175 95 c 0
 175 92 174 89 174 87 c 0
 174 63 192 45 217 45 c 0
 245 45 271 67 275 95 c 0
 275 98 276 101 276 103 c 0
 276 127 258 145 233 145 c 0
EndSplineSet
Layer: 3
SplineSet
94 975 m 1
 114 985 141 990 162 990 c 0
 230 990 278 950 278 884 c 0
 278 876 277 868 276 860 c 2
 268 810 l 2
 267 805 267 800 267 795 c 0
 267 763 288 750 329 750 c 2
 479 750 l 1
 465 660 l 1
 345 660 327 612 319 560 c 2
 268 240 l 2
 266 228 263 220 259 214 c 1
 311 208 349 176 349 124 c 0
 349 118 348 112 347 105 c 0
 336 35 271 -10 203 -10 c 0
 141 -10 95 27 95 86 c 0
 95 92 96 98 97 105 c 2
 169 560 l 2
 176 605 205 639 245 664 c 1
 190 675 161 710 161 754 c 0
 161 759 161 764 162 770 c 2
 173 840 l 2
 175 850 176 861 176 871 c 0
 176 893 169 910 144 910 c 0
 130 910 119 906 103 900 c 1
 94 975 l 1
230 155 m 0
 202 155 176 133 172 105 c 0
 172 102 171 99 171 97 c 0
 171 73 189 55 214 55 c 0
 242 55 268 77 272 105 c 0
 272 108 273 111 273 113 c 0
 273 137 255 155 230 155 c 0
EndSplineSet
Colour: ffff00
EndChar

StartChar: uni0EDC
Encoding: 558 3804 36
Width: 1160
VWidth: 0
GlyphClass: 3
Flags: HMW
LayerCount: 4
Layer: 2
SplineSet
444 560 m 0
 416 560 390 538 386 510 c 0
 386 507 385 504 385 502 c 0
 385 478 403 460 428 460 c 0
 456 460 482 482 486 510 c 0
 486 513 487 516 487 518 c 0
 487 542 469 560 444 560 c 0
188 555 m 0
 160 555 134 533 130 505 c 0
 130 502 129 499 129 497 c 0
 129 473 147 455 172 455 c 0
 200 455 226 477 230 505 c 0
 230 508 231 511 231 513 c 0
 231 537 213 555 188 555 c 0
693 66 m 1
 673 25 634 -10 578 -10 c 0
 536 -10 509 6 492 15 c 1
 526 70 l 1
 535 65 555 55 574 55 c 0
 601 55 613 83 619 120 c 2
 673 460 l 2
 674 466 674 471 674 476 c 0
 674 507 659 525 633 525 c 0
 585 525 535 436 476 418 c 1
 431 130 l 2
 417 41 333 -10 228 -10 c 0
 132 -10 69 32 69 107 c 0
 69 114 70 122 71 130 c 2
 98 300 l 2
 106 353 147 379 181 406 c 1
 175 405 170 405 164 405 c 0
 110 405 69 437 69 488 c 0
 69 493 69 499 70 505 c 0
 80 566 137 610 197 610 c 0
 261 610 300 570 300 518 c 0
 300 512 300 506 299 500 c 0
 284 403 201 380 188 300 c 2
 161 130 l 2
 161 127 160 124 160 121 c 0
 160 82 201 65 240 65 c 0
 282 65 334 85 341 130 c 2
 386 416 l 1
 355 428 330 456 330 495 c 0
 330 500 330 505 331 510 c 0
 341 571 400 610 452 610 c 0
 499 610 542 578 542 526 c 0
 542 521 542 516 541 511 c 1
 577 552 618 600 675 600 c 0
 721 600 768 569 768 504 c 0
 768 496 767 488 766 480 c 2
 711 130 l 1
 729 94 759 65 815 65 c 0
 900 65 927 107 937 170 c 2
 1005 600 l 1
 1095 600 l 1
 1027 170 l 2
 1009 57 940 -10 833 -10 c 0
 762 -10 719 22 693 66 c 1
EndSplineSet
Layer: 3
SplineSet
452 550 m 0
 424 550 398 528 394 500 c 0
 394 497 393 494 393 492 c 0
 393 468 411 450 436 450 c 0
 464 450 490 472 494 500 c 0
 494 503 495 506 495 508 c 0
 495 532 477 550 452 550 c 0
165 445 m 0
 193 445 219 467 223 495 c 0
 223 498 224 501 224 503 c 0
 224 527 206 545 181 545 c 0
 153 545 127 523 123 495 c 0
 123 492 122 489 122 487 c 0
 122 463 140 445 165 445 c 0
156 385 m 0
 94 385 47 418 47 476 c 0
 47 482 47 489 48 495 c 0
 59 565 124 610 192 610 c 0
 265 610 318 564 318 500 c 0
 318 494 317 487 316 480 c 0
 301 383 238 364 223 270 c 2
 204 150 l 2
 203 147 203 144 203 141 c 0
 203 111 231 100 256 100 c 0
 283 100 318 114 324 150 c 2
 359 370 l 2
 361 384 366 396 370 405 c 1
 345 420 328 446 328 482 c 0
 328 488 328 494 329 500 c 0
 340 570 405 610 462 610 c 0
 514 610 561 576 561 517 c 0
 561 515 561 512 561 510 c 1
 606 549 663 600 725 600 c 0
 783 600 808 567 808 511 c 0
 808 498 806 485 804 470 c 2
 751 134 l 1
 769 114 793 100 826 100 c 0
 877 100 911 128 922 200 c 2
 985 600 l 1
 1135 600 l 1
 1072 200 l 2
 1049 56 973 -10 868 -10 c 0
 796 -10 752 19 725 55 c 1
 700 15 654 -10 593 -10 c 0
 536 -10 502 4 482 15 c 1
 518 85 l 1
 518 85 538 76 559 76 c 0
 576 76 593 83 599 120 c 2
 647 420 l 2
 649 431 649 440 649 448 c 0
 649 470 643 480 626 480 c 0
 595 480 530 419 494 407 c 1
 454 150 l 2
 438 52 343 -10 233 -10 c 0
 132 -10 52 43 52 127 c 0
 52 135 53 142 54 150 c 2
 73 270 l 2
 82 325 122 356 161 385 c 1
 160 385 158 385 156 385 c 0
EndSplineSet
LCarets2: 1 0
Colour: ffff00
EndChar

StartChar: uni0EDD
Encoding: 559 3805 37
Width: 1160
VWidth: 0
GlyphClass: 3
Flags: HMW
LayerCount: 4
Layer: 2
SplineSet
587 45 m 0
 615 45 641 67 645 95 c 0
 645 98 646 101 646 103 c 0
 646 127 628 145 603 145 c 0
 575 145 549 123 545 95 c 0
 545 92 544 89 544 87 c 0
 544 63 562 45 587 45 c 0
578 -10 m 0
 524 -10 484 26 484 78 c 0
 484 84 484 89 485 95 c 0
 495 156 552 200 612 200 c 0
 619 200 625 199 631 198 c 1
 673 460 l 2
 674 466 674 471 674 476 c 0
 674 507 659 525 633 525 c 0
 585 525 535 436 476 418 c 1
 431 130 l 2
 417 41 333 -10 228 -10 c 0
 132 -10 69 32 69 107 c 0
 69 114 70 122 71 130 c 2
 98 300 l 2
 106 353 147 379 181 406 c 1
 175 405 170 405 164 405 c 0
 110 405 69 437 69 488 c 0
 69 493 69 499 70 505 c 0
 80 566 137 610 197 610 c 0
 261 610 300 570 300 518 c 0
 300 512 300 506 299 500 c 0
 284 403 201 380 188 300 c 2
 161 130 l 2
 161 127 160 124 160 121 c 0
 160 82 201 65 240 65 c 0
 282 65 334 85 341 130 c 2
 386 416 l 1
 355 428 330 456 330 495 c 0
 330 500 330 505 331 510 c 0
 341 571 400 610 452 610 c 0
 499 610 542 578 542 526 c 0
 542 521 542 516 541 511 c 1
 577 552 618 600 675 600 c 0
 721 600 768 569 768 504 c 0
 768 496 767 488 766 480 c 2
 710 129 l 1
 729 94 761 65 820 65 c 0
 897 65 928 111 939 180 c 2
 1005 600 l 1
 1095 600 l 1
 1029 180 l 2
 1009 55 925 -10 828 -10 c 0
 762 -10 719 25 694 61 c 1
 673 18 626 -10 578 -10 c 0
444 560 m 0
 416 560 390 538 386 510 c 0
 386 507 385 504 385 502 c 0
 385 478 403 460 428 460 c 0
 456 460 482 482 486 510 c 0
 486 513 487 516 487 518 c 0
 487 542 469 560 444 560 c 0
188 555 m 0
 160 555 134 533 130 505 c 0
 130 502 129 499 129 497 c 0
 129 473 147 455 172 455 c 0
 200 455 226 477 230 505 c 0
 230 508 231 511 231 513 c 0
 231 537 213 555 188 555 c 0
EndSplineSet
Layer: 3
SplineSet
452 550 m 0
 424 550 398 528 394 500 c 0
 394 497 393 494 393 492 c 0
 393 468 411 450 436 450 c 0
 464 450 490 472 494 500 c 0
 494 503 495 506 495 508 c 0
 495 532 477 550 452 550 c 0
165 445 m 0
 193 445 219 467 223 495 c 0
 223 498 224 501 224 503 c 0
 224 527 206 545 181 545 c 0
 153 545 127 523 123 495 c 0
 123 492 122 489 122 487 c 0
 122 463 140 445 165 445 c 0
156 385 m 0
 94 385 47 418 47 476 c 0
 47 482 47 489 48 495 c 0
 59 565 124 610 192 610 c 0
 265 610 318 564 318 500 c 0
 318 494 317 487 316 480 c 0
 301 383 238 364 223 270 c 2
 204 150 l 2
 203 147 203 144 203 141 c 0
 203 111 231 100 256 100 c 0
 283 100 318 114 324 150 c 2
 359 370 l 2
 361 384 366 396 370 405 c 1
 345 420 328 446 328 482 c 0
 328 488 328 494 329 500 c 0
 340 570 405 610 462 610 c 0
 514 610 561 576 561 517 c 0
 561 515 561 512 561 510 c 1
 606 549 663 600 725 600 c 0
 783 600 808 567 808 511 c 0
 808 498 806 485 804 470 c 2
 778 300 l 1
 751 134 l 1
 769 114 793 100 826 100 c 0
 877 100 911 128 922 200 c 2
 985 600 l 1
 1135 600 l 1
 1072 200 l 2
 1049 56 973 -10 868 -10 c 0
 797 -10 754 18 727 54 c 1
 701 14 653 -10 603 -10 c 0
 541 -10 495 27 495 86 c 0
 495 92 496 98 497 105 c 0
 507 167 559 210 618 218 c 1
 617 224 617 231 618 240 c 2
 628 300 l 1
 647 420 l 2
 649 431 649 440 649 448 c 0
 649 470 643 480 626 480 c 0
 595 480 530 419 494 407 c 1
 454 150 l 2
 438 52 343 -10 233 -10 c 0
 132 -10 52 43 52 127 c 0
 52 135 53 142 54 150 c 2
 73 270 l 2
 82 325 122 356 161 385 c 1
 160 385 158 385 156 385 c 0
630 155 m 0
 602 155 576 133 572 105 c 0
 572 102 571 99 571 97 c 0
 571 73 589 55 614 55 c 0
 642 55 668 77 672 105 c 0
 672 108 673 111 673 113 c 0
 673 137 655 155 630 155 c 0
EndSplineSet
LCarets2: 1 0
Colour: ffff00
EndChar

StartChar: uni0EBB
Encoding: 533 3771 38
Width: 0
VWidth: 0
GlyphClass: 4
Flags: HMW
LayerCount: 4
Layer: 2
SplineSet
-392 810 m 0
 -414 810 -435 792 -438 770 c 0
 -438 768 -438 766 -438 764 c 0
 -438 745 -424 730 -404 730 c 0
 -382 730 -361 748 -358 770 c 0
 -358 772 -358 774 -358 776 c 0
 -358 795 -372 810 -392 810 c 0
-315 805 m 1
 -309 795 -306 783 -308 770 c 0
 -316 720 -362 685 -412 685 c 0
 -457 685 -489 714 -489 756 c 0
 -489 761 -489 765 -488 770 c 0
 -478 830 -428 870 -332 870 c 2
 -202 870 l 2
 -128 870 -75 836 -75 750 c 0
 -75 738 -76 724 -78 710 c 1
 -158 710 l 1
 -156 723 -155 735 -155 745 c 0
 -155 785 -172 805 -223 805 c 2
 -315 805 l 1
EndSplineSet
Layer: 3
SplineSet
-424 735 m 0
 -404 735 -385 751 -382 770 c 0
 -382 772 -382 773 -382 775 c 0
 -382 792 -395 805 -413 805 c 0
 -432 805 -449 789 -452 770 c 0
 -452 768 -452 766 -452 764 c 0
 -452 748 -441 735 -424 735 c 0
-432 680 m 0
 -482 680 -519 713 -519 757 c 0
 -519 761 -519 766 -518 770 c 0
 -508 830 -450 880 -361 880 c 2
 -171 880 l 2
 -96 880 -45 838 -45 751 c 0
 -45 738 -46 725 -48 710 c 1
 -158 710 l 1
 -156 723 -155 734 -155 744 c 0
 -155 782 -172 800 -223 800 c 2
 -307 800 l 2
 -313 800 -319 802 -325 805 c 1
 -322 795 -320 783 -322 770 c 0
 -330 720 -376 680 -432 680 c 0
EndSplineSet
Colour: ffff
EndChar

StartChar: uni0EB4
Encoding: 527 3764 40
Width: 0
VWidth: 0
GlyphClass: 4
Flags: HMW
LayerCount: 4
Layer: 2
SplineSet
-337 900 m 2
 -257 900 l 1
 -177 900 l 2
 -106 900 -64 864 -64 804 c 0
 -64 796 -65 788 -66 780 c 0
 -71 751 -102 701 -131 690 c 1
 -211 690 l 1
 -186 708 -151 748 -146 780 c 0
 -145 786 -145 792 -145 797 c 0
 -145 823 -157 840 -207 840 c 2
 -267 840 l 1
 -327 840 l 2
 -387 840 -401 814 -406 780 c 0
 -407 777 -407 773 -407 770 c 0
 -407 740 -388 706 -371 690 c 1
 -451 690 l 1
 -473 700 -487 739 -487 768 c 0
 -487 772 -487 776 -486 780 c 0
 -474 854 -417 900 -337 900 c 2
EndSplineSet
Layer: 3
SplineSet
-365 915 m 2
 -255 915 l 1
 -145 915 l 2
 -74 915 -33 875 -33 814 c 0
 -33 806 -34 798 -35 790 c 0
 -41 751 -82 701 -111 690 c 1
 -211 690 l 1
 -186 708 -151 748 -146 780 c 0
 -145 786 -145 792 -145 797 c 0
 -145 823 -157 840 -207 840 c 2
 -267 840 l 1
 -327 840 l 2
 -387 840 -401 814 -406 780 c 0
 -407 777 -407 773 -407 770 c 0
 -407 740 -388 706 -371 690 c 1
 -471 690 l 1
 -493 700 -516 741 -516 778 c 0
 -516 782 -516 786 -515 790 c 0
 -503 864 -445 915 -365 915 c 2
EndSplineSet
EndChar

StartChar: uni0EB5
Encoding: 528 3765 41
Width: 0
VWidth: 0
GlyphClass: 4
Flags: HMW
LayerCount: 4
Layer: 2
SplineSet
-367 900 m 2
 -297 900 l 1
 -227 900 l 2
 -158 900 -124 865 -124 808 c 0
 -124 799 -124 790 -126 780 c 0
 -128 768 -135 756 -144 745 c 1
 18 745 l 1
 9 690 l 1
 -301 690 l 1
 -292 745 l 1
 -208 745 l 1
 -199 756 -193 768 -191 780 c 0
 -190 785 -190 789 -190 793 c 0
 -190 820 -205 840 -257 840 c 2
 -307 840 l 1
 -357 840 l 2
 -417 840 -431 814 -436 780 c 0
 -437 777 -437 773 -437 770 c 0
 -437 740 -418 706 -401 690 c 1
 -481 690 l 1
 -503 700 -517 739 -517 768 c 0
 -517 772 -517 776 -516 780 c 0
 -504 854 -447 900 -367 900 c 2
EndSplineSet
Layer: 3
SplineSet
39 690 m 1
 -271 690 l 1
 -260 760 l 1
 -183 760 l 1
 -180 767 -177 773 -176 780 c 0
 -175 786 -175 792 -175 797 c 0
 -175 823 -187 840 -237 840 c 2
 -297 840 l 1
 -357 840 l 2
 -417 840 -431 814 -436 780 c 0
 -437 777 -437 773 -437 770 c 0
 -437 740 -418 706 -401 690 c 1
 -501 690 l 1
 -523 700 -546 741 -546 778 c 0
 -546 782 -546 786 -545 790 c 0
 -533 864 -475 915 -395 915 c 2
 -285 915 l 1
 -205 915 l 2
 -134 915 -94 867 -94 805 c 0
 -94 797 -95 789 -96 780 c 0
 -97 774 -100 767 -103 760 c 1
 50 760 l 1
 39 690 l 1
EndSplineSet
EndChar

StartChar: uni0EB6
Encoding: 529 3766 42
Width: 0
VWidth: 0
GlyphClass: 4
Flags: HMW
LayerCount: 4
Layer: 2
SplineSet
-337 900 m 2
 -257 900 l 1
 -177 900 l 2
 -106 900 -64 864 -64 804 c 0
 -64 796 -65 788 -66 780 c 0
 -71 751 -102 701 -131 690 c 1
 -201 690 l 1
 -176 708 -141 748 -136 780 c 0
 -135 786 -135 792 -135 797 c 0
 -135 823 -147 840 -197 840 c 2
 -267 840 l 1
 -337 840 l 2
 -397 840 -411 814 -416 780 c 0
 -417 777 -417 773 -417 770 c 0
 -417 740 -398 706 -381 690 c 1
 -451 690 l 1
 -473 700 -487 739 -487 768 c 0
 -487 772 -487 776 -486 780 c 0
 -474 854 -417 900 -337 900 c 2
-233 740 m 0
 -237 712 -263 690 -291 690 c 0
 -316 690 -334 708 -334 732 c 0
 -334 734 -333 737 -333 740 c 0
 -329 768 -303 790 -275 790 c 0
 -250 790 -232 772 -232 748 c 0
 -232 746 -233 743 -233 740 c 0
EndSplineSet
Layer: 3
SplineSet
-223 740 m 0
 -228 706 -258 680 -292 680 c 0
 -323 680 -344 702 -344 731 c 0
 -344 734 -343 737 -343 740 c 0
 -338 774 -307 800 -273 800 c 0
 -242 800 -222 779 -222 750 c 0
 -222 747 -223 743 -223 740 c 0
-365 915 m 2
 -255 915 l 1
 -145 915 l 2
 -74 915 -33 875 -33 814 c 0
 -33 806 -34 798 -35 790 c 0
 -41 751 -82 701 -111 690 c 1
 -211 690 l 1
 -186 708 -151 748 -146 780 c 0
 -145 786 -145 792 -145 797 c 0
 -145 823 -157 840 -207 840 c 2
 -267 840 l 1
 -327 840 l 2
 -387 840 -401 814 -406 780 c 0
 -407 777 -407 773 -407 770 c 0
 -407 740 -388 706 -371 690 c 1
 -471 690 l 1
 -493 700 -516 741 -516 778 c 0
 -516 782 -516 786 -515 790 c 0
 -503 864 -445 915 -365 915 c 2
EndSplineSet
EndChar

StartChar: uni0EB7
Encoding: 530 3767 43
Width: 0
VWidth: 0
GlyphClass: 4
Flags: HMW
LayerCount: 4
Layer: 2
SplineSet
-367 900 m 2
 -297 900 l 1
 -227 900 l 2
 -158 900 -124 865 -124 808 c 0
 -124 799 -124 790 -126 780 c 0
 -128 768 -135 756 -144 745 c 1
 18 745 l 1
 9 690 l 1
 -251 690 l 1
 -226 708 -186 748 -181 780 c 0
 -180 785 -180 789 -180 793 c 0
 -180 820 -195 840 -247 840 c 2
 -307 840 l 1
 -367 840 l 2
 -427 840 -441 814 -446 780 c 0
 -447 777 -447 773 -447 770 c 0
 -447 740 -428 706 -411 690 c 1
 -481 690 l 1
 -503 700 -517 739 -517 768 c 0
 -517 772 -517 776 -516 780 c 0
 -504 854 -447 900 -367 900 c 2
-273 740 m 0
 -277 712 -303 690 -331 690 c 0
 -356 690 -374 708 -374 732 c 0
 -374 734 -373 737 -373 740 c 0
 -369 768 -343 790 -315 790 c 0
 -290 790 -272 772 -272 748 c 0
 -272 746 -273 743 -273 740 c 0
EndSplineSet
Layer: 3
SplineSet
-253 740 m 0
 -258 706 -288 680 -322 680 c 0
 -353 680 -374 702 -374 731 c 0
 -374 734 -373 737 -373 740 c 0
 -368 774 -337 800 -303 800 c 0
 -272 800 -252 779 -252 750 c 0
 -252 747 -253 743 -253 740 c 0
-297 840 m 1
 -357 840 l 2
 -417 840 -431 814 -436 780 c 0
 -437 777 -437 773 -437 770 c 0
 -437 740 -418 706 -401 690 c 1
 -501 690 l 1
 -523 700 -546 741 -546 778 c 0
 -546 782 -546 786 -545 790 c 0
 -533 864 -475 915 -395 915 c 2
 -285 915 l 1
 -205 915 l 2
 -134 915 -94 867 -94 805 c 0
 -94 797 -95 789 -96 780 c 0
 -97 774 -100 767 -103 760 c 1
 50 760 l 1
 39 690 l 1
 -241 690 l 1
 -216 708 -181 748 -176 780 c 0
 -175 786 -175 792 -175 797 c 0
 -175 823 -187 840 -237 840 c 2
 -297 840 l 1
EndSplineSet
EndChar

StartChar: uni0EC8
Encoding: 542 3784 44
Width: 0
VWidth: 0
GlyphClass: 4
Flags: HMW
LayerCount: 4
Layer: 2
SplineSet
-248 1150 m 1
 -168 1150 l 1
 -196 970 l 1
 -276 970 l 1
 -248 1150 l 1
EndSplineSet
Layer: 3
SplineSet
-258 1180 m 1
 -148 1180 l 1
 -183 960 l 1
 -293 960 l 1
 -258 1180 l 1
EndSplineSet
EndChar

StartChar: uni0ECB
Encoding: 545 3787 45
Width: 0
VWidth: 0
GlyphClass: 4
Flags: HMW
LayerCount: 4
Layer: 2
SplineSet
-248 1150 m 1
 -168 1150 l 1
 -177 1090 l 1
 -87 1090 l 1
 -97 1030 l 1
 -187 1030 l 1
 -196 970 l 1
 -276 970 l 1
 -267 1030 l 1
 -357 1030 l 1
 -347 1090 l 1
 -257 1090 l 1
 -248 1150 l 1
EndSplineSet
Layer: 3
SplineSet
-249 1180 m 1
 -149 1180 l 1
 -161 1105 l 1
 -55 1105 l 1
 -66 1035 l 1
 -172 1035 l 1
 -184 960 l 1
 -284 960 l 1
 -272 1035 l 1
 -376 1035 l 1
 -365 1105 l 1
 -261 1105 l 1
 -249 1180 l 1
EndSplineSet
EndChar

StartChar: uni0EC9
Encoding: 543 3785 46
Width: 0
VWidth: 0
GlyphClass: 4
Flags: HMW
LayerCount: 4
Layer: 2
SplineSet
-290 1135 m 0
 -307 1135 -322 1122 -325 1105 c 0
 -325 1103 -325 1102 -325 1100 c 0
 -325 1086 -315 1075 -300 1075 c 0
 -283 1075 -268 1088 -265 1105 c 0
 -265 1107 -265 1108 -265 1110 c 0
 -265 1124 -275 1135 -290 1135 c 0
-396 970 m 1
 -389 1015 l 1
 -379 1015 l 2
 -357 1015 -328 1025 -311 1040 c 1
 -343 1043 -366 1063 -366 1094 c 0
 -366 1098 -366 1101 -365 1105 c 0
 -359 1144 -324 1170 -285 1170 c 0
 -250 1170 -224 1149 -224 1116 c 0
 -224 1113 -224 1109 -225 1105 c 0
 -230 1071 -249 1044 -267 1025 c 1
 -188 1025 l 2
 -134 1025 -98 1055 -86 1130 c 1
 -11 1130 l 1
 -29 1015 -103 970 -196 970 c 2
 -396 970 l 1
EndSplineSet
Layer: 3
SplineSet
-300 1135 m 0
 -317 1135 -332 1122 -335 1105 c 0
 -335 1103 -335 1102 -335 1100 c 0
 -335 1086 -325 1075 -310 1075 c 0
 -293 1075 -278 1088 -275 1105 c 0
 -275 1107 -275 1108 -275 1110 c 0
 -275 1124 -285 1135 -300 1135 c 0
-418 960 m 1
 -409 1015 l 1
 -369 1015 l 2
 -351 1015 -332 1023 -318 1035 c 1
 -357 1036 -386 1060 -386 1095 c 0
 -386 1098 -386 1101 -385 1105 c 0
 -379 1146 -337 1180 -293 1180 c 0
 -253 1180 -224 1151 -224 1115 c 0
 -224 1112 -224 1109 -225 1105 c 0
 -231 1069 -251 1042 -269 1025 c 1
 -198 1025 l 2
 -144 1025 -106 1065 -94 1140 c 1
 11 1140 l 1
 -7 1025 -85 960 -178 960 c 2
 -418 960 l 1
EndSplineSet
EndChar

StartChar: uni0ECD
Encoding: 547 3789 47
Width: 0
VWidth: 0
GlyphClass: 4
Flags: HMW
LayerCount: 4
Layer: 2
SplineSet
-247 900 m 0
 -184 900 -144 861 -144 808 c 0
 -144 802 -144 796 -145 790 c 0
 -155 729 -212 680 -282 680 c 0
 -345 680 -386 720 -386 773 c 0
 -386 779 -386 784 -385 790 c 0
 -375 851 -317 900 -247 900 c 0
-256 845 m 0
 -286 845 -315 820 -320 790 c 0
 -320 787 -321 784 -321 781 c 0
 -321 755 -301 735 -274 735 c 0
 -244 735 -215 760 -210 790 c 0
 -210 793 -209 796 -209 799 c 0
 -209 825 -229 845 -256 845 c 0
EndSplineSet
Layer: 3
SplineSet
-251 910 m 0
 -180 910 -133 867 -133 809 c 0
 -133 803 -134 796 -135 790 c 0
 -146 723 -210 670 -289 670 c 0
 -360 670 -407 713 -407 771 c 0
 -407 777 -406 784 -405 790 c 0
 -394 857 -330 910 -251 910 c 0
-262 840 m 0
 -290 840 -316 818 -320 790 c 0
 -320 787 -321 784 -321 782 c 0
 -321 758 -303 740 -278 740 c 0
 -250 740 -224 762 -220 790 c 0
 -220 793 -219 796 -219 798 c 0
 -219 822 -237 840 -262 840 c 0
EndSplineSet
EndChar

StartChar: uni0EB3
Encoding: 526 3763 48
Width: 540
VWidth: 0
GlyphClass: 2
Flags: HMW
LayerCount: 4
Layer: 2
SplineSet
-247 900 m 0
 -184 900 -144 861 -144 808 c 0
 -144 802 -144 796 -145 790 c 0
 -155 729 -212 680 -282 680 c 0
 -345 680 -386 720 -386 773 c 0
 -386 779 -386 784 -385 790 c 0
 -375 851 -317 900 -247 900 c 0
-256 845 m 0
 -286 845 -315 820 -320 790 c 0
 -320 787 -321 784 -321 781 c 0
 -321 755 -301 735 -274 735 c 0
 -244 735 -215 760 -210 790 c 0
 -210 793 -209 796 -209 799 c 0
 -209 825 -229 845 -256 845 c 0
175 475 m 0
 147 475 121 453 117 425 c 0
 117 422 116 419 116 417 c 0
 116 393 134 375 159 375 c 0
 187 375 213 397 217 425 c 0
 217 428 218 431 218 433 c 0
 218 457 200 475 175 475 c 0
390 0 m 1
 300 0 l 1
 365 410 l 2
 367 423 368 436 368 447 c 0
 368 513 331 540 271 540 c 0
 240 540 212 534 191 525 c 1
 242 521 278 490 278 441 c 0
 278 436 278 431 277 425 c 0
 267 364 211 320 151 320 c 0
 97 320 56 356 56 408 c 0
 56 414 56 419 57 425 c 0
 75 536 172 610 282 610 c 0
 380 610 458 564 458 453 c 0
 458 440 457 425 455 410 c 2
 390 0 l 1
EndSplineSet
Layer: 3
SplineSet
-251 910 m 0
 -180 910 -133 867 -133 809 c 0
 -133 803 -134 796 -135 790 c 0
 -146 723 -210 670 -289 670 c 0
 -360 670 -407 713 -407 771 c 0
 -407 777 -406 784 -405 790 c 0
 -394 857 -330 910 -251 910 c 0
-262 840 m 0
 -290 840 -316 818 -320 790 c 0
 -320 787 -321 784 -321 782 c 0
 -321 758 -303 740 -278 740 c 0
 -250 740 -224 762 -220 790 c 0
 -220 793 -219 796 -219 798 c 0
 -219 822 -237 840 -262 840 c 0
165 445 m 0
 137 445 112 423 108 395 c 0
 108 392 107 389 107 387 c 0
 107 363 125 345 150 345 c 0
 178 345 204 367 208 395 c 0
 208 398 209 400 209 402 c 0
 209 426 190 445 165 445 c 0
260 0 m 9
 325 410 l 2
 327 420 327 429 327 438 c 0
 327 501 287 520 237 520 c 0
 212 520 190 512 172 500 c 1
 232 497 284 467 284 411 c 0
 284 406 284 401 283 395 c 0
 272 325 207 280 139 280 c 0
 77 280 31 317 31 376 c 0
 31 382 32 388 33 395 c 0
 52 517 157 610 287 610 c 0
 391 610 476 548 476 437 c 0
 476 425 475 413 473 400 c 2
 410 0 l 17
 260 0 l 9
EndSplineSet
Colour: ffff00
EndChar

StartChar: uni0ECA
Encoding: 544 3786 49
Width: 0
VWidth: 0
GlyphClass: 4
Flags: HMW
LayerCount: 4
Layer: 2
SplineSet
-317 1000 m 0
 -303 1000 -290 1011 -288 1025 c 0
 -286 1039 -295 1050 -309 1050 c 0
 -323 1050 -336 1039 -338 1025 c 0
 -340 1011 -331 1000 -317 1000 c 0
-290 1170 m 1
 -232 1125 l 1
 -160 1170 l 1
 -144 1170 -85 1147 -85 1080 c 0
 -85 1074 -86 1067 -87 1060 c 0
 -89 1049 -94 1039 -99 1030 c 1
 -64 1040 -57 1064 -51 1100 c 1
 14 1100 l 1
 2 1024 -25 980 -165 980 c 2
 -205 980 l 1
 -180 998 -152 1028 -147 1060 c 0
 -146 1065 -146 1069 -146 1073 c 0
 -146 1097 -157 1115 -168 1120 c 1
 -239 1080 l 1
 -298 1120 l 1
 -313 1115 -334 1099 -341 1066 c 1
 -331 1074 -318 1080 -304 1080 c 0
 -274 1080 -252 1062 -252 1034 c 0
 -252 1031 -253 1028 -253 1025 c 0
 -258 992 -288 970 -321 970 c 0
 -379 970 -403 1012 -403 1048 c 0
 -403 1052 -403 1056 -402 1060 c 0
 -389 1142 -308 1170 -290 1170 c 1
EndSplineSet
Layer: 3
SplineSet
-329 1046 m 0
 -343 1046 -356 1034 -358 1020 c 0
 -360 1007 -351 996 -337 996 c 0
 -322 996 -308 1008 -308 1024 c 0
 -308 1036 -316 1046 -329 1046 c 0
-324 1080 m 0
 -291 1080 -267 1059 -267 1029 c 0
 -267 1026 -268 1023 -268 1020 c 0
 -273 987 -307 960 -343 960 c 0
 -396 960 -423 999 -423 1043 c 0
 -423 1049 -423 1054 -422 1060 c 0
 -409 1143 -317 1176 -299 1176 c 1
 -241 1130 l 1
 -169 1176 l 1
 -153 1176 -86 1148 -86 1078 c 0
 -86 1072 -86 1066 -87 1060 c 0
 -88 1055 -90 1049 -92 1043 c 1
 -68 1056 -59 1080 -54 1110 c 1
 36 1110 l 1
 24 1034 -26 970 -166 970 c 2
 -206 970 l 1
 -185 990 -163 1024 -158 1056 c 0
 -157 1062 -156 1068 -156 1073 c 0
 -156 1093 -163 1107 -173 1116 c 1
 -251 1070 l 1
 -313 1116 l 1
 -325 1109 -340 1095 -348 1076 c 1
 -341 1079 -333 1080 -324 1080 c 0
EndSplineSet
EndChar

StartChar: uni0EAF
Encoding: 522 3759 50
Width: 590
VWidth: 0
GlyphClass: 2
Flags: HMW
LayerCount: 4
Layer: 2
SplineSet
168 555 m 0
 140 555 114 533 110 505 c 0
 110 502 109 499 109 497 c 0
 109 473 127 455 152 455 c 0
 180 455 206 477 210 505 c 0
 210 508 211 511 211 513 c 0
 211 537 193 555 168 555 c 0
143 400 m 0
 89 400 49 436 49 488 c 0
 49 494 49 499 50 505 c 0
 60 566 117 610 177 610 c 0
 231 610 272 574 272 522 c 0
 272 518 271 515 271 511 c 1
 318 554 367 600 425 600 c 0
 473 600 518 567 518 504 c 0
 518 496 517 489 516 480 c 2
 457 110 l 2
 446 38 404 -10 328 -10 c 0
 286 -10 259 6 242 15 c 1
 276 70 l 1
 285 65 305 55 324 55 c 0
 351 55 363 83 369 120 c 2
 423 460 l 2
 424 467 425 474 425 480 c 0
 425 509 413 525 383 525 c 0
 322 525 259 400 143 400 c 0
EndSplineSet
Layer: 3
SplineSet
161 545 m 0
 133 545 107 523 103 495 c 0
 103 492 102 489 102 487 c 0
 102 463 120 445 145 445 c 0
 173 445 199 467 203 495 c 0
 203 498 204 501 204 503 c 0
 204 527 186 545 161 545 c 0
455 600 m 0
 513 600 538 567 538 511 c 0
 538 498 536 485 534 470 c 2
 479 120 l 2
 467 42 411 -10 323 -10 c 0
 266 -10 232 4 212 15 c 1
 248 85 l 1
 248 85 268 76 289 76 c 0
 306 76 323 83 329 120 c 2
 377 420 l 2
 379 431 379 440 379 448 c 0
 379 470 373 480 356 480 c 0
 322 480 245 380 135 380 c 0
 73 380 26 417 26 476 c 0
 26 482 27 488 28 495 c 0
 39 565 104 610 172 610 c 0
 233 610 279 573 279 514 c 0
 279 512 279 510 279 507 c 1
 330 548 395 600 455 600 c 0
EndSplineSet
Colour: ffff00
EndChar

StartChar: uni0ECC
Encoding: 546 3788 51
Width: 0
VWidth: 0
GlyphClass: 4
Flags: HMW
LayerCount: 4
Layer: 2
SplineSet
-279 825 m 0
 -301 825 -323 807 -326 785 c 0
 -326 783 -326 781 -326 779 c 0
 -326 760 -312 745 -292 745 c 0
 -270 745 -249 763 -246 785 c 0
 -246 787 -246 789 -246 791 c 0
 -246 810 -259 825 -279 825 c 0
-376 785 m 0
 -366 845 -312 885 -240 885 c 2
 -180 885 l 2
 -116 885 -95 918 -85 980 c 1
 -5 980 l 1
 -23 865 -95 820 -180 820 c 2
 -202 820 l 1
 -196 810 -194 798 -196 785 c 0
 -204 735 -249 700 -299 700 c 0
 -344 700 -377 729 -377 771 c 0
 -377 776 -377 780 -376 785 c 0
EndSplineSet
Layer: 3
SplineSet
-310 756 m 0
 -291 756 -273 771 -270 790 c 0
 -270 792 -270 794 -270 796 c 0
 -270 813 -282 826 -299 826 c 0
 -318 826 -337 810 -340 790 c 0
 -340 788 -340 787 -340 785 c 0
 -340 768 -327 756 -310 756 c 0
-209 810 m 1
 -209 804 -209 798 -210 790 c 0
 -218 741 -264 700 -319 700 c 0
 -369 700 -406 734 -406 777 c 0
 -406 781 -406 786 -405 790 c 0
 -395 850 -341 890 -269 890 c 2
 -199 890 l 2
 -135 890 -113 928 -103 990 c 1
 7 990 l 1
 -11 876 -75 810 -182 810 c 2
 -209 810 l 1
EndSplineSet
EndChar

StartChar: uni0EBC
Encoding: 534 3772 52
Width: 0
VWidth: 0
GlyphClass: 4
Flags: HMW
AnchorPoint: "LaoBelow2.mark" -60 0 mark 0
LayerCount: 4
Layer: 2
SplineSet
-538 -115 m 0
 -560 -115 -582 -133 -585 -155 c 0
 -585 -157 -585 -159 -585 -161 c 0
 -585 -180 -571 -195 -551 -195 c 0
 -529 -195 -508 -177 -505 -155 c 0
 -505 -153 -505 -151 -505 -149 c 0
 -505 -130 -518 -115 -538 -115 c 0
-520 -60 m 0
 -437 -60 -423 -170 -347 -170 c 0
 -293 -170 -272 -139 -262 -75 c 1
 -182 -75 l 1
 -198 -173 -255 -240 -358 -240 c 0
 -416 -240 -441 -209 -461 -176 c 1
 -476 -215 -516 -240 -558 -240 c 0
 -603 -240 -636 -211 -636 -169 c 0
 -636 -164 -636 -160 -635 -155 c 0
 -628 -110 -590 -60 -520 -60 c 0
EndSplineSet
Layer: 3
SplineSet
-561 -195 m 0
 -542 -195 -523 -179 -520 -160 c 0
 -520 -158 -520 -157 -520 -155 c 0
 -520 -138 -533 -125 -550 -125 c 0
 -569 -125 -587 -141 -590 -160 c 0
 -590 -162 -590 -163 -590 -165 c 0
 -590 -182 -578 -195 -561 -195 c 0
-530 -60 m 0
 -437 -60 -434 -165 -356 -165 c 0
 -312 -165 -282 -139 -272 -75 c 1
 -162 -75 l 1
 -178 -173 -258 -250 -370 -250 c 0
 -433 -250 -460 -225 -478 -197 c 1
 -496 -228 -529 -250 -570 -250 c 0
 -620 -250 -656 -217 -656 -173 c 0
 -656 -169 -656 -164 -655 -160 c 0
 -647 -110 -605 -60 -530 -60 c 0
EndSplineSet
EndChar

StartChar: uni0EC6
Encoding: 541 3782 53
Width: 690
VWidth: 0
GlyphClass: 2
Flags: HMW
LayerCount: 4
Layer: 2
SplineSet
259 405 m 0
 231 405 205 383 201 355 c 0
 201 352 200 349 200 347 c 0
 200 323 218 305 243 305 c 0
 271 305 297 327 301 355 c 0
 301 358 302 361 302 363 c 0
 302 387 284 405 259 405 c 0
267 455 m 0
 321 455 362 423 362 372 c 0
 362 367 362 361 361 355 c 0
 351 294 295 250 235 250 c 0
 140 250 94 314 94 389 c 0
 94 399 95 410 97 420 c 0
 119 560 230 620 258 620 c 1
 356 540 l 1
 478 620 l 1
 503 620 580 572 580 461 c 0
 580 448 579 435 577 420 c 2
 499 -70 l 2
 477 -206 358 -260 234 -260 c 0
 121 -260 26 -215 26 -105 c 0
 26 -94 27 -82 29 -70 c 1
 119 -70 l 1
 118 -76 118 -82 118 -88 c 0
 118 -144 161 -185 246 -185 c 0
 340 -185 399 -135 409 -70 c 2
 487 420 l 2
 489 432 490 443 490 454 c 0
 490 492 478 522 460 535 c 1
 344 465 l 1
 246 541 l 1
 217 523 181 474 172 420 c 0
 171 411 170 403 170 396 c 1
 191 430 227 455 267 455 c 0
EndSplineSet
Layer: 3
SplineSet
223 365 m 0
 195 365 169 343 165 315 c 0
 165 312 164 309 164 307 c 0
 164 283 182 265 207 265 c 0
 235 265 261 287 265 315 c 0
 265 318 266 321 266 323 c 0
 266 347 248 365 223 365 c 0
233 430 m 0
 295 430 342 393 342 334 c 0
 342 328 341 322 340 315 c 0
 329 245 265 200 197 200 c 0
 120 200 59 260 59 353 c 0
 59 365 60 377 62 390 c 0
 89 560 230 620 273 620 c 1
 356 540 l 1
 463 620 l 1
 502 620 606 572 606 437 c 0
 606 423 605 407 602 390 c 2
 532 -50 l 2
 514 -165 421 -260 229 -260 c 0
 56 -260 -2 -164 -2 -85 c 0
 -2 -76 -1 -68 0 -60 c 1
 140 -60 l 1
 139 -65 139 -71 139 -76 c 0
 139 -126 183 -150 246 -150 c 0
 315 -150 372 -113 382 -50 c 2
 452 390 l 2
 456 413 458 433 458 451 c 0
 458 475 454 495 441 510 c 1
 340 440 l 1
 251 510 l 1
 219 490 200 460 189 422 c 1
 203 427 217 430 233 430 c 0
EndSplineSet
Colour: ffff00
EndChar

StartChar: uni0EB8
Encoding: 531 3768 54
Width: 0
VWidth: 0
GlyphClass: 4
Flags: HMW
AnchorPoint: "LaoBelow2.mark" -120 0 mark 0
LayerCount: 4
Layer: 2
SplineSet
-407 -105 m 0
 -429 -105 -450 -123 -453 -145 c 0
 -453 -147 -453 -149 -453 -151 c 0
 -453 -170 -439 -185 -419 -185 c 0
 -397 -185 -376 -167 -373 -145 c 0
 -373 -143 -373 -141 -373 -139 c 0
 -373 -120 -387 -105 -407 -105 c 0
-447 -330 m 1
 -438 -270 l 2
 -435 -251 -425 -236 -414 -224 c 1
 -417 -225 -422 -225 -426 -225 c 0
 -471 -225 -504 -201 -504 -159 c 0
 -504 -155 -504 -150 -503 -145 c 0
 -495 -95 -450 -60 -400 -60 c 0
 -348 -60 -322 -98 -322 -134 c 0
 -322 -138 -322 -141 -323 -145 c 0
 -331 -195 -350 -222 -358 -270 c 2
 -367 -330 l 1
 -447 -330 l 1
EndSplineSet
Layer: 3
SplineSet
-472 -330 m 1
 -463 -270 l 2
 -460 -254 -451 -241 -439 -229 c 1
 -477 -225 -504 -196 -504 -158 c 0
 -504 -154 -504 -150 -503 -145 c 0
 -495 -95 -450 -60 -400 -60 c 0
 -349 -60 -312 -89 -312 -132 c 0
 -312 -136 -312 -141 -313 -145 c 0
 -321 -195 -345 -222 -353 -270 c 2
 -362 -330 l 1
 -472 -330 l 1
-407 -110 m 0
 -426 -110 -445 -126 -448 -145 c 0
 -448 -147 -448 -148 -448 -150 c 0
 -448 -167 -436 -180 -419 -180 c 0
 -400 -180 -381 -164 -378 -145 c 0
 -378 -143 -378 -142 -378 -140 c 0
 -378 -123 -390 -110 -407 -110 c 0
EndSplineSet
EndChar

StartChar: uni0EB9
Encoding: 532 3769 55
Width: 0
VWidth: 0
GlyphClass: 4
Flags: HMW
AnchorPoint: "LaoBelow2.mark" -60 0 mark 0
LayerCount: 4
Layer: 2
SplineSet
-497 -105 m 0
 -519 -105 -540 -123 -543 -145 c 0
 -543 -147 -543 -149 -543 -151 c 0
 -543 -170 -529 -185 -509 -185 c 0
 -487 -185 -466 -167 -463 -145 c 0
 -463 -143 -463 -141 -463 -139 c 0
 -463 -120 -477 -105 -497 -105 c 0
-508 -224 m 1
 -510 -225 -514 -225 -516 -225 c 0
 -561 -225 -594 -201 -594 -159 c 0
 -594 -155 -594 -150 -593 -145 c 0
 -585 -95 -540 -60 -490 -60 c 0
 -438 -60 -412 -98 -412 -134 c 0
 -412 -138 -412 -141 -413 -145 c 0
 -422 -202 -448 -210 -453 -240 c 0
 -453 -243 -454 -246 -454 -249 c 0
 -454 -263 -447 -270 -428 -270 c 2
 -373 -270 l 2
 -351 -270 -341 -257 -338 -240 c 2
 -311 -70 l 1
 -231 -70 l 1
 -263 -270 l 2
 -270 -313 -305 -330 -352 -330 c 2
 -467 -330 l 2
 -513 -330 -539 -315 -539 -282 c 0
 -539 -278 -539 -274 -538 -270 c 0
 -535 -250 -522 -236 -508 -224 c 1
EndSplineSet
Layer: 3
SplineSet
-507 -110 m 0
 -526 -110 -545 -126 -548 -145 c 0
 -548 -147 -548 -148 -548 -150 c 0
 -548 -167 -536 -180 -519 -180 c 0
 -500 -180 -481 -164 -478 -145 c 0
 -478 -143 -478 -142 -478 -140 c 0
 -478 -123 -490 -110 -507 -110 c 0
-550 -227 m 1
 -583 -219 -604 -194 -604 -160 c 0
 -604 -155 -604 -150 -603 -145 c 0
 -595 -95 -550 -60 -500 -60 c 0
 -447 -60 -416 -94 -416 -130 c 0
 -416 -133 -417 -137 -417 -140 c 0
 -424 -184 -451 -195 -456 -225 c 0
 -456 -227 -457 -229 -457 -231 c 0
 -457 -247 -446 -255 -425 -255 c 2
 -390 -255 l 2
 -368 -255 -359 -242 -356 -225 c 2
 -331 -70 l 1
 -221 -70 l 1
 -253 -270 l 2
 -260 -316 -305 -330 -357 -330 c 2
 -507 -330 l 2
 -553 -330 -579 -315 -579 -282 c 0
 -579 -278 -579 -274 -578 -270 c 0
 -575 -254 -564 -240 -550 -227 c 1
EndSplineSet
EndChar

StartChar: uni0E01
Encoding: 408 3585 56
Width: 700
VWidth: 0
GlyphClass: 2
Flags: HMW
LayerCount: 4
Layer: 2
SplineSet
78 -10 m 1
 89 55 l 1
 110 55 121 69 126 100 c 2
 174 402 l 1
 168 401 160 400 153 400 c 0
 99 400 59 436 59 488 c 0
 59 494 59 499 60 505 c 0
 70 566 127 610 187 610 c 0
 236 610 273 581 280 537 c 1
 321 573 389 610 467 610 c 0
 560 610 621 560 621 463 c 0
 621 449 619 435 617 420 c 2
 550 0 l 1
 460 0 l 1
 527 420 l 2
 529 433 530 446 530 457 c 0
 530 505 508 535 435 535 c 0
 361 535 311 504 274 466 c 1
 216 100 l 2
 206 40 175 -10 78 -10 c 1
178 555 m 0
 150 555 124 533 120 505 c 0
 120 502 119 499 119 497 c 0
 119 473 137 455 162 455 c 0
 190 455 216 477 220 505 c 0
 220 508 221 511 221 513 c 0
 221 537 203 555 178 555 c 0
EndSplineSet
Layer: 3
SplineSet
165 445 m 0
 193 445 219 467 223 495 c 0
 223 498 224 501 224 503 c 0
 224 527 206 545 181 545 c 0
 153 545 127 523 123 495 c 0
 123 492 122 489 122 487 c 0
 122 463 140 445 165 445 c 0
38 -10 m 1
 53 80 l 1
 79 80 84 92 92 140 c 2
 127 360 l 2
 128 369 131 376 134 382 c 1
 83 389 46 424 46 476 c 0
 46 482 47 488 48 495 c 0
 59 565 124 610 192 610 c 0
 251 610 297 576 300 521 c 1
 345 567 410 610 497 610 c 0
 586 610 638 563 638 461 c 0
 638 443 637 422 633 400 c 2
 570 0 l 1
 420 0 l 1
 483 400 l 2
 485 412 486 422 486 431 c 0
 486 480 462 500 419 500 c 0
 369 500 324 468 288 430 c 1
 242 140 l 2
 225 35 182 -10 38 -10 c 1
EndSplineSet
Colour: ffff00
EndChar

StartChar: uni0E16
Encoding: 429 3606 57
Width: 700
VWidth: 0
GlyphClass: 2
Flags: HMW
LayerCount: 4
Layer: 2
SplineSet
178 555 m 0
 150 555 124 533 120 505 c 0
 120 502 119 499 119 497 c 0
 119 473 137 455 162 455 c 0
 190 455 216 477 220 505 c 0
 220 508 221 511 221 513 c 0
 221 537 203 555 178 555 c 0
213 145 m 0
 185 145 159 123 155 95 c 0
 155 92 154 89 154 87 c 0
 154 63 172 45 197 45 c 0
 225 45 251 67 255 95 c 0
 255 98 256 101 256 103 c 0
 256 127 238 145 213 145 c 0
222 200 m 0
 276 200 316 164 316 112 c 0
 316 106 316 101 315 95 c 0
 305 34 248 -10 188 -10 c 0
 134 -10 94 26 94 78 c 0
 94 84 94 89 95 95 c 2
 143 400 l 1
 94 405 59 439 59 488 c 0
 59 493 59 499 60 505 c 0
 70 566 127 610 187 610 c 0
 237 610 275 580 281 534 c 1
 326 572 395 610 467 610 c 0
 560 610 621 560 621 463 c 0
 621 449 619 435 617 420 c 2
 550 0 l 1
 460 0 l 1
 527 420 l 2
 529 433 530 446 530 457 c 0
 530 505 508 535 435 535 c 0
 343 535 278 478 238 427 c 1
 201 198 l 1
 207 199 215 200 222 200 c 0
EndSplineSet
Layer: 3
SplineSet
181 545 m 0
 153 545 127 523 123 495 c 0
 123 492 122 489 122 487 c 0
 122 463 140 445 165 445 c 0
 193 445 219 467 223 495 c 0
 223 498 224 501 224 503 c 0
 224 527 206 545 181 545 c 0
200 155 m 0
 172 155 146 133 142 105 c 0
 142 102 141 99 141 97 c 0
 141 73 159 55 184 55 c 0
 212 55 238 77 242 105 c 0
 242 108 243 111 243 113 c 0
 243 137 225 155 200 155 c 0
116 386 m 1
 75 398 46 431 46 476 c 0
 46 482 47 488 48 495 c 0
 59 565 124 610 192 610 c 0
 251 610 297 576 300 521 c 1
 345 567 410 610 497 610 c 0
 586 610 638 563 638 461 c 0
 638 443 637 422 633 400 c 2
 570 0 l 1
 420 0 l 1
 483 400 l 2
 485 412 486 422 486 431 c 0
 486 480 462 500 419 500 c 0
 357 500 304 452 264 402 c 1
 248 300 l 1
 238 240 l 2
 237 231 235 224 232 218 c 1
 283 211 319 176 319 124 c 0
 319 118 318 112 317 105 c 0
 306 35 241 -10 173 -10 c 0
 111 -10 65 27 65 86 c 0
 65 92 66 98 67 105 c 2
 98 300 l 1
 107 360 l 2
 109 372 112 380 116 386 c 1
EndSplineSet
Colour: ffff00
EndChar

StartChar: uni0E20
Encoding: 439 3616 58
Width: 700
VWidth: 0
GlyphClass: 2
Flags: HMW
LayerCount: 4
Layer: 2
SplineSet
178 555 m 0
 150 555 124 533 120 505 c 0
 120 502 119 499 119 497 c 0
 119 473 137 455 162 455 c 0
 190 455 216 477 220 505 c 0
 220 508 221 511 221 513 c 0
 221 537 203 555 178 555 c 0
113 145 m 0
 85 145 59 123 55 95 c 0
 55 92 54 89 54 87 c 0
 54 63 72 45 97 45 c 0
 125 45 151 67 155 95 c 0
 155 98 156 101 156 103 c 0
 156 127 138 145 113 145 c 0
281 531 m 1
 322 569 391 610 467 610 c 0
 560 610 621 560 621 463 c 0
 621 449 619 435 617 420 c 2
 550 0 l 1
 460 0 l 1
 527 420 l 2
 529 433 530 446 530 457 c 0
 530 505 508 535 435 535 c 0
 361 535 310 499 273 458 c 1
 215 95 l 2
 205 34 148 -10 88 -10 c 0
 34 -10 -6 26 -6 78 c 0
 -6 84 -6 89 -5 95 c 0
 5 156 62 200 122 200 c 0
 129 200 135 199 141 198 c 1
 174 402 l 1
 168 401 160 400 153 400 c 0
 99 400 59 436 59 488 c 0
 59 494 59 499 60 505 c 0
 70 566 127 610 187 610 c 0
 238 610 276 578 281 531 c 1
EndSplineSet
Layer: 3
SplineSet
181 545 m 0
 153 545 127 523 123 495 c 0
 123 492 122 489 122 487 c 0
 122 463 140 445 165 445 c 0
 193 445 219 467 223 495 c 0
 223 498 224 501 224 503 c 0
 224 527 206 545 181 545 c 0
120 155 m 0
 92 155 66 133 62 105 c 0
 62 102 61 99 61 97 c 0
 61 73 79 55 104 55 c 0
 132 55 158 77 162 105 c 0
 162 108 163 111 163 113 c 0
 163 137 145 155 120 155 c 0
134 382 m 1
 83 389 46 424 46 476 c 0
 46 482 47 488 48 495 c 0
 59 565 124 610 192 610 c 0
 251 610 297 576 300 521 c 1
 345 567 410 610 497 610 c 0
 586 610 638 563 638 461 c 0
 638 443 637 422 633 400 c 2
 570 0 l 1
 420 0 l 1
 483 400 l 2
 485 412 486 422 486 431 c 0
 486 480 462 500 419 500 c 0
 369 500 324 468 288 430 c 1
 268 300 l 1
 237 105 l 2
 226 35 161 -10 93 -10 c 0
 31 -10 -15 27 -15 86 c 0
 -15 92 -14 98 -13 105 c 0
 -3 167 49 210 108 218 c 1
 107 224 107 231 108 240 c 2
 118 300 l 1
 127 360 l 2
 128 369 131 376 134 382 c 1
EndSplineSet
Colour: ff00ff
EndChar

StartChar: uni0E23
Encoding: 442 3619 59
Width: 680
VWidth: 0
GlyphClass: 2
Flags: HMW
LayerCount: 4
Layer: 2
SplineSet
373 620 m 0
 501 620 599 557 599 450 c 0
 599 440 599 430 597 420 c 1
 512 420 l 1
 513 426 513 431 513 437 c 0
 513 500 457 550 362 550 c 0
 259 550 183 498 175 445 c 0
 175 443 174 440 174 438 c 0
 174 388 267 373 350 350 c 0
 444 324 568 296 568 189 c 0
 568 181 567 174 566 165 c 0
 544 24 403 -20 272 -20 c 0
 176 -20 43 21 43 132 c 0
 43 139 44 147 45 155 c 0
 55 216 111 260 171 260 c 0
 225 260 266 224 266 172 c 0
 266 166 266 161 265 155 c 0
 258 108 222 74 179 61 c 1
 205 55 239 50 283 50 c 0
 384 50 464 88 475 155 c 0
 476 160 476 165 476 169 c 0
 476 233 396 251 309 275 c 0
 233 296 87 313 87 416 c 0
 87 422 88 428 89 435 c 0
 106 544 233 620 373 620 c 0
162 205 m 0
 134 205 109 183 105 155 c 0
 105 152 104 149 104 147 c 0
 104 123 122 105 147 105 c 0
 175 105 201 127 205 155 c 0
 205 158 206 160 206 162 c 0
 206 186 187 205 162 205 c 0
EndSplineSet
Layer: 3
SplineSet
147 205 m 0
 119 205 94 183 90 155 c 0
 90 152 89 149 89 147 c 0
 89 123 107 105 132 105 c 0
 160 105 186 127 190 155 c 0
 190 158 191 160 191 162 c 0
 191 186 172 205 147 205 c 0
158 270 m 0
 220 270 267 233 267 174 c 0
 267 168 266 162 265 155 c 0
 260 124 245 99 223 82 c 1
 238 78 261 75 292 75 c 0
 388 75 447 107 457 170 c 0
 458 173 458 176 458 179 c 0
 458 216 417 236 312 265 c 0
 194 298 66 314 66 410 c 0
 66 416 67 422 68 429 c 0
 85 538 223 620 378 620 c 0
 554 620 635 526 635 428 c 0
 635 419 634 409 633 400 c 1
 493 400 l 1
 494 406 494 412 494 418 c 0
 494 478 442 510 361 510 c 0
 275 510 220 469 215 440 c 0
 215 438 215 437 215 435 c 0
 215 397 289 387 359 370 c 0
 517 332 601 300 601 208 c 0
 601 199 601 190 599 180 c 0
 580 57 448 -20 277 -20 c 0
 101 -20 14 61 14 139 c 0
 14 144 14 150 15 155 c 0
 26 225 90 270 158 270 c 0
EndSplineSet
Colour: ff00ff
EndChar

StartChar: uni0E40
Encoding: 467 3648 60
Width: 350
VWidth: 0
GlyphClass: 2
Flags: HMW
LayerCount: 4
Layer: 2
SplineSet
299 595 m 1
 276 540 l 1
 268 543 261 550 237 550 c 0
 213 550 204 531 200 503 c 2
 151 198 l 1
 157 199 165 200 172 200 c 0
 226 200 266 164 266 112 c 0
 266 106 266 101 265 95 c 0
 255 34 198 -10 138 -10 c 0
 84 -10 44 26 44 78 c 0
 44 84 44 89 45 95 c 2
 110 503 l 2
 121 570 157 610 227 610 c 0
 266 610 285 600 299 595 c 1
163 145 m 0
 135 145 109 123 105 95 c 0
 105 92 104 89 104 87 c 0
 104 63 122 45 147 45 c 0
 175 45 201 67 205 95 c 0
 205 98 206 101 206 103 c 0
 206 127 188 145 163 145 c 0
EndSplineSet
Layer: 3
SplineSet
160 155 m 0
 132 155 106 133 102 105 c 0
 102 102 101 99 101 97 c 0
 101 73 119 55 144 55 c 0
 172 55 198 77 202 105 c 0
 202 108 203 111 203 113 c 0
 203 137 185 155 160 155 c 0
353 585 m 1
 317 515 l 1
 317 515 297 524 276 524 c 0
 259 524 242 517 236 480 c 2
 198 240 l 2
 196 228 193 220 189 214 c 1
 241 208 279 176 279 124 c 0
 279 118 278 112 277 105 c 0
 266 35 201 -10 133 -10 c 0
 71 -10 25 27 25 86 c 0
 25 92 26 98 27 105 c 2
 86 480 l 2
 98 558 154 610 242 610 c 0
 299 610 333 596 353 585 c 1
EndSplineSet
Colour: ff00ff
EndChar

StartChar: uni0E41
Encoding: 468 3649 61
Width: 650
VWidth: 0
GlyphClass: 2
Flags: HMW
LayerCount: 4
Layer: 2
SplineSet
299 595 m 1
 276 540 l 1
 268 543 261 550 237 550 c 0
 213 550 204 531 200 503 c 2
 151 198 l 1
 157 199 165 200 172 200 c 0
 226 200 266 164 266 112 c 0
 266 106 266 101 265 95 c 0
 255 34 198 -10 138 -10 c 0
 84 -10 44 26 44 78 c 0
 44 84 44 89 45 95 c 2
 110 503 l 2
 121 570 157 610 227 610 c 0
 266 610 285 600 299 595 c 1
163 145 m 0
 135 145 109 123 105 95 c 0
 105 92 104 89 104 87 c 0
 104 63 122 45 147 45 c 0
 175 45 201 67 205 95 c 0
 205 98 206 101 206 103 c 0
 206 127 188 145 163 145 c 0
599 595 m 1
 576 540 l 1
 568 543 561 550 537 550 c 0
 513 550 504 531 500 503 c 2
 451 198 l 1
 457 199 465 200 472 200 c 0
 526 200 566 164 566 112 c 0
 566 106 566 101 565 95 c 0
 555 34 498 -10 438 -10 c 0
 384 -10 344 26 344 78 c 0
 344 84 344 89 345 95 c 2
 410 503 l 2
 421 570 457 610 527 610 c 0
 566 610 585 600 599 595 c 1
463 145 m 0
 435 145 409 123 405 95 c 0
 405 92 404 89 404 87 c 0
 404 63 422 45 447 45 c 0
 475 45 501 67 505 95 c 0
 505 98 506 101 506 103 c 0
 506 127 488 145 463 145 c 0
EndSplineSet
Layer: 3
SplineSet
160 155 m 0
 132 155 106 133 102 105 c 0
 102 102 101 99 101 97 c 0
 101 73 119 55 144 55 c 0
 172 55 198 77 202 105 c 0
 202 108 203 111 203 113 c 0
 203 137 185 155 160 155 c 0
353 585 m 1
 317 515 l 1
 317 515 297 524 276 524 c 0
 259 524 242 517 236 480 c 2
 198 240 l 2
 196 228 193 220 189 214 c 1
 241 208 279 176 279 124 c 0
 279 118 278 112 277 105 c 0
 266 35 201 -10 133 -10 c 0
 71 -10 25 27 25 86 c 0
 25 92 26 98 27 105 c 2
 86 480 l 2
 98 558 154 610 242 610 c 0
 299 610 333 596 353 585 c 1
460 155 m 0
 432 155 406 133 402 105 c 0
 402 102 401 99 401 97 c 0
 401 73 419 55 444 55 c 0
 472 55 498 77 502 105 c 0
 502 108 503 111 503 113 c 0
 503 137 485 155 460 155 c 0
653 585 m 1
 617 515 l 1
 617 515 597 524 576 524 c 0
 559 524 542 517 536 480 c 2
 498 240 l 2
 496 228 493 220 489 214 c 1
 541 208 579 176 579 124 c 0
 579 118 578 112 577 105 c 0
 566 35 501 -10 433 -10 c 0
 371 -10 325 27 325 86 c 0
 325 92 326 98 327 105 c 2
 386 480 l 2
 398 558 454 610 542 610 c 0
 599 610 633 596 653 585 c 1
EndSplineSet
Colour: ff00ff
EndChar

StartChar: uni0E42
Encoding: 469 3650 62
Width: 420
VWidth: 0
GlyphClass: 2
Flags: HMW
LayerCount: 4
Layer: 2
SplineSet
402 960 m 1
 452 960 l 1
 424 780 l 1
 384 780 l 1
 382 798 321 930 207 930 c 0
 160 930 134 909 129 880 c 0
 129 877 128 875 128 873 c 0
 128 839 168 830 221 795 c 0
 272 762 291 729 291 670 c 0
 291 647 288 621 283 590 c 2
 221 198 l 1
 227 199 235 200 242 200 c 0
 296 200 336 164 336 112 c 0
 336 106 336 101 335 95 c 0
 325 34 268 -10 208 -10 c 0
 154 -10 114 26 114 78 c 0
 114 84 114 89 115 95 c 2
 193 590 l 2
 198 620 201 644 201 664 c 0
 201 701 189 725 149 750 c 0
 110 774 57 795 57 859 c 0
 57 866 58 872 59 880 c 0
 68 934 124 990 217 990 c 0
 312 990 365 915 391 865 c 1
 390 872 390 881 391 890 c 2
 402 960 l 1
233 145 m 0
 205 145 179 123 175 95 c 0
 175 92 174 89 174 87 c 0
 174 63 192 45 217 45 c 0
 245 45 271 67 275 95 c 0
 275 98 276 101 276 103 c 0
 276 127 258 145 233 145 c 0
EndSplineSet
Layer: 3
SplineSet
230 155 m 0
 202 155 176 133 172 105 c 0
 172 102 171 99 171 97 c 0
 171 73 189 55 214 55 c 0
 242 55 268 77 272 105 c 0
 272 108 273 111 273 113 c 0
 273 137 255 155 230 155 c 0
417 990 m 1
 497 990 l 1
 464 780 l 1
 394 780 l 1
 394 780 338 900 233 900 c 0
 191 900 159 876 155 850 c 0
 155 847 154 845 154 842 c 0
 154 802 202 787 260 755 c 0
 314 725 329 693 329 650 c 0
 329 632 327 613 323 590 c 2
 268 240 l 2
 266 228 263 220 259 214 c 1
 311 208 349 176 349 124 c 0
 349 118 348 112 347 105 c 0
 336 35 271 -10 203 -10 c 0
 141 -10 95 27 95 86 c 0
 95 92 96 98 97 105 c 2
 173 590 l 2
 174 597 176 604 177 610 c 0
 178 620 180 629 180 637 c 0
 180 664 168 686 122 710 c 0
 77 733 33 768 33 828 c 0
 33 835 34 842 35 850 c 0
 46 918 118 990 237 990 c 0
 319 990 374 940 406 893 c 1
 405 904 405 916 407 930 c 2
 417 990 l 1
EndSplineSet
Colour: ff00ff
EndChar

StartChar: uni0E43
Encoding: 470 3651 63
Width: 420
VWidth: 0
GlyphClass: 2
Flags: HMW
LayerCount: 4
Layer: 2
SplineSet
233 145 m 0
 205 145 179 123 175 95 c 0
 175 92 174 89 174 87 c 0
 174 63 192 45 217 45 c 0
 245 45 271 67 275 95 c 0
 275 98 276 101 276 103 c 0
 276 127 258 145 233 145 c 0
195 790 m 1
 120 760 l 1
 108 778 101 797 101 820 c 0
 101 826 102 833 103 840 c 0
 115 917 195 990 317 990 c 0
 428 990 485 929 485 860 c 0
 485 853 484 847 483 840 c 0
 464 719 303 718 283 590 c 2
 221 198 l 1
 227 199 235 200 242 200 c 0
 296 200 336 164 336 112 c 0
 336 106 336 101 335 95 c 0
 325 34 268 -10 208 -10 c 0
 154 -10 114 26 114 78 c 0
 114 84 114 89 115 95 c 2
 193 590 l 2
 218 747 400 755 413 840 c 0
 414 844 414 848 414 852 c 0
 414 892 382 930 307 930 c 0
 231 930 190 885 183 840 c 0
 183 837 182 835 182 832 c 0
 182 814 190 799 195 790 c 1
EndSplineSet
Layer: 3
SplineSet
230 155 m 0
 202 155 176 133 172 105 c 0
 172 102 171 99 171 97 c 0
 171 73 189 55 214 55 c 0
 242 55 268 77 272 105 c 0
 272 108 273 111 273 113 c 0
 273 137 255 155 230 155 c 0
207 770 m 1
 96 730 l 1
 83 749 69 770 69 804 c 0
 69 810 70 817 71 825 c 0
 83 902 179 990 327 990 c 0
 464 990 532 914 532 842 c 0
 532 836 532 831 531 825 c 0
 512 704 340 697 323 590 c 2
 268 240 l 2
 266 228 263 220 259 214 c 1
 311 208 349 176 349 124 c 0
 349 118 348 112 347 105 c 0
 336 35 271 -10 203 -10 c 0
 141 -10 95 27 95 86 c 0
 95 92 96 98 97 105 c 2
 173 590 l 2
 195 730 398 740 411 825 c 0
 412 828 412 832 412 835 c 0
 412 875 372 900 313 900 c 0
 249 900 198 870 191 825 c 0
 190 822 190 819 190 816 c 0
 190 797 200 779 207 770 c 1
EndSplineSet
Colour: ff00ff
EndChar

StartChar: uni0E44
Encoding: 471 3652 64
Width: 420
VWidth: 0
GlyphClass: 2
Flags: HMW
LayerCount: 4
Layer: 2
SplineSet
114 975 m 1
 126 981 158 990 187 990 c 0
 244 990 263 956 263 915 c 0
 263 907 262 898 261 890 c 2
 250 820 l 2
 249 812 248 805 248 798 c 0
 248 769 262 755 300 755 c 2
 440 755 l 1
 429 690 l 1
 317 690 292 644 282 580 c 2
 221 198 l 1
 227 199 235 200 242 200 c 0
 296 200 336 164 336 112 c 0
 336 106 336 101 335 95 c 0
 325 34 268 -10 208 -10 c 0
 154 -10 114 26 114 78 c 0
 114 84 114 89 115 95 c 2
 192 580 l 2
 200 632 228 668 266 691 c 1
 203 698 175 732 175 779 c 0
 175 786 176 793 177 800 c 2
 188 870 l 2
 190 884 192 895 192 904 c 0
 192 922 185 930 167 930 c 0
 149 930 131 924 121 920 c 1
 114 975 l 1
233 145 m 0
 205 145 179 123 175 95 c 0
 175 92 174 89 174 87 c 0
 174 63 192 45 217 45 c 0
 245 45 271 67 275 95 c 0
 275 98 276 101 276 103 c 0
 276 127 258 145 233 145 c 0
EndSplineSet
Layer: 3
SplineSet
94 975 m 1
 114 985 141 990 162 990 c 0
 230 990 278 950 278 884 c 0
 278 876 277 868 276 860 c 2
 268 810 l 2
 267 805 267 800 267 795 c 0
 267 763 288 750 329 750 c 2
 479 750 l 1
 465 660 l 1
 345 660 327 612 319 560 c 2
 268 240 l 2
 266 228 263 220 259 214 c 1
 311 208 349 176 349 124 c 0
 349 118 348 112 347 105 c 0
 336 35 271 -10 203 -10 c 0
 141 -10 95 27 95 86 c 0
 95 92 96 98 97 105 c 2
 169 560 l 2
 176 605 205 639 245 664 c 1
 190 675 161 710 161 754 c 0
 161 759 161 764 162 770 c 2
 173 840 l 2
 175 850 176 861 176 871 c 0
 176 893 169 910 144 910 c 0
 130 910 119 906 103 900 c 1
 94 975 l 1
230 155 m 0
 202 155 176 133 172 105 c 0
 172 102 171 99 171 97 c 0
 171 73 189 55 214 55 c 0
 242 55 268 77 272 105 c 0
 272 108 273 111 273 113 c 0
 273 137 255 155 230 155 c 0
EndSplineSet
Colour: ff00ff
EndChar

StartChar: uni0E24
Encoding: 443 3620 65
Width: 710
VWidth: 0
GlyphClass: 2
Flags: HMW
AnchorPoint: "ThaiBelow2.mark" 540 0 basechar 0
LayerCount: 4
Layer: 2
SplineSet
178 555 m 0
 150 555 124 533 120 505 c 0
 120 502 119 499 119 497 c 0
 119 473 137 455 162 455 c 0
 190 455 216 477 220 505 c 0
 220 508 221 511 221 513 c 0
 221 537 203 555 178 555 c 0
213 145 m 0
 185 145 159 123 155 95 c 0
 155 92 154 89 154 87 c 0
 154 63 172 45 197 45 c 0
 225 45 251 67 255 95 c 0
 255 98 256 101 256 103 c 0
 256 127 238 145 213 145 c 0
222 200 m 0
 276 200 316 164 316 112 c 0
 316 106 316 101 315 95 c 0
 305 34 248 -10 188 -10 c 0
 134 -10 94 26 94 78 c 0
 94 84 94 89 95 95 c 2
 143 400 l 1
 94 405 59 439 59 488 c 0
 59 493 59 499 60 505 c 0
 70 566 127 610 187 610 c 0
 237 610 275 580 281 534 c 1
 326 572 395 610 467 610 c 0
 560 610 621 560 621 463 c 0
 621 449 619 435 617 420 c 2
 512 -240 l 1
 422 -240 l 1
 527 420 l 2
 529 433 530 446 530 457 c 0
 530 505 508 535 435 535 c 0
 343 535 278 478 238 427 c 1
 201 198 l 1
 207 199 215 200 222 200 c 0
EndSplineSet
Layer: 3
SplineSet
181 545 m 0
 153 545 127 523 123 495 c 0
 123 492 122 489 122 487 c 0
 122 463 140 445 165 445 c 0
 193 445 219 467 223 495 c 0
 223 498 224 501 224 503 c 0
 224 527 206 545 181 545 c 0
200 155 m 0
 172 155 146 133 142 105 c 0
 142 102 141 99 141 97 c 0
 141 73 159 55 184 55 c 0
 212 55 238 77 242 105 c 0
 242 108 243 111 243 113 c 0
 243 137 225 155 200 155 c 0
116 386 m 1
 75 398 46 431 46 476 c 0
 46 482 47 488 48 495 c 0
 59 565 124 610 192 610 c 0
 251 610 297 576 300 521 c 1
 345 567 410 610 497 610 c 0
 586 610 638 563 638 461 c 0
 638 443 637 422 633 400 c 2
 532 -240 l 1
 382 -240 l 1
 483 400 l 2
 485 412 486 422 486 431 c 0
 486 480 462 500 419 500 c 0
 357 500 304 452 264 402 c 1
 248 300 l 1
 238 240 l 2
 237 231 235 224 232 218 c 1
 283 211 319 176 319 124 c 0
 319 118 318 112 317 105 c 0
 306 35 241 -10 173 -10 c 0
 111 -10 65 27 65 86 c 0
 65 92 66 98 67 105 c 2
 98 300 l 1
 107 360 l 2
 109 372 112 380 116 386 c 1
EndSplineSet
Colour: ff00ff
EndChar

StartChar: uni0E1A
Encoding: 433 3610 66
Width: 710
VWidth: 0
GlyphClass: 2
Flags: HMW
LayerCount: 4
Layer: 2
SplineSet
178 555 m 0
 150 555 124 533 120 505 c 0
 120 502 119 499 119 497 c 0
 119 473 137 455 162 455 c 0
 190 455 216 477 220 505 c 0
 220 508 221 511 221 513 c 0
 221 537 203 555 178 555 c 0
88 300 m 2
 96 353 137 379 171 406 c 1
 165 405 160 405 154 405 c 0
 100 405 59 437 59 488 c 0
 59 493 59 499 60 505 c 0
 70 566 127 610 187 610 c 0
 251 610 290 570 290 518 c 0
 290 512 290 506 289 500 c 0
 274 403 191 380 178 300 c 2
 157 170 l 2
 156 165 156 161 156 156 c 0
 156 98 212 55 309 55 c 0
 414 55 487 105 497 170 c 2
 565 600 l 1
 655 600 l 1
 587 170 l 2
 565 34 432 -20 297 -20 c 0
 173 -20 64 25 64 138 c 0
 64 148 65 159 67 170 c 2
 88 300 l 2
EndSplineSet
Layer: 3
SplineSet
165 445 m 0
 193 445 219 467 223 495 c 0
 223 498 224 501 224 503 c 0
 224 527 206 545 181 545 c 0
 153 545 127 523 123 495 c 0
 123 492 122 489 122 487 c 0
 122 463 140 445 165 445 c 0
156 385 m 0
 94 385 47 418 47 476 c 0
 47 482 47 489 48 495 c 0
 59 565 124 610 192 610 c 0
 265 610 318 564 318 500 c 0
 318 494 317 487 316 480 c 0
 301 383 238 364 223 270 c 2
 210 190 l 2
 209 183 208 176 208 170 c 0
 208 114 252 90 324 90 c 0
 404 90 459 119 470 190 c 2
 535 600 l 1
 685 600 l 1
 620 190 l 2
 600 65 511 -20 307 -20 c 0
 125 -20 57 55 57 153 c 0
 57 165 58 177 60 190 c 2
 73 270 l 2
 82 325 122 356 161 385 c 1
 160 385 158 385 156 385 c 0
EndSplineSet
Colour: ff00ff
EndChar

StartChar: uni0E1B
Encoding: 434 3611 67
Width: 720
VWidth: 0
GlyphClass: 2
Flags: HMW
LayerCount: 4
Layer: 2
SplineSet
178 555 m 0
 150 555 124 533 120 505 c 0
 120 502 119 499 119 497 c 0
 119 473 137 455 162 455 c 0
 190 455 216 477 220 505 c 0
 220 508 221 511 221 513 c 0
 221 537 203 555 178 555 c 0
88 300 m 2
 96 353 137 379 171 406 c 1
 165 405 160 405 154 405 c 0
 100 405 59 437 59 488 c 0
 59 493 59 499 60 505 c 0
 70 566 127 610 187 610 c 0
 251 610 290 570 290 518 c 0
 290 512 290 506 289 500 c 0
 274 403 191 380 178 300 c 2
 157 170 l 2
 156 165 156 161 156 156 c 0
 156 98 212 55 309 55 c 0
 414 55 487 105 497 170 c 2
 603 840 l 1
 693 840 l 1
 587 170 l 2
 565 34 432 -20 297 -20 c 0
 173 -20 64 25 64 138 c 0
 64 148 65 159 67 170 c 2
 88 300 l 2
EndSplineSet
Layer: 3
SplineSet
165 445 m 0
 193 445 219 467 223 495 c 0
 223 498 224 501 224 503 c 0
 224 527 206 545 181 545 c 0
 153 545 127 523 123 495 c 0
 123 492 122 489 122 487 c 0
 122 463 140 445 165 445 c 0
156 385 m 0
 94 385 47 418 47 476 c 0
 47 482 47 489 48 495 c 0
 59 565 124 610 192 610 c 0
 265 610 318 564 318 500 c 0
 318 494 317 487 316 480 c 0
 301 383 238 364 223 270 c 2
 210 190 l 2
 209 183 208 176 208 170 c 0
 208 114 252 90 324 90 c 0
 404 90 459 119 470 190 c 2
 573 840 l 1
 723 840 l 1
 620 190 l 2
 600 65 511 -20 307 -20 c 0
 125 -20 57 55 57 153 c 0
 57 165 58 177 60 190 c 2
 73 270 l 2
 82 325 122 356 161 385 c 1
 160 385 158 385 156 385 c 0
EndSplineSet
Colour: ff00ff
EndChar

StartChar: uni0E1C
Encoding: 435 3612 68
Width: 800
VWidth: 0
GlyphClass: 2
Flags: HMW
LayerCount: 4
Layer: 2
SplineSet
268 555 m 0
 240 555 214 533 210 505 c 0
 210 502 209 499 209 497 c 0
 209 473 227 455 252 455 c 0
 280 455 306 477 310 505 c 0
 310 508 311 511 311 513 c 0
 311 537 293 555 268 555 c 0
277 610 m 0
 331 610 371 574 371 522 c 0
 371 516 371 511 370 505 c 0
 360 444 304 405 244 405 c 0
 220 405 201 413 188 427 c 1
 144 150 l 2
 143 144 143 139 143 134 c 0
 143 94 169 65 215 65 c 0
 267 65 306 98 314 150 c 2
 338 300 l 1
 428 300 l 1
 404 150 l 2
 403 144 403 139 403 133 c 0
 403 91 429 65 475 65 c 0
 527 65 566 102 574 150 c 2
 613 400 l 2
 614 407 619 416 625 425 c 1
 610 416 591 410 570 410 c 0
 516 410 479 441 479 491 c 0
 479 497 480 504 481 510 c 0
 491 571 542 610 602 610 c 0
 626 610 644 602 657 591 c 1
 656 598 656 606 657 615 c 2
 665 660 l 1
 745 660 l 1
 664 150 l 2
 648 47 570 -10 463 -10 c 0
 399 -10 363 22 345 61 c 1
 315 22 267 -10 203 -10 c 0
 108 -10 51 35 51 118 c 0
 51 128 52 139 54 150 c 2
 101 450 l 2
 113 527 169 610 277 610 c 0
599 560 m 0
 571 560 545 538 541 510 c 0
 541 507 540 504 540 502 c 0
 540 478 558 460 583 460 c 0
 611 460 637 482 641 510 c 0
 641 513 642 516 642 518 c 0
 642 542 624 560 599 560 c 0
EndSplineSet
Layer: 3
SplineSet
655 660 m 1
 775 660 l 1
 694 150 l 2
 678 49 592 -10 478 -10 c 0
 421 -10 372 14 344 54 c 1
 304 14 245 -10 188 -10 c 0
 85 -10 22 38 22 121 c 0
 22 130 22 140 24 150 c 2
 71 450 l 2
 83 527 139 610 247 610 c 0
 309 610 355 573 355 514 c 0
 355 508 354 502 353 495 c 0
 342 425 279 385 211 385 c 0
 209 385 207 385 204 385 c 1
 206 375 207 363 205 350 c 2
 174 150 l 2
 174 147 173 145 173 142 c 0
 173 113 202 100 226 100 c 0
 252 100 288 115 294 150 c 2
 322 330 l 1
 452 330 l 1
 424 150 l 2
 424 147 423 145 423 142 c 0
 423 113 452 100 476 100 c 0
 502 100 538 115 544 150 c 2
 575 350 l 2
 577 363 583 374 588 383 c 1
 579 381 569 380 560 380 c 0
 498 380 451 417 451 476 c 0
 451 482 452 488 453 495 c 0
 464 565 529 610 597 610 c 0
 617 610 634 605 649 596 c 1
 647 604 647 612 648 620 c 2
 655 660 l 1
586 545 m 0
 558 545 532 523 528 495 c 0
 528 492 527 489 527 487 c 0
 527 463 545 445 570 445 c 0
 598 445 624 467 628 495 c 0
 628 498 629 501 629 503 c 0
 629 527 611 545 586 545 c 0
220 445 m 0
 248 445 274 467 278 495 c 0
 278 498 279 501 279 503 c 0
 279 527 261 545 236 545 c 0
 208 545 182 523 178 495 c 0
 178 492 177 489 177 487 c 0
 177 463 195 445 220 445 c 0
EndSplineSet
Colour: ff00ff
EndChar

StartChar: uni0E1D
Encoding: 436 3613 69
Width: 800
VWidth: 0
GlyphClass: 2
Flags: HMW
LayerCount: 4
Layer: 2
SplineSet
268 555 m 0
 240 555 214 533 210 505 c 0
 210 502 209 499 209 497 c 0
 209 473 227 455 252 455 c 0
 280 455 306 477 310 505 c 0
 310 508 311 511 311 513 c 0
 311 537 293 555 268 555 c 0
277 610 m 0
 331 610 371 574 371 522 c 0
 371 516 371 511 370 505 c 0
 360 444 304 405 244 405 c 0
 220 405 201 413 188 427 c 1
 144 150 l 2
 143 144 143 139 143 134 c 0
 143 94 169 65 215 65 c 0
 267 65 306 98 314 150 c 2
 338 300 l 1
 428 300 l 1
 404 150 l 2
 403 144 403 139 403 133 c 0
 403 91 429 65 475 65 c 0
 527 65 566 102 574 150 c 2
 683 840 l 1
 773 840 l 1
 664 150 l 2
 648 47 570 -10 463 -10 c 0
 399 -10 363 22 345 61 c 1
 315 22 267 -10 203 -10 c 0
 108 -10 51 35 51 118 c 0
 51 128 52 139 54 150 c 2
 101 450 l 2
 113 527 169 610 277 610 c 0
EndSplineSet
Layer: 3
SplineSet
220 445 m 0
 248 445 274 467 278 495 c 0
 278 498 279 501 279 503 c 0
 279 527 261 545 236 545 c 0
 208 545 182 523 178 495 c 0
 178 492 177 489 177 487 c 0
 177 463 195 445 220 445 c 0
204 385 m 1
 206 375 207 363 205 350 c 2
 174 150 l 2
 174 147 173 145 173 142 c 0
 173 113 202 100 226 100 c 0
 252 100 288 115 294 150 c 2
 322 330 l 1
 452 330 l 1
 424 150 l 2
 424 147 423 145 423 142 c 0
 423 113 452 100 476 100 c 0
 502 100 538 115 544 150 c 2
 653 840 l 1
 803 840 l 1
 694 150 l 2
 678 49 592 -10 478 -10 c 0
 421 -10 372 14 344 54 c 1
 304 14 245 -10 188 -10 c 0
 85 -10 22 38 22 121 c 0
 22 130 22 140 24 150 c 2
 71 450 l 2
 83 527 139 610 247 610 c 0
 309 610 355 573 355 514 c 0
 355 508 354 502 353 495 c 0
 342 425 279 385 211 385 c 0
 209 385 207 385 204 385 c 1
EndSplineSet
Colour: ff00ff
EndChar

StartChar: uni0E1E
Encoding: 437 3614 70
Width: 780
VWidth: 0
GlyphClass: 2
Flags: HMW
LayerCount: 4
Layer: 2
SplineSet
178 555 m 0
 150 555 124 533 120 505 c 0
 120 502 119 499 119 497 c 0
 119 473 137 455 162 455 c 0
 190 455 216 477 220 505 c 0
 220 508 221 511 221 513 c 0
 221 537 203 555 178 555 c 0
344 58 m 1
 310 15 260 -10 208 -10 c 0
 112 -10 61 41 61 118 c 0
 61 128 62 139 64 150 c 2
 88 300 l 2
 96 353 137 379 171 406 c 1
 165 405 160 405 154 405 c 0
 100 405 59 437 59 488 c 0
 59 493 59 499 60 505 c 0
 70 566 127 610 187 610 c 0
 251 610 290 570 290 518 c 0
 290 512 290 506 289 500 c 0
 274 403 191 380 178 300 c 2
 154 150 l 2
 153 143 153 137 153 131 c 0
 153 89 177 65 220 65 c 0
 269 65 306 97 314 150 c 2
 338 300 l 1
 428 300 l 1
 404 150 l 2
 403 143 403 137 403 131 c 0
 403 89 427 65 470 65 c 0
 519 65 556 97 564 150 c 2
 635 600 l 1
 725 600 l 1
 654 150 l 2
 639 56 567 -10 458 -10 c 0
 406 -10 364 15 344 58 c 1
EndSplineSet
Layer: 3
SplineSet
165 445 m 0
 193 445 219 467 223 495 c 0
 223 498 224 501 224 503 c 0
 224 527 206 545 181 545 c 0
 153 545 127 523 123 495 c 0
 123 492 122 489 122 487 c 0
 122 463 140 445 165 445 c 0
156 385 m 0
 94 385 47 418 47 476 c 0
 47 482 47 489 48 495 c 0
 59 565 124 610 192 610 c 0
 265 610 318 564 318 500 c 0
 318 494 317 487 316 480 c 0
 301 383 238 364 223 270 c 2
 204 150 l 2
 203 146 203 142 203 139 c 0
 203 112 223 100 246 100 c 0
 272 100 298 115 304 150 c 2
 332 330 l 1
 462 330 l 1
 434 150 l 2
 433 146 433 142 433 139 c 0
 433 112 453 100 476 100 c 0
 502 100 528 115 534 150 c 2
 605 600 l 1
 755 600 l 1
 684 150 l 2
 668 49 592 -10 478 -10 c 0
 423 -10 378 12 353 49 c 1
 316 12 263 -10 208 -10 c 0
 107 -10 51 37 51 118 c 0
 51 128 52 139 54 150 c 2
 73 270 l 2
 82 325 122 356 161 385 c 1
 160 385 158 385 156 385 c 0
EndSplineSet
Colour: ff00ff
EndChar

StartChar: uni0E1F
Encoding: 438 3615 71
Width: 790
VWidth: 0
GlyphClass: 2
Flags: HMW
LayerCount: 4
Layer: 2
SplineSet
178 555 m 0
 150 555 124 533 120 505 c 0
 120 502 119 499 119 497 c 0
 119 473 137 455 162 455 c 0
 190 455 216 477 220 505 c 0
 220 508 221 511 221 513 c 0
 221 537 203 555 178 555 c 0
344 58 m 1
 310 15 260 -10 208 -10 c 0
 112 -10 61 41 61 118 c 0
 61 128 62 139 64 150 c 2
 88 300 l 2
 96 353 137 379 171 406 c 1
 165 405 160 405 154 405 c 0
 100 405 59 437 59 488 c 0
 59 493 59 499 60 505 c 0
 70 566 127 610 187 610 c 0
 251 610 290 570 290 518 c 0
 290 512 290 506 289 500 c 0
 274 403 191 380 178 300 c 2
 154 150 l 2
 153 143 153 137 153 131 c 0
 153 89 177 65 220 65 c 0
 269 65 306 97 314 150 c 2
 338 300 l 1
 428 300 l 1
 404 150 l 2
 403 143 403 137 403 131 c 0
 403 89 427 65 470 65 c 0
 519 65 556 97 564 150 c 2
 673 840 l 1
 763 840 l 1
 654 150 l 2
 639 56 567 -10 458 -10 c 0
 406 -10 364 15 344 58 c 1
EndSplineSet
Layer: 3
SplineSet
165 445 m 0
 193 445 219 467 223 495 c 0
 223 498 224 501 224 503 c 0
 224 527 206 545 181 545 c 0
 153 545 127 523 123 495 c 0
 123 492 122 489 122 487 c 0
 122 463 140 445 165 445 c 0
156 385 m 0
 94 385 47 418 47 476 c 0
 47 482 47 489 48 495 c 0
 59 565 124 610 192 610 c 0
 265 610 318 564 318 500 c 0
 318 494 317 487 316 480 c 0
 301 383 238 364 223 270 c 2
 204 150 l 2
 203 146 203 142 203 139 c 0
 203 112 223 100 246 100 c 0
 272 100 298 115 304 150 c 2
 332 330 l 1
 462 330 l 1
 434 150 l 2
 433 146 433 142 433 139 c 0
 433 112 453 100 476 100 c 0
 502 100 528 115 534 150 c 2
 643 840 l 1
 793 840 l 1
 684 150 l 2
 668 49 592 -10 478 -10 c 0
 423 -10 378 12 353 49 c 1
 316 12 263 -10 208 -10 c 0
 107 -10 51 37 51 118 c 0
 51 128 52 139 54 150 c 2
 73 270 l 2
 82 325 122 356 161 385 c 1
 160 385 158 385 156 385 c 0
EndSplineSet
Colour: ff00ff
EndChar

StartChar: uni0E19
Encoding: 432 3609 72
Width: 670
VWidth: 0
GlyphClass: 2
Flags: HMW
LayerCount: 4
Layer: 2
SplineSet
188 555 m 0
 160 555 134 533 130 505 c 0
 130 502 129 499 129 497 c 0
 129 473 147 455 172 455 c 0
 200 455 226 477 230 505 c 0
 230 508 231 511 231 513 c 0
 231 537 213 555 188 555 c 0
605 600 m 1
 540 190 l 1
 532 188 l 1
 559 173 576 146 576 112 c 0
 576 106 576 101 575 95 c 0
 565 34 508 -10 448 -10 c 0
 400 -10 366 19 360 62 c 1
 328 25 285 -10 218 -10 c 0
 127 -10 75 38 75 131 c 0
 75 146 76 163 79 180 c 2
 98 300 l 2
 106 353 147 379 181 406 c 1
 175 405 170 405 164 405 c 0
 110 405 69 437 69 488 c 0
 69 493 69 499 70 505 c 0
 80 566 137 610 197 610 c 0
 261 610 300 570 300 518 c 0
 300 512 300 506 299 500 c 0
 284 403 201 380 188 300 c 2
 169 180 l 2
 167 167 166 156 166 145 c 0
 166 90 194 65 240 65 c 0
 331 65 365 167 450 192 c 1
 515 600 l 1
 605 600 l 1
457 45 m 0
 485 45 511 67 515 95 c 0
 515 98 516 101 516 103 c 0
 516 127 498 145 473 145 c 0
 445 145 419 123 415 95 c 0
 415 92 414 89 414 87 c 0
 414 63 432 45 457 45 c 0
EndSplineSet
Layer: 3
SplineSet
480 155 m 0
 452 155 426 133 422 105 c 0
 422 102 421 99 421 97 c 0
 421 73 439 55 464 55 c 0
 492 55 518 77 522 105 c 0
 522 108 523 111 523 113 c 0
 523 137 505 155 480 155 c 0
165 445 m 0
 193 445 219 467 223 495 c 0
 223 498 224 501 224 503 c 0
 224 527 206 545 181 545 c 0
 153 545 127 523 123 495 c 0
 123 492 122 489 122 487 c 0
 122 463 140 445 165 445 c 0
156 385 m 0
 94 385 47 418 47 476 c 0
 47 482 47 489 48 495 c 0
 59 565 124 610 192 610 c 0
 265 610 318 564 318 500 c 0
 318 494 317 487 316 480 c 0
 301 383 238 364 223 270 c 2
 209 180 l 2
 208 172 207 164 207 157 c 0
 207 116 229 100 256 100 c 0
 320 100 350 169 412 204 c 1
 475 600 l 1
 625 600 l 1
 563 210 l 1
 549 206 l 1
 579 190 598 161 598 123 c 0
 598 117 598 111 597 105 c 0
 586 35 521 -10 453 -10 c 0
 402 -10 361 16 349 58 c 1
 318 22 274 -10 198 -10 c 0
 105 -10 55 38 55 130 c 0
 55 145 56 162 59 180 c 2
 73 270 l 2
 82 325 122 356 161 385 c 1
 160 385 158 385 156 385 c 0
EndSplineSet
Colour: ffff00
EndChar

StartChar: uni0E21
Encoding: 440 3617 73
Width: 700
VWidth: 0
GlyphClass: 2
Flags: HMW
LayerCount: 4
Layer: 2
SplineSet
177 610 m 1
 258 610 282 575 282 529 c 0
 282 520 281 510 279 500 c 2
 221 134 l 1
 246 96 286 65 360 65 c 0
 451 65 478 111 489 180 c 2
 555 600 l 1
 645 600 l 1
 579 180 l 2
 559 55 474 -10 368 -10 c 0
 290 -10 234 27 205 63 c 1
 184 19 137 -10 88 -10 c 0
 34 -10 -6 26 -6 78 c 0
 -6 84 -6 89 -5 95 c 0
 5 156 62 200 122 200 c 0
 129 200 135 199 141 198 c 1
 189 500 l 2
 190 506 191 512 191 517 c 0
 191 536 183 545 166 545 c 1
 177 610 l 1
97 45 m 0
 125 45 151 67 155 95 c 0
 155 98 156 101 156 103 c 0
 156 127 138 145 113 145 c 0
 85 145 59 123 55 95 c 0
 55 92 54 89 54 87 c 0
 54 63 72 45 97 45 c 0
EndSplineSet
Layer: 3
SplineSet
120 155 m 0
 92 155 66 133 62 105 c 0
 62 102 61 99 61 97 c 0
 61 73 79 55 104 55 c 0
 132 55 158 77 162 105 c 0
 162 108 163 111 163 113 c 0
 163 137 145 155 120 155 c 0
137 610 m 1
 257 610 297 579 297 507 c 0
 297 493 296 477 293 460 c 2
 247 170 l 1
 271 132 306 100 356 100 c 0
 407 100 441 128 452 200 c 2
 515 600 l 1
 665 600 l 1
 602 200 l 2
 579 56 503 -10 398 -10 c 0
 311 -10 261 33 230 79 c 1
 209 24 152 -10 93 -10 c 0
 31 -10 -15 27 -15 86 c 0
 -15 92 -14 98 -13 105 c 0
 -3 167 49 210 108 218 c 1
 107 224 107 231 108 240 c 2
 143 460 l 2
 145 475 147 486 147 495 c 0
 147 514 140 520 122 520 c 1
 137 610 l 1
EndSplineSet
Colour: ff00ff
EndChar

StartChar: uni0E17
Encoding: 430 3607 74
Width: 780
VWidth: 0
GlyphClass: 2
Flags: HMW
LayerCount: 4
Layer: 2
SplineSet
188 555 m 0
 160 555 134 533 130 505 c 0
 130 502 129 499 129 497 c 0
 129 473 147 455 172 455 c 0
 200 455 226 477 230 505 c 0
 230 508 231 511 231 513 c 0
 231 537 213 555 188 555 c 0
188 300 m 2
 161 130 l 2
 160 125 160 119 160 115 c 0
 160 73 196 65 225 65 c 0
 257 65 302 75 311 130 c 2
 364 470 l 2
 378 559 457 610 552 610 c 0
 638 610 696 569 696 495 c 0
 696 487 695 479 694 470 c 2
 620 0 l 1
 530 0 l 1
 604 470 l 2
 605 475 605 481 605 485 c 0
 605 527 569 535 540 535 c 0
 508 535 463 525 454 470 c 2
 401 130 l 2
 387 41 308 -10 213 -10 c 0
 127 -10 69 31 69 105 c 0
 69 113 70 121 71 130 c 2
 98 300 l 2
 106 353 147 379 181 406 c 1
 175 405 170 405 164 405 c 0
 110 405 69 437 69 488 c 0
 69 493 69 499 70 505 c 0
 80 566 137 610 197 610 c 0
 261 610 300 570 300 518 c 0
 300 512 300 506 299 500 c 0
 284 403 201 380 188 300 c 2
EndSplineSet
Layer: 3
SplineSet
165 445 m 0
 193 445 219 467 223 495 c 0
 223 498 224 501 224 503 c 0
 224 527 206 545 181 545 c 0
 153 545 127 523 123 495 c 0
 123 492 122 489 122 487 c 0
 122 463 140 445 165 445 c 0
156 385 m 0
 94 385 47 418 47 476 c 0
 47 482 47 489 48 495 c 0
 59 565 124 610 192 610 c 0
 265 610 318 564 318 500 c 0
 318 494 317 487 316 480 c 0
 301 383 238 364 223 270 c 2
 204 150 l 2
 203 146 203 142 203 138 c 0
 203 111 222 100 246 100 c 0
 273 100 298 114 304 150 c 2
 351 450 l 2
 367 548 452 610 562 610 c 0
 662 610 733 559 733 476 c 0
 733 468 732 459 731 450 c 2
 660 0 l 1
 510 0 l 1
 581 450 l 2
 582 454 582 458 582 462 c 0
 582 489 563 500 539 500 c 0
 512 500 487 486 481 450 c 2
 434 150 l 2
 418 52 333 -10 223 -10 c 0
 123 -10 52 41 52 124 c 0
 52 132 53 141 54 150 c 2
 73 270 l 2
 82 325 122 356 161 385 c 1
 160 385 158 385 156 385 c 0
EndSplineSet
Colour: ff00ff
EndChar

StartChar: uni0E2B
Encoding: 450 3627 75
Width: 830
VWidth: 0
GlyphClass: 2
Flags: HMW
LayerCount: 4
Layer: 2
SplineSet
444 560 m 0
 416 560 390 538 386 510 c 0
 386 507 385 504 385 502 c 0
 385 478 403 460 428 460 c 0
 456 460 482 482 486 510 c 0
 486 513 487 516 487 518 c 0
 487 542 469 560 444 560 c 0
188 555 m 0
 160 555 134 533 130 505 c 0
 130 502 129 499 129 497 c 0
 129 473 147 455 172 455 c 0
 200 455 226 477 230 505 c 0
 230 508 231 511 231 513 c 0
 231 537 213 555 188 555 c 0
542 517 m 1
 574 556 611 600 665 600 c 0
 710 600 748 570 748 508 c 0
 748 499 748 490 746 480 c 2
 670 0 l 1
 580 0 l 1
 653 460 l 2
 654 469 655 478 655 485 c 0
 655 511 646 525 623 525 c 0
 575 525 533 437 476 418 c 1
 431 130 l 2
 417 41 333 -10 228 -10 c 0
 132 -10 69 32 69 107 c 0
 69 114 70 122 71 130 c 2
 98 300 l 2
 106 353 147 379 181 406 c 1
 175 405 170 405 164 405 c 0
 110 405 69 437 69 488 c 0
 69 493 69 499 70 505 c 0
 80 566 137 610 197 610 c 0
 261 610 300 570 300 518 c 0
 300 512 300 506 299 500 c 0
 284 403 201 380 188 300 c 2
 161 130 l 2
 161 127 160 124 160 121 c 0
 160 82 201 65 240 65 c 0
 282 65 334 85 341 130 c 2
 386 416 l 1
 355 428 330 456 330 495 c 0
 330 500 330 505 331 510 c 0
 341 571 400 610 452 610 c 0
 499 610 542 578 542 526 c 0
 542 523 542 520 542 517 c 1
EndSplineSet
Layer: 3
SplineSet
452 550 m 0
 424 550 398 528 394 500 c 0
 394 497 393 494 393 492 c 0
 393 468 411 450 436 450 c 0
 464 450 490 472 494 500 c 0
 494 503 495 506 495 508 c 0
 495 532 477 550 452 550 c 0
165 445 m 0
 193 445 219 467 223 495 c 0
 223 498 224 501 224 503 c 0
 224 527 206 545 181 545 c 0
 153 545 127 523 123 495 c 0
 123 492 122 489 122 487 c 0
 122 463 140 445 165 445 c 0
156 385 m 0
 94 385 47 418 47 476 c 0
 47 482 47 489 48 495 c 0
 59 565 124 610 192 610 c 0
 265 610 318 564 318 500 c 0
 318 494 317 487 316 480 c 0
 301 383 238 364 223 270 c 2
 204 150 l 2
 203 147 203 144 203 141 c 0
 203 111 231 100 256 100 c 0
 283 100 318 114 324 150 c 2
 359 370 l 2
 361 384 366 396 370 405 c 1
 345 420 328 446 328 482 c 0
 328 488 328 494 329 500 c 0
 340 570 405 610 462 610 c 0
 514 610 561 576 561 517 c 1
 599 554 646 600 705 600 c 0
 763 600 788 567 788 511 c 0
 788 498 786 485 784 470 c 2
 710 0 l 1
 560 0 l 1
 627 420 l 2
 629 431 629 440 629 448 c 0
 629 470 623 480 606 480 c 0
 575 480 527 419 494 407 c 1
 454 150 l 2
 438 52 343 -10 233 -10 c 0
 132 -10 52 43 52 127 c 0
 52 135 53 142 54 150 c 2
 73 270 l 2
 82 325 122 356 161 385 c 1
 160 385 158 385 156 385 c 0
EndSplineSet
Colour: ff00ff
EndChar

StartChar: uni0E07
Encoding: 414 3591 76
Width: 540
VWidth: 0
GlyphClass: 2
Flags: HMW
LayerCount: 4
Layer: 2
SplineSet
165 475 m 0
 137 475 111 453 107 425 c 0
 107 422 106 419 106 417 c 0
 106 393 124 375 149 375 c 0
 177 375 203 397 207 425 c 0
 207 428 208 431 208 433 c 0
 208 457 190 475 165 475 c 0
47 425 m 0
 65 536 162 610 272 610 c 0
 370 610 448 564 448 453 c 0
 448 440 447 425 445 410 c 2
 366 -90 l 2
 344 -226 257 -260 159 -260 c 0
 86 -260 4 -231 -30 -190 c 1
 18 -140 l 1
 37 -158 96 -190 170 -190 c 0
 239 -190 266 -155 276 -90 c 2
 355 410 l 2
 357 423 358 436 358 447 c 0
 358 513 321 540 261 540 c 0
 230 540 202 534 181 525 c 1
 232 521 268 490 268 441 c 0
 268 436 268 431 267 425 c 0
 257 364 201 320 141 320 c 0
 87 320 46 356 46 408 c 0
 46 414 46 419 47 425 c 0
EndSplineSet
Layer: 3
SplineSet
165 445 m 0
 137 445 112 423 108 395 c 0
 108 392 107 389 107 387 c 0
 107 363 125 345 150 345 c 0
 178 345 204 367 208 395 c 0
 208 398 209 400 209 402 c 0
 209 426 190 445 165 445 c 0
33 395 m 0
 52 517 157 610 287 610 c 0
 391 610 476 548 476 437 c 0
 476 425 475 413 473 400 c 2
 396 -90 l 2
 379 -197 280 -260 139 -260 c 0
 35 -260 -25 -210 -49 -185 c 1
 23 -110 l 1
 39 -133 98 -160 140 -160 c 0
 200 -160 240 -130 246 -90 c 2
 325 410 l 2
 327 420 327 429 327 438 c 0
 327 501 287 520 237 520 c 0
 212 520 190 512 172 500 c 1
 232 497 284 467 284 411 c 0
 284 406 284 401 283 395 c 0
 272 325 207 280 139 280 c 0
 77 280 31 317 31 376 c 0
 31 382 32 388 33 395 c 0
EndSplineSet
Colour: ff00ff
EndChar

StartChar: uni0E32
Encoding: 457 3634 77
Width: 540
VWidth: 0
GlyphClass: 2
Flags: HMW
LayerCount: 4
Layer: 2
SplineSet
175 475 m 0
 147 475 121 453 117 425 c 0
 117 422 116 419 116 417 c 0
 116 393 134 375 159 375 c 0
 187 375 213 397 217 425 c 0
 217 428 218 431 218 433 c 0
 218 457 200 475 175 475 c 0
390 0 m 1
 300 0 l 1
 365 410 l 2
 367 423 368 436 368 447 c 0
 368 513 331 540 271 540 c 0
 240 540 212 534 191 525 c 1
 242 521 278 490 278 441 c 0
 278 436 278 431 277 425 c 0
 267 364 211 320 151 320 c 0
 97 320 56 356 56 408 c 0
 56 414 56 419 57 425 c 0
 75 536 172 610 282 610 c 0
 380 610 458 564 458 453 c 0
 458 440 457 425 455 410 c 2
 390 0 l 1
EndSplineSet
Layer: 3
SplineSet
165 445 m 0
 137 445 112 423 108 395 c 0
 108 392 107 389 107 387 c 0
 107 363 125 345 150 345 c 0
 178 345 204 367 208 395 c 0
 208 398 209 400 209 402 c 0
 209 426 190 445 165 445 c 0
260 0 m 9
 325 410 l 2
 327 420 327 429 327 438 c 0
 327 501 287 520 237 520 c 0
 212 520 190 512 172 500 c 1
 232 497 284 467 284 411 c 0
 284 406 284 401 283 395 c 0
 272 325 207 280 139 280 c 0
 77 280 31 317 31 376 c 0
 31 382 32 388 33 395 c 0
 52 517 157 610 287 610 c 0
 391 610 476 548 476 437 c 0
 476 425 475 413 473 400 c 2
 410 0 l 17
 260 0 l 9
EndSplineSet
Colour: ff00ff
EndChar

StartChar: uni0E45
Encoding: 472 3653 78
Width: 550
VWidth: 0
GlyphClass: 2
Flags: HMW
LayerCount: 4
Layer: 2
SplineSet
175 475 m 0
 147 475 121 453 117 425 c 0
 117 422 116 419 116 417 c 0
 116 393 134 375 159 375 c 0
 187 375 213 397 217 425 c 0
 217 428 218 431 218 433 c 0
 218 457 200 475 175 475 c 0
352 -240 m 1
 262 -240 l 1
 365 410 l 2
 367 423 368 436 368 447 c 0
 368 513 331 540 271 540 c 0
 240 540 212 534 191 525 c 1
 242 521 278 490 278 441 c 0
 278 436 278 431 277 425 c 0
 267 364 211 320 151 320 c 0
 97 320 56 356 56 408 c 0
 56 414 56 419 57 425 c 0
 75 536 172 610 282 610 c 0
 380 610 458 564 458 453 c 0
 458 440 457 425 455 410 c 2
 352 -240 l 1
EndSplineSet
Layer: 3
SplineSet
165 445 m 0
 137 445 112 423 108 395 c 0
 108 392 107 389 107 387 c 0
 107 363 125 345 150 345 c 0
 178 345 204 367 208 395 c 0
 208 398 209 400 209 402 c 0
 209 426 190 445 165 445 c 0
222 -240 m 9
 325 410 l 2
 327 420 327 429 327 438 c 0
 327 501 287 520 237 520 c 0
 212 520 190 512 172 500 c 1
 232 497 284 467 284 411 c 0
 284 406 284 401 283 395 c 0
 272 325 207 280 139 280 c 0
 77 280 31 317 31 376 c 0
 31 382 32 388 33 395 c 0
 52 517 157 610 287 610 c 0
 391 610 476 548 476 437 c 0
 476 425 475 413 473 400 c 2
 372 -240 l 17
 222 -240 l 9
EndSplineSet
Colour: ff00
EndChar

StartChar: uni0E15
Encoding: 428 3605 80
Width: 700
VWidth: 0
GlyphClass: 2
Flags: HMW
LayerCount: 4
Layer: 2
SplineSet
213 145 m 0
 185 145 159 123 155 95 c 0
 155 92 154 89 154 87 c 0
 154 63 172 45 197 45 c 0
 225 45 251 67 255 95 c 0
 255 98 256 101 256 103 c 0
 256 127 238 145 213 145 c 0
222 200 m 0
 276 200 316 164 316 112 c 0
 316 106 316 101 315 95 c 0
 305 34 248 -10 188 -10 c 0
 102 -10 52 47 52 127 c 0
 52 138 53 149 55 160 c 2
 97 420 l 2
 118 551 243 620 273 620 c 1
 373 525 l 1
 503 620 l 1
 530 620 620 563 620 454 c 0
 620 443 619 432 617 420 c 2
 550 0 l 1
 460 0 l 1
 527 420 l 2
 528 429 529 439 529 449 c 0
 529 482 520 516 491 540 c 1
 361 450 l 1
 261 540 l 1
 213 509 193 459 187 420 c 2
 147 173 l 1
 168 190 195 200 222 200 c 0
EndSplineSet
Layer: 3
SplineSet
215 155 m 0
 187 155 161 133 157 105 c 0
 157 102 156 99 156 97 c 0
 156 73 174 55 199 55 c 0
 227 55 253 77 257 105 c 0
 257 108 258 111 258 113 c 0
 258 137 240 155 215 155 c 0
225 220 m 0
 287 220 334 183 334 124 c 0
 334 118 333 112 332 105 c 0
 321 35 256 -10 188 -10 c 0
 93 -10 23 46 23 133 c 0
 23 142 24 151 25 160 c 2
 62 390 l 2
 88 552 222 620 283 620 c 1
 373 525 l 1
 493 620 l 1
 548 620 646 565 646 436 c 0
 646 422 645 406 642 390 c 2
 580 0 l 1
 430 0 l 1
 492 390 l 2
 496 414 498 433 498 449 c 0
 498 480 491 498 476 510 c 1
 357 420 l 1
 266 510 l 1
 238 492 223 460 212 390 c 2
 188 240 l 2
 187 231 183 219 179 208 c 1
 193 215 208 220 225 220 c 0
EndSplineSet
Colour: ff00ff
EndChar

StartChar: uni0E14
Encoding: 427 3604 81
Width: 700
VWidth: 0
GlyphClass: 2
Flags: HMW
LayerCount: 4
Layer: 2
SplineSet
213 145 m 0
 185 145 159 123 155 95 c 0
 155 92 154 89 154 87 c 0
 154 63 172 45 197 45 c 0
 225 45 251 67 255 95 c 0
 255 98 256 101 256 103 c 0
 256 127 238 145 213 145 c 0
222 200 m 0
 276 200 316 164 316 112 c 0
 316 106 316 101 315 95 c 0
 305 34 248 -10 188 -10 c 0
 102 -10 52 47 52 127 c 0
 52 138 53 149 55 160 c 2
 97 420 l 2
 115 535 243 620 388 620 c 0
 521 620 619 557 619 450 c 0
 619 440 619 430 617 420 c 2
 550 0 l 1
 460 0 l 1
 527 420 l 2
 528 426 528 432 528 438 c 0
 528 500 476 545 376 545 c 0
 266 545 198 491 187 420 c 2
 147 173 l 1
 168 190 195 200 222 200 c 0
EndSplineSet
Layer: 3
SplineSet
215 155 m 0
 187 155 161 133 157 105 c 0
 157 102 156 99 156 97 c 0
 156 73 174 55 199 55 c 0
 227 55 253 77 257 105 c 0
 257 108 258 111 258 113 c 0
 258 137 240 155 215 155 c 0
225 220 m 0
 287 220 334 183 334 124 c 0
 334 118 333 112 332 105 c 0
 321 35 256 -10 188 -10 c 0
 93 -10 23 46 23 133 c 0
 23 142 24 151 25 160 c 2
 62 390 l 2
 80 505 195 620 388 620 c 0
 562 620 645 534 645 426 c 0
 645 414 644 402 642 390 c 2
 580 0 l 1
 430 0 l 1
 492 390 l 2
 493 396 493 403 493 409 c 0
 493 470 444 510 371 510 c 0
 291 510 223 461 212 390 c 2
 188 240 l 2
 187 231 183 219 179 208 c 1
 193 215 208 220 225 220 c 0
EndSplineSet
Colour: ff00ff
EndChar

StartChar: uni0E02
Encoding: 409 3586 82
Width: 700
VWidth: 0
GlyphClass: 2
Flags: HMW
LayerCount: 4
Layer: 2
SplineSet
490 0 m 1
 500 60 l 2
 503 80 510 98 516 111 c 1
 471 61 380 -20 247 -20 c 0
 124 -20 49 34 49 110 c 0
 49 117 50 123 51 130 c 0
 70 249 220 276 328 305 c 0
 446 337 519 371 528 430 c 0
 529 436 529 442 529 448 c 0
 529 511 470 550 377 550 c 0
 332 550 296 544 268 538 c 1
 300 526 321 498 321 461 c 0
 321 456 321 451 320 445 c 0
 310 384 254 340 194 340 c 0
 140 340 99 376 99 428 c 0
 99 434 99 439 100 445 c 0
 117 551 256 620 388 620 c 0
 509 620 620 564 620 457 c 0
 620 448 619 439 618 430 c 0
 600 317 473 271 347 235 c 0
 229 201 150 185 141 130 c 0
 141 127 140 125 140 122 c 0
 140 85 179 55 259 55 c 0
 426 55 507 175 533 210 c 1
 583 210 l 1
 550 0 l 1
 490 0 l 1
203 395 m 0
 231 395 256 417 260 445 c 0
 260 448 261 451 261 453 c 0
 261 477 243 495 218 495 c 0
 190 495 164 473 160 445 c 0
 160 442 159 440 159 438 c 0
 159 414 178 395 203 395 c 0
EndSplineSet
Layer: 3
SplineSet
188 395 m 0
 216 395 241 417 245 445 c 0
 245 448 246 451 246 453 c 0
 246 477 228 495 203 495 c 0
 175 495 149 473 145 445 c 0
 145 442 144 440 144 438 c 0
 144 414 163 395 188 395 c 0
490 0 m 1
 501 70 l 2
 503 83 508 95 513 107 c 1
 463 45 378 -20 257 -20 c 0
 118 -20 22 46 22 128 c 0
 22 133 22 139 23 145 c 0
 42 268 184 287 331 325 c 0
 455 357 500 374 507 420 c 0
 508 425 508 431 508 436 c 0
 508 490 461 525 373 525 c 0
 342 525 319 522 302 518 c 1
 315 505 322 486 322 464 c 0
 322 458 321 452 320 445 c 0
 309 375 245 330 177 330 c 0
 115 330 68 367 68 426 c 0
 68 432 69 438 70 445 c 0
 83 527 200 620 388 620 c 0
 546 620 647 546 647 438 c 0
 647 429 646 420 645 410 c 0
 627 295 503 256 344 215 c 0
 212 181 178 175 172 140 c 0
 172 138 172 136 172 134 c 0
 172 102 218 85 273 85 c 0
 397 85 493 151 523 210 c 1
 613 210 l 1
 580 0 l 1
 490 0 l 1
EndSplineSet
Colour: ff00ff
EndChar

StartChar: uni0E0A
Encoding: 417 3594 83
Width: 710
VWidth: 0
GlyphClass: 2
Flags: HMW
AnchorPoint: "ThaiBelow2.mark" 570 0 basechar 0
LayerCount: 4
Layer: 2
SplineSet
203 395 m 0
 231 395 256 417 260 445 c 0
 260 448 261 451 261 453 c 0
 261 477 243 495 218 495 c 0
 190 495 164 473 160 445 c 0
 160 442 159 440 159 438 c 0
 159 414 178 395 203 395 c 0
442 -240 m 1
 490 60 l 2
 493 79 498 94 503 106 c 1
 459 56 376 -20 247 -20 c 0
 124 -20 49 34 49 110 c 0
 49 117 50 123 51 130 c 0
 70 249 220 276 328 305 c 0
 446 337 519 371 528 430 c 0
 529 436 529 442 529 448 c 0
 529 511 470 550 377 550 c 0
 332 550 296 544 268 538 c 1
 300 526 321 498 321 461 c 0
 321 456 321 451 320 445 c 0
 310 384 254 340 194 340 c 0
 140 340 99 376 99 428 c 0
 99 434 99 439 100 445 c 0
 117 551 256 620 388 620 c 0
 509 620 620 564 620 457 c 0
 620 448 619 439 618 430 c 0
 600 317 473 271 347 235 c 0
 229 201 150 185 141 130 c 0
 141 127 140 125 140 122 c 0
 140 85 179 55 259 55 c 0
 426 55 497 175 523 210 c 1
 593 210 l 1
 522 -240 l 1
 442 -240 l 1
EndSplineSet
Layer: 3
SplineSet
188 395 m 0
 216 395 241 417 245 445 c 0
 245 448 246 451 246 453 c 0
 246 477 228 495 203 495 c 0
 175 495 149 473 145 445 c 0
 145 442 144 440 144 438 c 0
 144 414 163 395 188 395 c 0
412 -240 m 1
 450 0 l 2
 454 25 464 50 473 70 c 1
 425 22 354 -20 257 -20 c 0
 118 -20 22 46 22 128 c 0
 22 133 22 139 23 145 c 0
 42 268 184 287 331 325 c 0
 455 357 500 374 507 420 c 0
 508 425 508 431 508 436 c 0
 508 490 461 525 373 525 c 0
 342 525 319 522 302 518 c 1
 315 505 322 486 322 464 c 0
 322 458 321 452 320 445 c 0
 309 375 245 330 177 330 c 0
 115 330 68 367 68 426 c 0
 68 432 69 438 70 445 c 0
 83 527 200 620 388 620 c 0
 546 620 647 546 647 438 c 0
 647 429 646 420 645 410 c 0
 627 295 503 256 344 215 c 0
 212 181 178 175 172 140 c 0
 172 138 172 136 172 134 c 0
 172 102 218 85 273 85 c 0
 397 85 483 151 513 210 c 1
 613 210 l 1
 542 -240 l 1
 412 -240 l 1
EndSplineSet
Colour: ff00ff
EndChar

StartChar: uni0E2E
Encoding: 453 3630 84
Width: 700
VWidth: 0
GlyphClass: 2
Flags: HMW
LayerCount: 4
Layer: 2
SplineSet
162 205 m 0
 134 205 109 183 105 155 c 0
 105 152 104 149 104 147 c 0
 104 123 122 105 147 105 c 0
 175 105 201 127 205 155 c 0
 205 158 206 160 206 162 c 0
 206 186 187 205 162 205 c 0
171 260 m 0
 225 260 266 224 266 172 c 0
 266 166 266 161 265 155 c 0
 258 110 224 76 183 62 c 1
 209 56 243 50 288 50 c 0
 389 50 465 97 477 170 c 2
 507 360 l 2
 509 371 513 380 517 386 c 1
 469 365 402 345 325 345 c 0
 195 345 81 387 81 447 c 0
 81 449 82 452 82 455 c 0
 95 539 228 620 368 620 c 0
 451 620 515 589 551 542 c 1
 549 551 548 560 550 570 c 2
 565 660 l 1
 645 660 l 1
 567 170 l 2
 547 45 408 -20 277 -20 c 0
 154 -20 43 41 43 135 c 0
 43 142 44 148 45 155 c 0
 55 216 111 260 171 260 c 0
530 455 m 1
 516 509 449 550 357 550 c 0
 250 550 173 489 173 458 c 0
 173 434 238 405 334 405 c 0
 425 405 494 434 530 455 c 1
EndSplineSet
Layer: 3
SplineSet
555 660 m 1
 675 660 l 1
 600 190 l 2
 578 50 448 -20 277 -20 c 0
 117 -20 14 49 14 137 c 0
 14 143 14 149 15 155 c 0
 26 225 90 270 158 270 c 0
 220 270 267 233 267 174 c 0
 267 168 266 162 265 155 c 0
 260 124 244 99 222 82 c 1
 239 78 262 75 292 75 c 0
 388 75 440 128 450 190 c 2
 471 320 l 2
 474 336 481 349 491 360 c 1
 447 344 393 330 332 330 c 0
 203 330 60 363 60 440 c 0
 60 443 60 447 61 450 c 0
 72 517 194 620 378 620 c 0
 457 620 511 595 544 559 c 1
 542 568 541 579 543 590 c 2
 555 660 l 1
147 205 m 0
 119 205 94 183 90 155 c 0
 90 152 89 149 89 147 c 0
 89 123 107 105 132 105 c 0
 160 105 186 127 190 155 c 0
 190 158 191 160 191 162 c 0
 191 186 172 205 147 205 c 0
362 520 m 0
 279 520 191 481 191 448 c 0
 191 425 260 410 345 410 c 0
 422 410 482 428 522 446 c 1
 498 489 435 520 362 520 c 0
EndSplineSet
Colour: ffff00
EndChar

StartChar: uni0E27
Encoding: 446 3623 85
Width: 660
VWidth: 0
GlyphClass: 2
Flags: HMW
LayerCount: 4
Layer: 2
SplineSet
172 205 m 0
 144 205 119 183 115 155 c 0
 115 152 114 149 114 147 c 0
 114 123 132 105 157 105 c 0
 185 105 211 127 215 155 c 0
 215 158 216 160 216 162 c 0
 216 186 197 205 172 205 c 0
181 260 m 0
 235 260 276 224 276 172 c 0
 276 166 276 161 275 155 c 0
 267 106 230 72 185 60 c 1
 207 54 237 50 278 50 c 0
 367 50 437 103 449 180 c 2
 487 420 l 2
 488 427 489 433 489 439 c 0
 489 500 440 545 346 545 c 0
 243 545 178 491 167 420 c 1
 77 420 l 1
 95 535 218 620 358 620 c 0
 486 620 580 557 580 451 c 0
 580 441 579 431 577 420 c 2
 539 180 l 2
 516 34 376 -20 267 -20 c 0
 172 -20 53 20 53 129 c 0
 53 137 54 146 55 155 c 0
 65 216 121 260 181 260 c 0
EndSplineSet
Layer: 3
SplineSet
157 205 m 0
 129 205 104 183 100 155 c 0
 100 152 99 149 99 147 c 0
 99 123 117 105 142 105 c 0
 170 105 196 127 200 155 c 0
 200 158 201 160 201 162 c 0
 201 186 182 205 157 205 c 0
168 270 m 0
 230 270 277 233 277 174 c 0
 277 168 276 162 275 155 c 0
 270 122 253 96 229 79 c 1
 243 76 260 75 282 75 c 0
 368 75 409 118 420 190 c 2
 452 390 l 2
 453 396 454 403 454 409 c 0
 454 462 414 500 339 500 c 0
 255 500 202 450 192 390 c 1
 42 390 l 1
 60 504 170 620 358 620 c 0
 528 620 605 526 605 423 c 0
 605 412 604 401 602 390 c 2
 570 190 l 2
 551 67 438 -20 267 -20 c 0
 109 -20 23 48 23 134 c 0
 23 141 24 148 25 155 c 0
 36 225 100 270 168 270 c 0
EndSplineSet
Colour: ff00ff
EndChar

StartChar: uni0E2D
Encoding: 452 3629 86
Width: 690
VWidth: 0
GlyphClass: 2
Flags: HMW
LayerCount: 4
Layer: 2
SplineSet
162 205 m 0
 134 205 109 183 105 155 c 0
 105 152 104 149 104 147 c 0
 104 123 122 105 147 105 c 0
 175 105 201 127 205 155 c 0
 205 158 206 160 206 162 c 0
 206 186 187 205 162 205 c 0
171 260 m 0
 225 260 266 224 266 172 c 0
 266 166 266 161 265 155 c 0
 258 110 224 76 183 62 c 1
 209 56 243 50 288 50 c 0
 389 50 465 97 477 170 c 2
 505 350 l 2
 507 361 510 371 513 380 c 1
 466 362 405 345 335 345 c 0
 205 345 91 387 91 447 c 0
 91 449 92 452 92 455 c 0
 105 539 238 620 378 620 c 0
 507 620 609 557 609 449 c 0
 609 440 609 430 607 420 c 2
 567 170 l 2
 547 45 408 -20 277 -20 c 0
 154 -20 43 41 43 135 c 0
 43 142 44 148 45 155 c 0
 55 216 111 260 171 260 c 0
527 448 m 1
 519 506 456 550 367 550 c 0
 260 550 183 489 183 458 c 0
 183 434 248 405 344 405 c 0
 425 405 488 428 527 448 c 1
EndSplineSet
Layer: 3
SplineSet
147 205 m 0
 119 205 94 183 90 155 c 0
 90 152 89 149 89 147 c 0
 89 123 107 105 132 105 c 0
 160 105 186 127 190 155 c 0
 190 158 191 160 191 162 c 0
 191 186 172 205 147 205 c 0
158 270 m 0
 220 270 267 233 267 174 c 0
 267 168 266 162 265 155 c 0
 260 124 244 99 222 82 c 1
 239 78 262 75 292 75 c 0
 388 75 440 128 450 190 c 2
 471 320 l 2
 473 335 478 347 484 357 c 1
 443 342 390 330 332 330 c 0
 203 330 60 363 60 440 c 0
 60 443 60 447 61 450 c 0
 72 517 194 620 378 620 c 0
 557 620 635 526 635 423 c 0
 635 412 634 401 632 390 c 2
 600 190 l 2
 578 50 448 -20 277 -20 c 0
 117 -20 14 49 14 137 c 0
 14 143 14 149 15 155 c 0
 26 225 90 270 158 270 c 0
507 440 m 1
 488 486 431 520 362 520 c 0
 279 520 191 481 191 448 c 0
 191 425 260 410 345 410 c 0
 412 410 467 424 507 440 c 1
EndSplineSet
Colour: ff00ff
EndChar

StartChar: uni0E2A
Encoding: 449 3626 87
Width: 700
VWidth: 0
GlyphClass: 2
Flags: HMW
LayerCount: 4
Layer: 2
SplineSet
181 135 m 0
 153 135 127 113 123 85 c 0
 123 82 122 80 122 78 c 0
 122 54 141 35 166 35 c 0
 194 35 219 57 223 85 c 0
 223 88 224 91 224 93 c 0
 224 117 206 135 181 135 c 0
199 185 m 0
 247 185 285 154 285 103 c 0
 285 97 284 91 283 85 c 0
 273 24 217 -20 157 -20 c 0
 97 -20 47 23 47 94 c 0
 47 102 48 111 49 120 c 0
 64 217 151 280 244 280 c 0
 398 280 433 151 443 60 c 1
 460 61 471 70 476 100 c 2
 517 360 l 2
 519 371 523 380 527 386 c 1
 479 365 412 345 335 345 c 0
 205 345 91 387 91 447 c 0
 91 449 92 452 92 455 c 0
 105 539 238 620 378 620 c 0
 461 620 525 589 561 542 c 1
 559 551 558 560 560 570 c 2
 575 660 l 1
 655 660 l 1
 566 100 l 2
 556 37 541 0 470 0 c 2
 380 0 l 1
 378 74 363 220 235 220 c 0
 185 220 144 194 126 160 c 1
 146 176 171 185 199 185 c 0
540 455 m 1
 526 509 459 550 367 550 c 0
 260 550 183 489 183 458 c 0
 183 434 248 405 344 405 c 0
 435 405 504 434 540 455 c 1
EndSplineSet
Layer: 3
SplineSet
555 660 m 1
 675 660 l 1
 583 80 l 2
 571 3 532 0 420 0 c 2
 370 0 l 1
 368 79 343 200 202 200 c 0
 175 200 154 193 140 181 c 1
 149 184 159 185 169 185 c 0
 227 185 269 155 269 102 c 0
 269 96 269 91 268 85 c 0
 258 21 201 -20 137 -20 c 0
 64 -20 9 32 9 105 c 0
 9 113 10 121 11 130 c 0
 26 227 127 290 226 290 c 0
 368 290 420 208 441 130 c 1
 471 320 l 2
 474 336 481 349 491 360 c 1
 447 344 393 330 332 330 c 0
 203 330 60 363 60 440 c 0
 60 443 60 447 61 450 c 0
 72 517 194 620 378 620 c 0
 457 620 511 595 544 559 c 1
 542 568 541 579 543 590 c 2
 555 660 l 1
161 130 m 0
 136 130 112 110 108 85 c 0
 108 83 107 80 107 78 c 0
 107 56 123 40 146 40 c 0
 171 40 194 60 198 85 c 0
 198 88 199 91 199 93 c 0
 199 114 183 130 161 130 c 0
362 520 m 0
 279 520 191 481 191 448 c 0
 191 425 260 410 345 410 c 0
 417 410 475 426 515 443 c 1
 494 488 437 520 362 520 c 0
EndSplineSet
Colour: ff00ff
EndChar

StartChar: uni0E25
Encoding: 444 3621 88
Width: 690
VWidth: 0
GlyphClass: 2
Flags: HMW
LayerCount: 4
Layer: 2
SplineSet
171 135 m 0
 143 135 117 113 113 85 c 0
 113 82 112 80 112 78 c 0
 112 54 131 35 156 35 c 0
 184 35 209 57 213 85 c 0
 213 88 214 91 214 93 c 0
 214 117 196 135 171 135 c 0
189 185 m 0
 237 185 275 154 275 103 c 0
 275 97 274 91 273 85 c 0
 263 24 207 -20 147 -20 c 0
 87 -20 37 23 37 94 c 0
 37 102 38 111 39 120 c 0
 54 217 141 280 234 280 c 0
 388 280 423 151 433 60 c 1
 450 61 461 70 466 100 c 2
 517 420 l 2
 518 426 518 433 518 439 c 0
 518 506 459 545 366 545 c 0
 265 545 189 498 177 420 c 1
 87 420 l 1
 105 534 229 620 378 620 c 0
 515 620 609 548 609 447 c 0
 609 438 608 429 607 420 c 2
 556 100 l 2
 546 37 531 0 460 0 c 2
 370 0 l 1
 368 74 353 220 225 220 c 0
 175 220 134 194 116 160 c 1
 136 176 161 185 189 185 c 0
EndSplineSet
Layer: 3
SplineSet
161 130 m 0
 136 130 112 110 108 85 c 0
 108 83 107 80 107 78 c 0
 107 56 123 40 146 40 c 0
 171 40 194 60 198 85 c 0
 198 88 199 91 199 93 c 0
 199 114 183 130 161 130 c 0
169 185 m 0
 227 185 269 155 269 102 c 0
 269 96 269 91 268 85 c 0
 258 21 201 -20 137 -20 c 0
 64 -20 9 32 9 105 c 0
 9 113 10 121 11 130 c 0
 26 227 127 290 226 290 c 0
 368 290 420 208 441 130 c 1
 482 390 l 2
 483 396 483 401 483 407 c 0
 483 461 440 500 359 500 c 0
 270 500 212 450 202 390 c 1
 52 390 l 1
 70 504 180 620 378 620 c 0
 557 620 635 526 635 423 c 0
 635 412 634 401 632 390 c 2
 583 80 l 2
 571 3 532 0 420 0 c 2
 370 0 l 1
 368 79 343 200 202 200 c 0
 175 200 154 193 140 181 c 1
 149 184 159 185 169 185 c 0
EndSplineSet
Colour: ff00ff
EndChar

StartChar: uni0E08
Encoding: 415 3592 89
Width: 650
VWidth: 0
GlyphClass: 2
Flags: HMW
LayerCount: 4
Layer: 2
SplineSet
230 315 m 0
 202 315 176 293 172 265 c 0
 172 262 171 259 171 257 c 0
 171 233 189 215 214 215 c 0
 242 215 268 237 272 265 c 0
 272 268 273 271 273 273 c 0
 273 297 255 315 230 315 c 0
222 161 m 1
 217 160 211 160 205 160 c 0
 151 160 111 196 111 248 c 0
 111 254 111 259 112 265 c 0
 122 326 179 370 239 370 c 0
 302 370 338 330 338 279 c 0
 338 273 337 267 336 260 c 0
 324 187 286 164 279 120 c 0
 279 117 278 114 278 111 c 0
 278 83 299 60 341 60 c 0
 382 60 422 75 431 130 c 2
 477 420 l 2
 478 427 479 433 479 439 c 0
 479 500 430 545 336 545 c 0
 233 545 168 491 157 420 c 1
 67 420 l 1
 85 535 208 620 348 620 c 0
 476 620 570 557 570 451 c 0
 570 441 569 431 567 420 c 2
 521 130 l 2
 507 41 440 -10 329 -10 c 0
 230 -10 195 33 195 82 c 0
 195 88 195 94 196 100 c 0
 200 126 210 145 222 161 c 1
EndSplineSet
Layer: 3
SplineSet
207 295 m 0
 179 295 153 273 149 245 c 0
 149 242 148 239 148 237 c 0
 148 213 166 195 191 195 c 0
 219 195 245 217 249 245 c 0
 249 248 250 251 250 253 c 0
 250 277 232 295 207 295 c 0
217 360 m 0
 288 360 326 318 326 267 c 0
 326 262 326 256 325 250 c 0
 315 186 286 163 281 130 c 0
 281 127 280 125 280 122 c 0
 280 95 302 80 333 80 c 0
 369 80 396 99 401 130 c 2
 442 390 l 2
 443 396 444 403 444 409 c 0
 444 462 404 500 329 500 c 0
 245 500 192 450 182 390 c 1
 32 390 l 1
 50 504 160 620 348 620 c 0
 518 620 595 526 595 423 c 0
 595 412 594 401 592 390 c 2
 552 140 l 2
 538 51 451 -10 318 -10 c 0
 207 -10 155 30 155 85 c 0
 155 90 155 95 156 100 c 0
 158 114 162 126 168 136 c 1
 113 141 73 173 73 227 c 0
 73 233 73 239 74 245 c 0
 85 315 149 360 217 360 c 0
EndSplineSet
Colour: ff00ff
EndChar

StartChar: uni0E22
Encoding: 441 3618 90
Width: 710
VWidth: 0
GlyphClass: 2
Flags: HMW
LayerCount: 4
Layer: 2
SplineSet
272 455 m 0
 300 455 326 477 330 505 c 0
 330 508 331 511 331 513 c 0
 331 537 313 555 288 555 c 0
 260 555 234 533 230 505 c 0
 230 502 229 499 229 497 c 0
 229 473 247 455 272 455 c 0
263 400 m 0
 209 400 174 440 174 492 c 1
 168 481 164 467 161 450 c 0
 160 445 160 441 160 436 c 0
 160 367 240 315 335 315 c 1
 325 255 l 1
 239 255 149 245 139 180 c 0
 138 174 138 169 138 163 c 0
 138 101 193 55 294 55 c 0
 404 55 478 109 489 180 c 2
 555 600 l 1
 645 600 l 1
 579 180 l 2
 559 55 427 -20 282 -20 c 0
 148 -20 47 53 47 155 c 0
 47 163 48 171 49 180 c 0
 59 244 111 278 176 297 c 1
 125 328 89 375 89 430 c 0
 89 437 90 443 91 450 c 0
 106 547 193 610 297 610 c 0
 351 610 391 574 391 522 c 0
 391 516 391 511 390 505 c 0
 380 444 323 400 263 400 c 0
EndSplineSet
Layer: 3
SplineSet
260 445 m 0
 288 445 314 467 318 495 c 0
 318 498 319 501 319 503 c 0
 319 527 301 545 276 545 c 0
 248 545 222 523 218 495 c 0
 218 492 217 489 217 487 c 0
 217 463 235 445 260 445 c 0
250 380 m 0
 201 380 169 415 158 454 c 1
 156 450 156 445 155 440 c 0
 154 435 154 431 154 427 c 0
 154 365 227 325 336 325 c 1
 325 255 l 1
 231 255 177 230 169 180 c 0
 169 176 168 173 168 170 c 0
 168 119 224 90 299 90 c 0
 379 90 452 139 463 210 c 2
 525 600 l 1
 675 600 l 1
 613 210 l 2
 593 85 475 -20 282 -20 c 0
 103 -20 18 74 18 160 c 0
 18 167 18 174 19 180 c 0
 28 237 65 277 135 300 c 1
 89 327 58 367 58 418 c 0
 58 425 59 432 60 440 c 0
 79 558 182 610 287 610 c 0
 349 610 395 573 395 514 c 0
 395 508 394 502 393 495 c 0
 382 425 318 380 250 380 c 0
EndSplineSet
Colour: ff0000
EndChar

StartChar: uni0E04
Encoding: 411 3588 91
Width: 700
VWidth: 0
GlyphClass: 2
Flags: HMW
LayerCount: 4
Layer: 2
SplineSet
334 310 m 0
 309 310 286 290 282 265 c 0
 282 263 281 260 281 258 c 0
 281 236 297 220 320 220 c 0
 345 220 368 240 372 265 c 0
 372 267 373 270 373 272 c 0
 373 294 357 310 334 310 c 0
550 0 m 1
 460 0 l 1
 527 420 l 2
 528 426 528 431 528 437 c 0
 528 499 472 545 371 545 c 0
 261 545 188 491 177 420 c 0
 175 408 174 396 174 386 c 0
 174 360 180 340 188 326 c 1
 236 348 292 360 342 360 c 0
 392 360 428 328 428 281 c 0
 428 276 428 270 427 265 c 0
 418 210 367 170 312 170 c 0
 262 170 226 202 226 249 c 0
 226 254 226 260 227 265 c 0
 228 271 230 277 232 282 c 1
 186 265 141 228 132 170 c 0
 131 164 131 158 131 152 c 0
 131 77 213 65 260 65 c 1
 248 -10 l 1
 121 -10 45 51 45 142 c 0
 45 151 45 160 47 170 c 0
 54 217 83 257 123 288 c 1
 103 309 85 343 85 390 c 0
 85 400 85 409 87 420 c 0
 105 535 238 620 383 620 c 0
 516 620 619 557 619 449 c 0
 619 440 619 430 617 420 c 2
 550 0 l 1
EndSplineSet
Layer: 3
SplineSet
328 305 m 0
 303 305 280 285 276 260 c 0
 276 258 275 255 275 253 c 0
 275 231 291 215 314 215 c 0
 339 215 362 235 366 260 c 0
 366 262 367 265 367 267 c 0
 367 289 351 305 328 305 c 0
580 0 m 1
 430 0 l 1
 492 390 l 2
 493 396 493 401 493 407 c 0
 493 469 439 510 366 510 c 0
 286 510 213 461 202 390 c 0
 200 381 200 373 200 365 c 0
 200 357 200 350 202 344 c 1
 245 355 292 360 337 360 c 0
 392 360 432 325 432 275 c 0
 432 270 432 265 431 260 c 0
 422 202 366 160 305 160 c 0
 250 160 210 195 210 245 c 0
 210 249 210 254 211 259 c 1
 182 249 156 227 150 190 c 0
 149 184 149 179 149 174 c 0
 149 128 185 100 266 100 c 1
 248 -10 l 1
 116 -10 17 42 17 150 c 0
 17 160 17 169 19 180 c 0
 27 229 53 266 90 294 c 1
 74 313 61 340 61 372 c 0
 61 378 61 384 62 390 c 0
 82 515 204 620 383 620 c 0
 558 620 645 534 645 425 c 0
 645 414 644 402 642 390 c 2
 580 0 l 1
EndSplineSet
Colour: ffff00
EndChar

StartChar: uni0E46
Encoding: 473 3654 93
Width: 690
VWidth: 0
GlyphClass: 2
Flags: HMW
LayerCount: 4
Layer: 2
SplineSet
259 405 m 0
 231 405 205 383 201 355 c 0
 201 352 200 349 200 347 c 0
 200 323 218 305 243 305 c 0
 271 305 297 327 301 355 c 0
 301 358 302 361 302 363 c 0
 302 387 284 405 259 405 c 0
267 455 m 0
 321 455 362 423 362 372 c 0
 362 367 362 361 361 355 c 0
 351 294 295 250 235 250 c 0
 140 250 94 314 94 389 c 0
 94 399 95 410 97 420 c 0
 119 560 230 620 258 620 c 1
 356 540 l 1
 478 620 l 1
 503 620 580 572 580 461 c 0
 580 448 579 435 577 420 c 2
 499 -70 l 2
 477 -206 358 -260 234 -260 c 0
 121 -260 26 -215 26 -105 c 0
 26 -94 27 -82 29 -70 c 1
 119 -70 l 1
 118 -76 118 -82 118 -88 c 0
 118 -144 161 -185 246 -185 c 0
 340 -185 399 -135 409 -70 c 2
 487 420 l 2
 489 432 490 443 490 454 c 0
 490 492 478 522 460 535 c 1
 344 465 l 1
 246 541 l 1
 217 523 181 474 172 420 c 0
 171 411 170 403 170 396 c 1
 191 430 227 455 267 455 c 0
EndSplineSet
Layer: 3
SplineSet
223 365 m 0
 195 365 169 343 165 315 c 0
 165 312 164 309 164 307 c 0
 164 283 182 265 207 265 c 0
 235 265 261 287 265 315 c 0
 265 318 266 321 266 323 c 0
 266 347 248 365 223 365 c 0
233 430 m 0
 295 430 342 393 342 334 c 0
 342 328 341 322 340 315 c 0
 329 245 265 200 197 200 c 0
 120 200 59 260 59 353 c 0
 59 365 60 377 62 390 c 0
 89 560 230 620 273 620 c 1
 356 540 l 1
 463 620 l 1
 502 620 606 572 606 437 c 0
 606 423 605 407 602 390 c 2
 532 -50 l 2
 514 -165 421 -260 229 -260 c 0
 56 -260 -2 -164 -2 -85 c 0
 -2 -76 -1 -68 0 -60 c 1
 140 -60 l 1
 139 -65 139 -71 139 -76 c 0
 139 -126 183 -150 246 -150 c 0
 315 -150 372 -113 382 -50 c 2
 452 390 l 2
 456 413 458 433 458 451 c 0
 458 475 454 495 441 510 c 1
 340 440 l 1
 251 510 l 1
 219 490 200 460 189 422 c 1
 203 427 217 430 233 430 c 0
EndSplineSet
Colour: ff00ff
EndChar

StartChar: uni0E2F
Encoding: 454 3631 94
Width: 590
VWidth: 0
GlyphClass: 2
Flags: HMW
LayerCount: 4
Layer: 2
SplineSet
168 555 m 0
 140 555 114 533 110 505 c 0
 110 502 109 499 109 497 c 0
 109 473 127 455 152 455 c 0
 180 455 206 477 210 505 c 0
 210 508 211 511 211 513 c 0
 211 537 193 555 168 555 c 0
143 400 m 0
 89 400 49 436 49 488 c 0
 49 494 49 499 50 505 c 0
 60 566 117 610 177 610 c 0
 231 610 272 574 272 522 c 0
 272 518 271 515 271 511 c 1
 318 554 367 600 425 600 c 0
 473 600 518 567 518 504 c 0
 518 496 517 489 516 480 c 2
 457 110 l 2
 446 38 404 -10 328 -10 c 0
 286 -10 259 6 242 15 c 1
 276 70 l 1
 285 65 305 55 324 55 c 0
 351 55 363 83 369 120 c 2
 423 460 l 2
 424 467 425 474 425 480 c 0
 425 509 413 525 383 525 c 0
 322 525 259 400 143 400 c 0
EndSplineSet
Layer: 3
SplineSet
161 545 m 0
 133 545 107 523 103 495 c 0
 103 492 102 489 102 487 c 0
 102 463 120 445 145 445 c 0
 173 445 199 467 203 495 c 0
 203 498 204 501 204 503 c 0
 204 527 186 545 161 545 c 0
455 600 m 0
 513 600 538 567 538 511 c 0
 538 498 536 485 534 470 c 2
 479 120 l 2
 467 42 411 -10 323 -10 c 0
 266 -10 232 4 212 15 c 1
 248 85 l 1
 248 85 268 76 289 76 c 0
 306 76 323 83 329 120 c 2
 377 420 l 2
 379 431 379 440 379 448 c 0
 379 470 373 480 356 480 c 0
 322 480 245 380 135 380 c 0
 73 380 26 417 26 476 c 0
 26 482 27 488 28 495 c 0
 39 565 104 610 172 610 c 0
 233 610 279 573 279 514 c 0
 279 512 279 510 279 507 c 1
 330 548 395 600 455 600 c 0
EndSplineSet
Colour: ff00ff
EndChar

StartChar: uni0E30
Encoding: 455 3632 95
Width: 600
VWidth: 0
GlyphClass: 2
Flags: HMW
LayerCount: 4
Layer: 2
SplineSet
196 540 m 0
 171 540 147 520 143 495 c 0
 143 493 142 490 142 488 c 0
 142 466 158 450 181 450 c 0
 206 450 229 470 233 495 c 0
 233 498 234 501 234 503 c 0
 234 524 218 540 196 540 c 0
203 590 m 0
 253 590 289 558 289 511 c 0
 289 506 289 500 288 495 c 0
 285 477 276 462 264 450 c 1
 361 450 l 2
 415 450 445 473 457 550 c 1
 547 550 l 1
 526 420 452 380 350 380 c 2
 220 380 l 2
 124 380 86 424 86 476 c 0
 86 482 87 488 88 495 c 0
 97 551 148 590 203 590 c 0
142 200 m 0
 117 200 94 180 90 155 c 0
 90 152 89 149 89 147 c 0
 89 126 105 110 127 110 c 0
 152 110 176 130 180 155 c 0
 180 157 181 160 181 162 c 0
 181 184 165 200 142 200 c 0
150 250 m 0
 200 250 236 218 236 171 c 0
 236 166 236 160 235 155 c 0
 232 137 222 122 210 110 c 1
 307 110 l 2
 361 110 391 133 403 210 c 1
 493 210 l 1
 472 80 398 40 296 40 c 2
 166 40 l 2
 70 40 33 83 33 135 c 0
 33 142 34 148 35 155 c 0
 44 211 95 250 150 250 c 0
EndSplineSet
Layer: 3
SplineSet
122 200 m 0
 100 200 78 182 75 160 c 0
 75 158 75 156 75 154 c 0
 75 135 89 120 109 120 c 0
 131 120 152 138 155 160 c 0
 155 162 155 164 155 166 c 0
 155 185 142 200 122 200 c 0
131 260 m 0
 186 260 221 223 221 176 c 0
 221 171 221 166 220 160 c 0
 218 149 215 138 210 128 c 1
 221 132 231 135 241 135 c 2
 311 135 l 2
 365 135 394 153 406 230 c 1
 526 230 l 1
 505 100 428 40 326 40 c 2
 136 40 l 2
 40 40 3 87 3 140 c 0
 3 147 4 153 5 160 c 0
 14 215 70 260 131 260 c 0
176 540 m 0
 154 540 132 522 129 500 c 0
 129 498 129 496 129 494 c 0
 129 475 143 460 163 460 c 0
 185 460 206 478 209 500 c 0
 209 502 209 504 209 506 c 0
 209 525 196 540 176 540 c 0
185 600 m 0
 240 600 275 563 275 516 c 0
 275 511 275 506 274 500 c 0
 272 489 269 478 264 468 c 1
 275 472 285 475 295 475 c 2
 365 475 l 2
 419 475 448 493 460 570 c 1
 580 570 l 1
 559 440 482 380 380 380 c 2
 190 380 l 2
 94 380 57 427 57 480 c 0
 57 487 58 493 59 500 c 0
 68 555 124 600 185 600 c 0
EndSplineSet
Colour: ff00ff
EndChar

StartChar: uni0E31
Encoding: 456 3633 96
Width: 0
VWidth: 0
GlyphClass: 4
Flags: HMW
LayerCount: 4
Layer: 2
SplineSet
-400 760 m 0
 -378 760 -356 778 -353 800 c 0
 -353 802 -353 804 -353 806 c 0
 -353 825 -367 840 -387 840 c 0
 -409 840 -430 822 -433 800 c 0
 -433 798 -433 796 -433 794 c 0
 -433 775 -420 760 -400 760 c 0
-321 765 m 1
 -229 765 l 2
 -165 765 -144 798 -134 860 c 1
 -54 860 l 1
 -72 745 -144 700 -229 700 c 2
 -359 700 l 2
 -445 700 -485 732 -485 782 c 0
 -485 788 -484 794 -483 800 c 0
 -475 850 -430 885 -380 885 c 0
 -335 885 -302 856 -302 814 c 0
 -302 809 -302 805 -303 800 c 0
 -305 787 -311 775 -321 765 c 1
EndSplineSet
Layer: 3
SplineSet
-406 845 m 0
 -425 845 -443 829 -446 810 c 0
 -446 808 -446 807 -446 805 c 0
 -446 788 -434 775 -417 775 c 0
 -397 775 -379 791 -376 810 c 0
 -376 812 -376 813 -376 815 c 0
 -376 832 -388 845 -406 845 c 0
-397 900 m 0
 -347 900 -315 868 -315 825 c 0
 -315 820 -315 815 -316 810 c 0
 -318 797 -322 785 -329 775 c 1
 -323 778 -316 780 -310 780 c 2
 -226 780 l 2
 -162 780 -142 808 -132 870 c 1
 -22 870 l 1
 -40 755 -113 700 -199 700 c 2
 -389 700 l 2
 -470 700 -513 741 -513 793 c 0
 -513 798 -513 804 -512 810 c 0
 -504 860 -452 900 -397 900 c 0
EndSplineSet
Colour: ff00ff
EndChar

StartChar: uni0E4D
Encoding: 480 3661 97
Width: 0
VWidth: 0
GlyphClass: 4
Flags: HMW
LayerCount: 4
Layer: 2
SplineSet
-247 900 m 0
 -184 900 -144 861 -144 808 c 0
 -144 802 -144 796 -145 790 c 0
 -155 729 -212 680 -282 680 c 0
 -345 680 -386 720 -386 773 c 0
 -386 779 -386 784 -385 790 c 0
 -375 851 -317 900 -247 900 c 0
-256 845 m 0
 -286 845 -315 820 -320 790 c 0
 -320 787 -321 784 -321 781 c 0
 -321 755 -301 735 -274 735 c 0
 -244 735 -215 760 -210 790 c 0
 -210 793 -209 796 -209 799 c 0
 -209 825 -229 845 -256 845 c 0
EndSplineSet
Layer: 3
SplineSet
-251 910 m 0
 -180 910 -133 867 -133 809 c 0
 -133 803 -134 796 -135 790 c 0
 -146 723 -210 670 -289 670 c 0
 -360 670 -407 713 -407 771 c 0
 -407 777 -406 784 -405 790 c 0
 -394 857 -330 910 -251 910 c 0
-262 840 m 0
 -290 840 -316 818 -320 790 c 0
 -320 787 -321 784 -321 782 c 0
 -321 758 -303 740 -278 740 c 0
 -250 740 -224 762 -220 790 c 0
 -220 793 -219 796 -219 798 c 0
 -219 822 -237 840 -262 840 c 0
EndSplineSet
Colour: ff00ff
EndChar

StartChar: uni0E33
Encoding: 458 3635 98
Width: 540
VWidth: 0
GlyphClass: 2
Flags: HMW
LayerCount: 4
Layer: 2
SplineSet
-247 900 m 0
 -184 900 -144 861 -144 808 c 0
 -144 802 -144 796 -145 790 c 0
 -155 729 -212 680 -282 680 c 0
 -345 680 -386 720 -386 773 c 0
 -386 779 -386 784 -385 790 c 0
 -375 851 -317 900 -247 900 c 0
-256 845 m 0
 -286 845 -315 820 -320 790 c 0
 -320 787 -321 784 -321 781 c 0
 -321 755 -301 735 -274 735 c 0
 -244 735 -215 760 -210 790 c 0
 -210 793 -209 796 -209 799 c 0
 -209 825 -229 845 -256 845 c 0
175 475 m 0
 147 475 121 453 117 425 c 0
 117 422 116 419 116 417 c 0
 116 393 134 375 159 375 c 0
 187 375 213 397 217 425 c 0
 217 428 218 431 218 433 c 0
 218 457 200 475 175 475 c 0
390 0 m 1
 300 0 l 1
 365 410 l 2
 367 423 368 436 368 447 c 0
 368 513 331 540 271 540 c 0
 240 540 212 534 191 525 c 1
 242 521 278 490 278 441 c 0
 278 436 278 431 277 425 c 0
 267 364 211 320 151 320 c 0
 97 320 56 356 56 408 c 0
 56 414 56 419 57 425 c 0
 75 536 172 610 282 610 c 0
 380 610 458 564 458 453 c 0
 458 440 457 425 455 410 c 2
 390 0 l 1
EndSplineSet
Layer: 3
SplineSet
-251 910 m 0
 -180 910 -133 867 -133 809 c 0
 -133 803 -134 796 -135 790 c 0
 -146 723 -210 670 -289 670 c 0
 -360 670 -407 713 -407 771 c 0
 -407 777 -406 784 -405 790 c 0
 -394 857 -330 910 -251 910 c 0
-262 840 m 0
 -290 840 -316 818 -320 790 c 0
 -320 787 -321 784 -321 782 c 0
 -321 758 -303 740 -278 740 c 0
 -250 740 -224 762 -220 790 c 0
 -220 793 -219 796 -219 798 c 0
 -219 822 -237 840 -262 840 c 0
165 445 m 0
 137 445 112 423 108 395 c 0
 108 392 107 389 107 387 c 0
 107 363 125 345 150 345 c 0
 178 345 204 367 208 395 c 0
 208 398 209 400 209 402 c 0
 209 426 190 445 165 445 c 0
260 0 m 9
 325 410 l 2
 327 420 327 429 327 438 c 0
 327 501 287 520 237 520 c 0
 212 520 190 512 172 500 c 1
 232 497 284 467 284 411 c 0
 284 406 284 401 283 395 c 0
 272 325 207 280 139 280 c 0
 77 280 31 317 31 376 c 0
 31 382 32 388 33 395 c 0
 52 517 157 610 287 610 c 0
 391 610 476 548 476 437 c 0
 476 425 475 413 473 400 c 2
 410 0 l 17
 260 0 l 9
EndSplineSet
Colour: ff00ff
EndChar

StartChar: uni0E48
Encoding: 475 3656 99
Width: 0
VWidth: 0
GlyphClass: 4
Flags: HMW
LayerCount: 4
Layer: 2
SplineSet
-248 1150 m 1
 -168 1150 l 1
 -196 970 l 1
 -276 970 l 1
 -248 1150 l 1
EndSplineSet
Layer: 3
SplineSet
-258 1180 m 1
 -148 1180 l 1
 -183 960 l 1
 -293 960 l 1
 -258 1180 l 1
EndSplineSet
Colour: ff00ff
EndChar

StartChar: uni0E49
Encoding: 476 3657 100
Width: 0
VWidth: 0
GlyphClass: 4
Flags: HMW
LayerCount: 4
Layer: 2
SplineSet
-290 1135 m 0
 -307 1135 -322 1122 -325 1105 c 0
 -325 1103 -325 1102 -325 1100 c 0
 -325 1086 -315 1075 -300 1075 c 0
 -283 1075 -268 1088 -265 1105 c 0
 -265 1107 -265 1108 -265 1110 c 0
 -265 1124 -275 1135 -290 1135 c 0
-396 970 m 1
 -389 1015 l 1
 -379 1015 l 2
 -357 1015 -328 1025 -311 1040 c 1
 -343 1043 -366 1063 -366 1094 c 0
 -366 1098 -366 1101 -365 1105 c 0
 -359 1144 -324 1170 -285 1170 c 0
 -250 1170 -224 1149 -224 1116 c 0
 -224 1113 -224 1109 -225 1105 c 0
 -230 1071 -249 1044 -267 1025 c 1
 -188 1025 l 2
 -134 1025 -98 1055 -86 1130 c 1
 -11 1130 l 1
 -29 1015 -103 970 -196 970 c 2
 -396 970 l 1
EndSplineSet
Layer: 3
SplineSet
-300 1135 m 0
 -317 1135 -332 1122 -335 1105 c 0
 -335 1103 -335 1102 -335 1100 c 0
 -335 1086 -325 1075 -310 1075 c 0
 -293 1075 -278 1088 -275 1105 c 0
 -275 1107 -275 1108 -275 1110 c 0
 -275 1124 -285 1135 -300 1135 c 0
-418 960 m 1
 -409 1015 l 1
 -369 1015 l 2
 -351 1015 -332 1023 -318 1035 c 1
 -357 1036 -386 1060 -386 1095 c 0
 -386 1098 -386 1101 -385 1105 c 0
 -379 1146 -337 1180 -293 1180 c 0
 -253 1180 -224 1151 -224 1115 c 0
 -224 1112 -224 1109 -225 1105 c 0
 -231 1069 -251 1042 -269 1025 c 1
 -198 1025 l 2
 -144 1025 -106 1065 -94 1140 c 1
 11 1140 l 1
 -7 1025 -85 960 -178 960 c 2
 -418 960 l 1
EndSplineSet
Colour: ff00ff
EndChar

StartChar: uni0E4A
Encoding: 477 3658 101
Width: 0
VWidth: 0
GlyphClass: 4
Flags: HMW
LayerCount: 4
Layer: 2
SplineSet
-317 1000 m 0
 -303 1000 -290 1011 -288 1025 c 0
 -286 1039 -295 1050 -309 1050 c 0
 -323 1050 -336 1039 -338 1025 c 0
 -340 1011 -331 1000 -317 1000 c 0
-290 1170 m 1
 -232 1125 l 1
 -160 1170 l 1
 -144 1170 -85 1147 -85 1080 c 0
 -85 1074 -86 1067 -87 1060 c 0
 -89 1049 -94 1039 -99 1030 c 1
 -64 1040 -57 1064 -51 1100 c 1
 14 1100 l 1
 2 1024 -25 980 -165 980 c 2
 -205 980 l 1
 -180 998 -152 1028 -147 1060 c 0
 -146 1065 -146 1069 -146 1073 c 0
 -146 1097 -157 1115 -168 1120 c 1
 -239 1080 l 1
 -298 1120 l 1
 -313 1115 -334 1099 -341 1066 c 1
 -331 1074 -318 1080 -304 1080 c 0
 -274 1080 -252 1062 -252 1034 c 0
 -252 1031 -253 1028 -253 1025 c 0
 -258 992 -288 970 -321 970 c 0
 -379 970 -403 1012 -403 1048 c 0
 -403 1052 -403 1056 -402 1060 c 0
 -389 1142 -308 1170 -290 1170 c 1
EndSplineSet
Layer: 3
SplineSet
-329 1046 m 0
 -343 1046 -356 1034 -358 1020 c 0
 -360 1007 -351 996 -337 996 c 0
 -322 996 -308 1008 -308 1024 c 0
 -308 1036 -316 1046 -329 1046 c 0
-324 1080 m 0
 -291 1080 -267 1059 -267 1029 c 0
 -267 1026 -268 1023 -268 1020 c 0
 -273 987 -307 960 -343 960 c 0
 -396 960 -423 999 -423 1043 c 0
 -423 1049 -423 1054 -422 1060 c 0
 -409 1143 -317 1176 -299 1176 c 1
 -241 1130 l 1
 -169 1176 l 1
 -153 1176 -86 1148 -86 1078 c 0
 -86 1072 -86 1066 -87 1060 c 0
 -88 1055 -90 1049 -92 1043 c 1
 -68 1056 -59 1080 -54 1110 c 1
 36 1110 l 1
 24 1034 -26 970 -166 970 c 2
 -206 970 l 1
 -185 990 -163 1024 -158 1056 c 0
 -157 1062 -156 1068 -156 1073 c 0
 -156 1093 -163 1107 -173 1116 c 1
 -251 1070 l 1
 -313 1116 l 1
 -325 1109 -340 1095 -348 1076 c 1
 -341 1079 -333 1080 -324 1080 c 0
EndSplineSet
Colour: ff00ff
EndChar

StartChar: uni0E4B
Encoding: 478 3659 102
Width: 0
VWidth: 0
GlyphClass: 4
Flags: HMW
LayerCount: 4
Layer: 2
SplineSet
-248 1150 m 1
 -168 1150 l 1
 -177 1090 l 1
 -87 1090 l 1
 -97 1030 l 1
 -187 1030 l 1
 -196 970 l 1
 -276 970 l 1
 -267 1030 l 1
 -357 1030 l 1
 -347 1090 l 1
 -257 1090 l 1
 -248 1150 l 1
EndSplineSet
Layer: 3
SplineSet
-249 1180 m 1
 -149 1180 l 1
 -161 1105 l 1
 -55 1105 l 1
 -66 1035 l 1
 -172 1035 l 1
 -184 960 l 1
 -284 960 l 1
 -272 1035 l 1
 -376 1035 l 1
 -365 1105 l 1
 -261 1105 l 1
 -249 1180 l 1
EndSplineSet
Colour: ff00ff
EndChar

StartChar: uni0E4C
Encoding: 479 3660 103
Width: 0
VWidth: 0
GlyphClass: 4
Flags: HMW
LayerCount: 4
Layer: 2
SplineSet
-241 1065 m 0
 -263 1065 -285 1047 -288 1025 c 0
 -288 1023 -288 1021 -288 1019 c 0
 -288 1000 -274 985 -254 985 c 0
 -232 985 -211 1003 -208 1025 c 0
 -208 1027 -208 1029 -208 1031 c 0
 -208 1050 -221 1065 -241 1065 c 0
-338 1025 m 0
 -328 1085 -274 1125 -202 1125 c 2
 -142 1125 l 2
 -78 1125 -57 1158 -47 1220 c 1
 33 1220 l 1
 15 1105 -57 1060 -142 1060 c 2
 -164 1060 l 1
 -158 1050 -156 1038 -158 1025 c 0
 -166 975 -211 940 -261 940 c 0
 -306 940 -339 969 -339 1011 c 0
 -339 1016 -339 1020 -338 1025 c 0
EndSplineSet
Layer: 3
SplineSet
-272 996 m 0
 -253 996 -235 1011 -232 1030 c 0
 -232 1032 -232 1034 -232 1036 c 0
 -232 1053 -244 1066 -261 1066 c 0
 -280 1066 -299 1050 -302 1030 c 0
 -302 1028 -302 1027 -302 1025 c 0
 -302 1008 -289 996 -272 996 c 0
-171 1050 m 1
 -171 1044 -171 1038 -172 1030 c 0
 -180 981 -226 940 -281 940 c 0
 -331 940 -368 974 -368 1017 c 0
 -368 1021 -368 1026 -367 1030 c 0
 -357 1090 -303 1130 -231 1130 c 2
 -161 1130 l 2
 -97 1130 -75 1168 -65 1230 c 1
 45 1230 l 1
 27 1116 -37 1050 -144 1050 c 2
 -171 1050 l 1
EndSplineSet
Colour: ff00ff
EndChar

StartChar: uni0E34
Encoding: 459 3636 104
Width: 0
VWidth: 0
GlyphClass: 4
Flags: HMW
LayerCount: 4
Layer: 2
SplineSet
-337 900 m 2
 -257 900 l 1
 -177 900 l 2
 -106 900 -64 864 -64 804 c 0
 -64 796 -65 788 -66 780 c 0
 -71 751 -102 701 -131 690 c 1
 -211 690 l 1
 -186 708 -151 748 -146 780 c 0
 -145 786 -145 792 -145 797 c 0
 -145 823 -157 840 -207 840 c 2
 -267 840 l 1
 -327 840 l 2
 -387 840 -401 814 -406 780 c 0
 -407 777 -407 773 -407 770 c 0
 -407 740 -388 706 -371 690 c 1
 -451 690 l 1
 -473 700 -487 739 -487 768 c 0
 -487 772 -487 776 -486 780 c 0
 -474 854 -417 900 -337 900 c 2
EndSplineSet
Layer: 3
SplineSet
-365 915 m 2
 -255 915 l 1
 -145 915 l 2
 -74 915 -33 875 -33 814 c 0
 -33 806 -34 798 -35 790 c 0
 -41 751 -82 701 -111 690 c 1
 -211 690 l 1
 -186 708 -151 748 -146 780 c 0
 -145 786 -145 792 -145 797 c 0
 -145 823 -157 840 -207 840 c 2
 -267 840 l 1
 -327 840 l 2
 -387 840 -401 814 -406 780 c 0
 -407 777 -407 773 -407 770 c 0
 -407 740 -388 706 -371 690 c 1
 -471 690 l 1
 -493 700 -516 741 -516 778 c 0
 -516 782 -516 786 -515 790 c 0
 -503 864 -445 915 -365 915 c 2
EndSplineSet
Colour: ff00ff
EndChar

StartChar: uni0E35
Encoding: 460 3637 105
Width: 0
VWidth: 0
GlyphClass: 4
Flags: HMW
LayerCount: 4
Layer: 2
SplineSet
-367 900 m 2
 -297 900 l 1
 -227 900 l 2
 -158 900 -124 865 -124 808 c 0
 -124 799 -124 790 -126 780 c 0
 -128 768 -135 756 -144 745 c 1
 18 745 l 1
 9 690 l 1
 -301 690 l 1
 -292 745 l 1
 -208 745 l 1
 -199 756 -193 768 -191 780 c 0
 -190 785 -190 789 -190 793 c 0
 -190 820 -205 840 -257 840 c 2
 -307 840 l 1
 -357 840 l 2
 -417 840 -431 814 -436 780 c 0
 -437 777 -437 773 -437 770 c 0
 -437 740 -418 706 -401 690 c 1
 -481 690 l 1
 -503 700 -517 739 -517 768 c 0
 -517 772 -517 776 -516 780 c 0
 -504 854 -447 900 -367 900 c 2
EndSplineSet
Layer: 3
SplineSet
39 690 m 1
 -271 690 l 1
 -260 760 l 1
 -183 760 l 1
 -180 767 -177 773 -176 780 c 0
 -175 786 -175 792 -175 797 c 0
 -175 823 -187 840 -237 840 c 2
 -297 840 l 1
 -357 840 l 2
 -417 840 -431 814 -436 780 c 0
 -437 777 -437 773 -437 770 c 0
 -437 740 -418 706 -401 690 c 1
 -501 690 l 1
 -523 700 -546 741 -546 778 c 0
 -546 782 -546 786 -545 790 c 0
 -533 864 -475 915 -395 915 c 2
 -285 915 l 1
 -205 915 l 2
 -134 915 -94 867 -94 805 c 0
 -94 797 -95 789 -96 780 c 0
 -97 774 -100 767 -103 760 c 1
 50 760 l 1
 39 690 l 1
EndSplineSet
Colour: ff00ff
EndChar

StartChar: uni0E36
Encoding: 461 3638 106
Width: 0
VWidth: 0
GlyphClass: 4
Flags: HMW
LayerCount: 4
Layer: 2
SplineSet
-337 900 m 2
 -257 900 l 1
 -177 900 l 2
 -106 900 -64 864 -64 804 c 0
 -64 796 -65 788 -66 780 c 0
 -71 751 -102 701 -131 690 c 1
 -201 690 l 1
 -176 708 -141 748 -136 780 c 0
 -135 786 -135 792 -135 797 c 0
 -135 823 -147 840 -197 840 c 2
 -267 840 l 1
 -337 840 l 2
 -397 840 -411 814 -416 780 c 0
 -417 777 -417 773 -417 770 c 0
 -417 740 -398 706 -381 690 c 1
 -451 690 l 1
 -473 700 -487 739 -487 768 c 0
 -487 772 -487 776 -486 780 c 0
 -474 854 -417 900 -337 900 c 2
-233 740 m 0
 -237 712 -263 690 -291 690 c 0
 -316 690 -334 708 -334 732 c 0
 -334 734 -333 737 -333 740 c 0
 -329 768 -303 790 -275 790 c 0
 -250 790 -232 772 -232 748 c 0
 -232 746 -233 743 -233 740 c 0
EndSplineSet
Layer: 3
SplineSet
-223 740 m 0
 -228 706 -258 680 -292 680 c 0
 -323 680 -344 702 -344 731 c 0
 -344 734 -343 737 -343 740 c 0
 -338 774 -307 800 -273 800 c 0
 -242 800 -222 779 -222 750 c 0
 -222 747 -223 743 -223 740 c 0
-365 915 m 2
 -255 915 l 1
 -145 915 l 2
 -74 915 -33 875 -33 814 c 0
 -33 806 -34 798 -35 790 c 0
 -41 751 -82 701 -111 690 c 1
 -211 690 l 1
 -186 708 -151 748 -146 780 c 0
 -145 786 -145 792 -145 797 c 0
 -145 823 -157 840 -207 840 c 2
 -267 840 l 1
 -327 840 l 2
 -387 840 -401 814 -406 780 c 0
 -407 777 -407 773 -407 770 c 0
 -407 740 -388 706 -371 690 c 1
 -471 690 l 1
 -493 700 -516 741 -516 778 c 0
 -516 782 -516 786 -515 790 c 0
 -503 864 -445 915 -365 915 c 2
EndSplineSet
Colour: ff00ff
EndChar

StartChar: uni0E37
Encoding: 462 3639 107
Width: 0
VWidth: 0
GlyphClass: 4
Flags: HMW
LayerCount: 4
Layer: 2
SplineSet
-367 900 m 2
 -297 900 l 1
 -227 900 l 2
 -158 900 -124 865 -124 808 c 0
 -124 799 -124 790 -126 780 c 0
 -128 768 -135 756 -144 745 c 1
 18 745 l 1
 9 690 l 1
 -251 690 l 1
 -226 708 -186 748 -181 780 c 0
 -180 785 -180 789 -180 793 c 0
 -180 820 -195 840 -247 840 c 2
 -307 840 l 1
 -367 840 l 2
 -427 840 -441 814 -446 780 c 0
 -447 777 -447 773 -447 770 c 0
 -447 740 -428 706 -411 690 c 1
 -481 690 l 1
 -503 700 -517 739 -517 768 c 0
 -517 772 -517 776 -516 780 c 0
 -504 854 -447 900 -367 900 c 2
-273 740 m 0
 -277 712 -303 690 -331 690 c 0
 -356 690 -374 708 -374 732 c 0
 -374 734 -373 737 -373 740 c 0
 -369 768 -343 790 -315 790 c 0
 -290 790 -272 772 -272 748 c 0
 -272 746 -273 743 -273 740 c 0
EndSplineSet
Layer: 3
SplineSet
-253 740 m 0
 -258 706 -288 680 -322 680 c 0
 -353 680 -374 702 -374 731 c 0
 -374 734 -373 737 -373 740 c 0
 -368 774 -337 800 -303 800 c 0
 -272 800 -252 779 -252 750 c 0
 -252 747 -253 743 -253 740 c 0
-297 840 m 1
 -357 840 l 2
 -417 840 -431 814 -436 780 c 0
 -437 777 -437 773 -437 770 c 0
 -437 740 -418 706 -401 690 c 1
 -501 690 l 1
 -523 700 -546 741 -546 778 c 0
 -546 782 -546 786 -545 790 c 0
 -533 864 -475 915 -395 915 c 2
 -285 915 l 1
 -205 915 l 2
 -134 915 -94 867 -94 805 c 0
 -94 797 -95 789 -96 780 c 0
 -97 774 -100 767 -103 760 c 1
 50 760 l 1
 39 690 l 1
 -241 690 l 1
 -216 708 -181 748 -176 780 c 0
 -175 786 -175 792 -175 797 c 0
 -175 823 -187 840 -237 840 c 2
 -297 840 l 1
EndSplineSet
Colour: ff00ff
EndChar

StartChar: uni0ED7
Encoding: 555 3799 108
Width: 710
VWidth: 0
GlyphClass: 2
Flags: HMW
LayerCount: 4
Layer: 2
SplineSet
178 555 m 0
 150 555 124 533 120 505 c 0
 120 502 119 499 119 497 c 0
 119 473 137 455 162 455 c 0
 190 455 216 477 220 505 c 0
 220 508 221 511 221 513 c 0
 221 537 203 555 178 555 c 0
113 145 m 0
 85 145 59 123 55 95 c 0
 55 92 54 89 54 87 c 0
 54 63 72 45 97 45 c 0
 125 45 151 67 155 95 c 0
 155 98 156 101 156 103 c 0
 156 127 138 145 113 145 c 0
281 531 m 1
 322 569 391 610 467 610 c 0
 560 610 621 560 621 463 c 0
 621 449 619 435 617 420 c 2
 512 -240 l 1
 422 -240 l 1
 527 420 l 2
 529 433 530 446 530 457 c 0
 530 505 508 535 435 535 c 0
 361 535 310 499 273 458 c 1
 215 95 l 2
 205 34 148 -10 88 -10 c 0
 34 -10 -6 26 -6 78 c 0
 -6 84 -6 89 -5 95 c 0
 5 156 62 200 122 200 c 0
 129 200 135 199 141 198 c 1
 174 402 l 1
 168 401 160 400 153 400 c 0
 99 400 59 436 59 488 c 0
 59 494 59 499 60 505 c 0
 70 566 127 610 187 610 c 0
 238 610 276 578 281 531 c 1
EndSplineSet
Layer: 3
SplineSet
181 545 m 0
 153 545 127 523 123 495 c 0
 123 492 122 489 122 487 c 0
 122 463 140 445 165 445 c 0
 193 445 219 467 223 495 c 0
 223 498 224 501 224 503 c 0
 224 527 206 545 181 545 c 0
120 155 m 0
 92 155 66 133 62 105 c 0
 62 102 61 99 61 97 c 0
 61 73 79 55 104 55 c 0
 132 55 158 77 162 105 c 0
 162 108 163 111 163 113 c 0
 163 137 145 155 120 155 c 0
134 382 m 1
 83 389 46 424 46 476 c 0
 46 482 47 488 48 495 c 0
 59 565 124 610 192 610 c 0
 251 610 297 576 300 521 c 1
 345 567 410 610 497 610 c 0
 586 610 638 563 638 461 c 0
 638 443 637 422 633 400 c 2
 532 -240 l 1
 382 -240 l 1
 483 400 l 2
 485 412 486 422 486 431 c 0
 486 480 462 500 419 500 c 0
 369 500 324 468 288 430 c 1
 268 300 l 1
 237 105 l 2
 226 35 161 -10 93 -10 c 0
 31 -10 -15 27 -15 86 c 0
 -15 92 -14 98 -13 105 c 0
 -3 167 49 210 108 218 c 1
 107 224 107 231 108 240 c 2
 118 300 l 1
 127 360 l 2
 128 369 131 376 134 382 c 1
EndSplineSet
Colour: ffff00
EndChar

StartChar: uni0E26
Encoding: 445 3622 109
Width: 710
VWidth: 0
GlyphClass: 2
Flags: HMW
AnchorPoint: "ThaiBelow2.mark" 540 0 basechar 0
LayerCount: 4
Layer: 2
SplineSet
178 555 m 0
 150 555 124 533 120 505 c 0
 120 502 119 499 119 497 c 0
 119 473 137 455 162 455 c 0
 190 455 216 477 220 505 c 0
 220 508 221 511 221 513 c 0
 221 537 203 555 178 555 c 0
113 145 m 0
 85 145 59 123 55 95 c 0
 55 92 54 89 54 87 c 0
 54 63 72 45 97 45 c 0
 125 45 151 67 155 95 c 0
 155 98 156 101 156 103 c 0
 156 127 138 145 113 145 c 0
281 531 m 1
 322 569 391 610 467 610 c 0
 560 610 621 560 621 463 c 0
 621 449 619 435 617 420 c 2
 512 -240 l 1
 422 -240 l 1
 527 420 l 2
 529 433 530 446 530 457 c 0
 530 505 508 535 435 535 c 0
 361 535 310 499 273 458 c 1
 215 95 l 2
 205 34 148 -10 88 -10 c 0
 34 -10 -6 26 -6 78 c 0
 -6 84 -6 89 -5 95 c 0
 5 156 62 200 122 200 c 0
 129 200 135 199 141 198 c 1
 174 402 l 1
 168 401 160 400 153 400 c 0
 99 400 59 436 59 488 c 0
 59 494 59 499 60 505 c 0
 70 566 127 610 187 610 c 0
 238 610 276 578 281 531 c 1
EndSplineSet
Layer: 3
SplineSet
181 545 m 0
 153 545 127 523 123 495 c 0
 123 492 122 489 122 487 c 0
 122 463 140 445 165 445 c 0
 193 445 219 467 223 495 c 0
 223 498 224 501 224 503 c 0
 224 527 206 545 181 545 c 0
120 155 m 0
 92 155 66 133 62 105 c 0
 62 102 61 99 61 97 c 0
 61 73 79 55 104 55 c 0
 132 55 158 77 162 105 c 0
 162 108 163 111 163 113 c 0
 163 137 145 155 120 155 c 0
134 382 m 1
 83 389 46 424 46 476 c 0
 46 482 47 488 48 495 c 0
 59 565 124 610 192 610 c 0
 251 610 297 576 300 521 c 1
 345 567 410 610 497 610 c 0
 586 610 638 563 638 461 c 0
 638 443 637 422 633 400 c 2
 532 -240 l 1
 382 -240 l 1
 483 400 l 2
 485 412 486 422 486 431 c 0
 486 480 462 500 419 500 c 0
 369 500 324 468 288 430 c 1
 268 300 l 1
 237 105 l 2
 226 35 161 -10 93 -10 c 0
 31 -10 -15 27 -15 86 c 0
 -15 92 -14 98 -13 105 c 0
 -3 167 49 210 108 218 c 1
 107 224 107 231 108 240 c 2
 118 300 l 1
 127 360 l 2
 128 369 131 376 134 382 c 1
EndSplineSet
Colour: ff00ff
EndChar

StartChar: uni0E38
Encoding: 463 3640 110
Width: 0
VWidth: 0
GlyphClass: 4
Flags: HMW
AnchorPoint: "ThaiBelow2.mark" -120 0 mark 0
LayerCount: 4
Layer: 2
SplineSet
-407 -105 m 0
 -429 -105 -450 -123 -453 -145 c 0
 -453 -147 -453 -149 -453 -151 c 0
 -453 -170 -439 -185 -419 -185 c 0
 -397 -185 -376 -167 -373 -145 c 0
 -373 -143 -373 -141 -373 -139 c 0
 -373 -120 -387 -105 -407 -105 c 0
-447 -330 m 1
 -438 -270 l 2
 -435 -251 -425 -236 -414 -224 c 1
 -417 -225 -422 -225 -426 -225 c 0
 -471 -225 -504 -201 -504 -159 c 0
 -504 -155 -504 -150 -503 -145 c 0
 -495 -95 -450 -60 -400 -60 c 0
 -348 -60 -322 -98 -322 -134 c 0
 -322 -138 -322 -141 -323 -145 c 0
 -331 -195 -350 -222 -358 -270 c 2
 -367 -330 l 1
 -447 -330 l 1
EndSplineSet
Layer: 3
SplineSet
-472 -330 m 1
 -463 -270 l 2
 -460 -254 -451 -241 -439 -229 c 1
 -477 -225 -504 -196 -504 -158 c 0
 -504 -154 -504 -150 -503 -145 c 0
 -495 -95 -450 -60 -400 -60 c 0
 -349 -60 -312 -89 -312 -132 c 0
 -312 -136 -312 -141 -313 -145 c 0
 -321 -195 -345 -222 -353 -270 c 2
 -362 -330 l 1
 -472 -330 l 1
-407 -110 m 0
 -426 -110 -445 -126 -448 -145 c 0
 -448 -147 -448 -148 -448 -150 c 0
 -448 -167 -436 -180 -419 -180 c 0
 -400 -180 -381 -164 -378 -145 c 0
 -378 -143 -378 -142 -378 -140 c 0
 -378 -123 -390 -110 -407 -110 c 0
EndSplineSet
Colour: ff00ff
EndChar

StartChar: uni0E39
Encoding: 464 3641 111
Width: 0
VWidth: 0
GlyphClass: 4
Flags: HMW
AnchorPoint: "ThaiBelow2.mark" -60 0 mark 0
LayerCount: 4
Layer: 2
SplineSet
-497 -105 m 0
 -519 -105 -540 -123 -543 -145 c 0
 -543 -147 -543 -149 -543 -151 c 0
 -543 -170 -529 -185 -509 -185 c 0
 -487 -185 -466 -167 -463 -145 c 0
 -463 -143 -463 -141 -463 -139 c 0
 -463 -120 -477 -105 -497 -105 c 0
-508 -224 m 1
 -510 -225 -514 -225 -516 -225 c 0
 -561 -225 -594 -201 -594 -159 c 0
 -594 -155 -594 -150 -593 -145 c 0
 -585 -95 -540 -60 -490 -60 c 0
 -438 -60 -412 -98 -412 -134 c 0
 -412 -138 -412 -141 -413 -145 c 0
 -422 -202 -448 -210 -453 -240 c 0
 -453 -243 -454 -246 -454 -249 c 0
 -454 -263 -447 -270 -428 -270 c 2
 -373 -270 l 2
 -351 -270 -341 -257 -338 -240 c 2
 -311 -70 l 1
 -231 -70 l 1
 -263 -270 l 2
 -270 -313 -305 -330 -352 -330 c 2
 -467 -330 l 2
 -513 -330 -539 -315 -539 -282 c 0
 -539 -278 -539 -274 -538 -270 c 0
 -535 -250 -522 -236 -508 -224 c 1
EndSplineSet
Layer: 3
SplineSet
-507 -110 m 0
 -526 -110 -545 -126 -548 -145 c 0
 -548 -147 -548 -148 -548 -150 c 0
 -548 -167 -536 -180 -519 -180 c 0
 -500 -180 -481 -164 -478 -145 c 0
 -478 -143 -478 -142 -478 -140 c 0
 -478 -123 -490 -110 -507 -110 c 0
-550 -227 m 1
 -583 -219 -604 -194 -604 -160 c 0
 -604 -155 -604 -150 -603 -145 c 0
 -595 -95 -550 -60 -500 -60 c 0
 -447 -60 -416 -94 -416 -130 c 0
 -416 -133 -417 -137 -417 -140 c 0
 -424 -184 -451 -195 -456 -225 c 0
 -456 -227 -457 -229 -457 -231 c 0
 -457 -247 -446 -255 -425 -255 c 2
 -390 -255 l 2
 -368 -255 -359 -242 -356 -225 c 2
 -331 -70 l 1
 -221 -70 l 1
 -253 -270 l 2
 -260 -316 -305 -330 -357 -330 c 2
 -507 -330 l 2
 -553 -330 -579 -315 -579 -282 c 0
 -579 -278 -579 -274 -578 -270 c 0
 -575 -254 -564 -240 -550 -227 c 1
EndSplineSet
Colour: ff00ff
EndChar

StartChar: uni0E29
Encoding: 448 3625 112
Width: 720
VWidth: 0
GlyphClass: 2
Flags: HMW
LayerCount: 4
Layer: 2
SplineSet
519 560 m 0
 491 560 465 538 461 510 c 0
 461 507 460 504 460 502 c 0
 460 478 478 460 503 460 c 0
 531 460 557 482 561 510 c 0
 561 513 562 516 562 518 c 0
 562 542 544 560 519 560 c 0
178 555 m 0
 150 555 124 533 120 505 c 0
 120 502 119 499 119 497 c 0
 119 473 137 455 162 455 c 0
 190 455 216 477 220 505 c 0
 220 508 221 511 221 513 c 0
 221 537 203 555 178 555 c 0
187 610 m 0
 251 610 290 570 290 518 c 0
 290 512 290 506 289 500 c 0
 274 403 191 380 178 300 c 2
 157 170 l 2
 156 165 156 161 156 156 c 0
 156 98 212 55 309 55 c 0
 414 55 487 105 497 170 c 2
 533 400 l 2
 534 407 539 416 545 425 c 1
 530 416 511 410 490 410 c 0
 436 410 399 441 399 491 c 0
 399 497 400 504 401 510 c 0
 411 571 462 610 522 610 c 0
 546 610 564 602 577 591 c 1
 576 598 576 606 577 615 c 2
 585 660 l 1
 665 660 l 1
 587 170 l 2
 565 34 432 -20 297 -20 c 0
 173 -20 64 25 64 138 c 0
 64 148 65 159 67 170 c 2
 88 300 l 2
 96 353 137 379 171 406 c 1
 165 405 160 405 154 405 c 0
 100 405 59 437 59 488 c 0
 59 493 59 499 60 505 c 0
 70 566 127 610 187 610 c 0
EndSplineSet
Layer: 3
SplineSet
575 660 m 1
 695 660 l 1
 620 190 l 2
 600 65 511 -20 307 -20 c 0
 125 -20 57 55 57 153 c 0
 57 165 58 177 60 190 c 2
 73 270 l 2
 82 325 122 356 161 385 c 1
 160 385 158 385 156 385 c 0
 94 385 47 418 47 476 c 0
 47 482 47 489 48 495 c 0
 59 565 124 610 192 610 c 0
 265 610 318 564 318 500 c 0
 318 494 317 487 316 480 c 0
 301 383 238 364 223 270 c 2
 210 190 l 2
 209 183 208 176 208 170 c 0
 208 114 252 90 324 90 c 0
 404 90 459 119 470 190 c 2
 495 350 l 2
 497 363 503 374 508 383 c 1
 499 381 489 380 480 380 c 0
 418 380 371 417 371 476 c 0
 371 482 372 488 373 495 c 0
 384 565 449 610 517 610 c 0
 537 610 554 605 569 596 c 1
 567 604 567 612 568 620 c 2
 575 660 l 1
506 545 m 0
 478 545 452 523 448 495 c 0
 448 492 447 489 447 487 c 0
 447 463 465 445 490 445 c 0
 518 445 544 467 548 495 c 0
 548 498 549 501 549 503 c 0
 549 527 531 545 506 545 c 0
165 445 m 0
 193 445 219 467 223 495 c 0
 223 498 224 501 224 503 c 0
 224 527 206 545 181 545 c 0
 153 545 127 523 123 495 c 0
 123 492 122 489 122 487 c 0
 122 463 140 445 165 445 c 0
EndSplineSet
Colour: ffff00
EndChar

StartChar: uni0E2C
Encoding: 451 3628 113
Width: 790
VWidth: 0
GlyphClass: 2
Flags: HMW
LayerCount: 4
Layer: 2
SplineSet
589 560 m 0
 561 560 535 538 531 510 c 0
 531 507 530 504 530 502 c 0
 530 478 548 460 573 460 c 0
 601 460 627 482 631 510 c 0
 631 513 632 516 632 518 c 0
 632 542 614 560 589 560 c 0
178 555 m 0
 150 555 124 533 120 505 c 0
 120 502 119 499 119 497 c 0
 119 473 137 455 162 455 c 0
 190 455 216 477 220 505 c 0
 220 508 221 511 221 513 c 0
 221 537 203 555 178 555 c 0
187 610 m 0
 251 610 290 570 290 518 c 0
 290 512 290 506 289 500 c 0
 274 403 191 380 178 300 c 2
 154 150 l 2
 153 143 153 137 153 131 c 0
 153 89 177 65 220 65 c 0
 269 65 306 97 314 150 c 2
 338 300 l 1
 428 300 l 1
 404 150 l 2
 403 143 403 137 403 131 c 0
 403 89 427 65 470 65 c 0
 519 65 556 97 564 150 c 2
 603 400 l 2
 604 407 609 416 615 425 c 1
 600 416 581 410 560 410 c 0
 506 410 469 441 469 491 c 0
 469 497 470 504 471 510 c 0
 481 571 532 610 592 610 c 0
 616 610 634 602 647 591 c 1
 646 598 646 606 647 615 c 2
 655 660 l 1
 735 660 l 1
 654 150 l 2
 639 56 567 -10 458 -10 c 0
 406 -10 364 15 344 58 c 1
 310 15 260 -10 208 -10 c 0
 112 -10 61 41 61 118 c 0
 61 128 62 139 64 150 c 2
 88 300 l 2
 96 353 137 379 171 406 c 1
 165 405 160 405 154 405 c 0
 100 405 59 437 59 488 c 0
 59 493 59 499 60 505 c 0
 70 566 127 610 187 610 c 0
EndSplineSet
Layer: 3
SplineSet
645 660 m 1
 765 660 l 1
 684 150 l 2
 668 49 592 -10 478 -10 c 0
 423 -10 378 12 353 49 c 1
 316 12 263 -10 208 -10 c 0
 107 -10 51 37 51 118 c 0
 51 128 52 139 54 150 c 2
 73 270 l 2
 82 325 122 356 161 385 c 1
 160 385 158 385 156 385 c 0
 94 385 47 418 47 476 c 0
 47 482 47 489 48 495 c 0
 59 565 124 610 192 610 c 0
 265 610 318 564 318 500 c 0
 318 494 317 487 316 480 c 0
 301 383 238 364 223 270 c 2
 204 150 l 2
 203 146 203 142 203 139 c 0
 203 112 223 100 246 100 c 0
 272 100 298 115 304 150 c 2
 332 330 l 1
 462 330 l 1
 434 150 l 2
 433 146 433 142 433 139 c 0
 433 112 453 100 476 100 c 0
 502 100 528 115 534 150 c 2
 565 350 l 2
 567 363 573 374 578 383 c 1
 569 381 559 380 550 380 c 0
 488 380 441 417 441 476 c 0
 441 482 442 488 443 495 c 0
 454 565 519 610 587 610 c 0
 607 610 624 605 639 596 c 1
 637 604 637 612 638 620 c 2
 645 660 l 1
576 545 m 0
 548 545 522 523 518 495 c 0
 518 492 517 489 517 487 c 0
 517 463 535 445 560 445 c 0
 588 445 614 467 618 495 c 0
 618 498 619 501 619 503 c 0
 619 527 601 545 576 545 c 0
165 445 m 0
 193 445 219 467 223 495 c 0
 223 498 224 501 224 503 c 0
 224 527 206 545 181 545 c 0
 153 545 127 523 123 495 c 0
 123 492 122 489 122 487 c 0
 122 463 140 445 165 445 c 0
EndSplineSet
Colour: ffff00
EndChar

StartChar: uni0E3A
Encoding: 465 3642 114
Width: 0
VWidth: 0
GlyphClass: 4
Flags: HMW
AnchorPoint: "ThaiBelow2.mark" -120 0 mark 0
LayerCount: 4
Layer: 2
SplineSet
-340 -125 m 0
 -346 -161 -379 -190 -415 -190 c 0
 -447 -190 -471 -167 -471 -136 c 0
 -471 -133 -471 -129 -470 -125 c 0
 -464 -89 -431 -60 -395 -60 c 0
 -363 -60 -339 -83 -339 -114 c 0
 -339 -117 -339 -121 -340 -125 c 0
EndSplineSet
Layer: 3
SplineSet
-332 -140 m 0
 -339 -184 -381 -220 -425 -220 c 0
 -465 -220 -493 -191 -493 -153 c 0
 -493 -149 -493 -144 -492 -140 c 0
 -485 -96 -444 -60 -400 -60 c 0
 -360 -60 -331 -90 -331 -128 c 0
 -331 -132 -331 -136 -332 -140 c 0
EndSplineSet
EndChar

StartChar: uni0E28
Encoding: 447 3624 115
Width: 700
VWidth: 0
GlyphClass: 2
Flags: HMW
LayerCount: 4
Layer: 2
SplineSet
334 310 m 0
 309 310 286 290 282 265 c 0
 282 263 281 260 281 258 c 0
 281 236 297 220 320 220 c 0
 345 220 368 240 372 265 c 0
 372 267 373 270 373 272 c 0
 373 294 357 310 334 310 c 0
550 0 m 1
 460 0 l 1
 527 420 l 2
 528 426 528 431 528 437 c 0
 528 499 472 545 371 545 c 0
 261 545 188 491 177 420 c 0
 175 408 174 396 174 386 c 0
 174 360 180 340 188 326 c 1
 236 348 292 360 342 360 c 0
 392 360 428 328 428 281 c 0
 428 276 428 270 427 265 c 0
 418 210 367 170 312 170 c 0
 262 170 226 202 226 249 c 0
 226 254 226 260 227 265 c 0
 228 271 230 277 232 282 c 1
 186 265 141 228 132 170 c 0
 131 164 131 158 131 152 c 0
 131 77 213 65 260 65 c 1
 248 -10 l 1
 121 -10 45 51 45 142 c 0
 45 151 45 160 47 170 c 0
 54 217 83 257 123 288 c 1
 103 309 85 343 85 390 c 0
 85 400 85 409 87 420 c 0
 105 535 238 620 383 620 c 0
 469 620 529 587 559 538 c 1
 559 548 558 558 560 570 c 2
 575 660 l 1
 655 660 l 1
 550 0 l 1
EndSplineSet
Layer: 3
SplineSet
555 660 m 1
 675 660 l 1
 570 0 l 1
 430 0 l 1
 492 390 l 2
 493 396 493 401 493 407 c 0
 493 469 439 510 366 510 c 0
 286 510 213 461 202 390 c 0
 200 381 200 373 200 365 c 0
 200 357 200 350 202 344 c 1
 245 355 292 360 337 360 c 0
 392 360 432 325 432 275 c 0
 432 270 432 265 431 260 c 0
 422 202 366 160 305 160 c 0
 250 160 210 195 210 245 c 0
 210 249 210 254 211 259 c 1
 182 249 156 227 150 190 c 0
 149 184 149 179 149 174 c 0
 149 128 185 100 266 100 c 1
 248 -10 l 1
 116 -10 17 42 17 150 c 0
 17 160 17 169 19 180 c 0
 27 229 53 266 90 294 c 1
 74 313 61 340 61 372 c 0
 61 378 61 384 62 390 c 0
 82 515 204 620 383 620 c 0
 464 620 516 594 547 556 c 1
 545 564 544 574 544 584 c 0
 544 589 544 594 545 600 c 2
 555 660 l 1
328 305 m 0
 303 305 280 285 276 260 c 0
 276 258 275 255 275 253 c 0
 275 231 291 215 314 215 c 0
 339 215 362 235 366 260 c 0
 366 262 367 265 367 267 c 0
 367 289 351 305 328 305 c 0
EndSplineSet
Colour: ffff00
EndChar

StartChar: uni0E05
Encoding: 412 3589 116
Width: 700
VWidth: 0
GlyphClass: 2
Flags: HMW
LayerCount: 4
Layer: 2
SplineSet
334 310 m 0
 309 310 286 290 282 265 c 0
 282 263 281 260 281 258 c 0
 281 236 297 220 320 220 c 0
 345 220 368 240 372 265 c 0
 372 267 373 270 373 272 c 0
 373 294 357 310 334 310 c 0
550 0 m 1
 460 0 l 1
 527 420 l 2
 528 429 529 439 529 449 c 0
 529 482 520 516 491 540 c 1
 356 450 l 1
 251 540 l 1
 203 509 183 459 177 420 c 0
 175 408 174 396 174 386 c 0
 174 360 180 340 188 326 c 1
 236 348 292 360 342 360 c 0
 392 360 428 328 428 281 c 0
 428 276 428 270 427 265 c 0
 418 210 367 170 312 170 c 0
 262 170 226 202 226 249 c 0
 226 254 226 260 227 265 c 0
 228 271 230 277 232 282 c 1
 186 265 141 228 132 170 c 0
 131 164 131 158 131 152 c 0
 131 77 213 65 260 65 c 1
 248 -10 l 1
 121 -10 45 51 45 142 c 0
 45 151 45 160 47 170 c 0
 54 217 83 257 123 288 c 1
 103 309 85 343 85 390 c 0
 85 400 85 409 87 420 c 0
 108 551 233 620 263 620 c 1
 368 525 l 1
 503 620 l 1
 530 620 620 563 620 454 c 0
 620 443 619 432 617 420 c 2
 550 0 l 1
EndSplineSet
Layer: 3
SplineSet
328 305 m 0
 303 305 280 285 276 260 c 0
 276 258 275 255 275 253 c 0
 275 231 291 215 314 215 c 0
 339 215 362 235 366 260 c 0
 366 262 367 265 367 267 c 0
 367 289 351 305 328 305 c 0
580 0 m 1
 430 0 l 1
 492 390 l 2
 496 414 498 433 498 449 c 0
 498 480 491 498 476 510 c 1
 352 420 l 1
 256 510 l 1
 228 492 203 460 192 390 c 0
 191 384 191 378 191 372 c 0
 191 361 192 351 195 342 c 1
 240 355 290 360 337 360 c 0
 392 360 432 325 432 275 c 0
 432 270 432 265 431 260 c 0
 422 202 366 160 305 160 c 0
 250 160 210 195 210 245 c 0
 210 249 210 254 211 259 c 1
 182 249 156 227 150 190 c 0
 149 184 149 179 149 174 c 0
 149 128 185 100 266 100 c 1
 248 -10 l 1
 116 -10 17 42 17 150 c 0
 17 160 17 169 19 180 c 0
 27 229 53 266 90 294 c 1
 74 313 61 340 61 372 c 0
 61 378 61 384 62 390 c 0
 88 552 212 620 273 620 c 1
 368 525 l 1
 493 620 l 1
 548 620 646 565 646 436 c 0
 646 422 645 406 642 390 c 2
 580 0 l 1
EndSplineSet
Colour: ffff00
EndChar

StartChar: uni0E2B0E19.liga
Encoding: 866 -1 117
Width: 1170
VWidth: 0
GlyphClass: 3
Flags: HMW
LayerCount: 4
Layer: 2
SplineSet
1095 600 m 1
 1030 190 l 1
 1022 188 l 1
 1049 173 1066 146 1066 112 c 0
 1066 106 1066 101 1065 95 c 0
 1055 34 998 -10 938 -10 c 0
 889 -10 854 20 849 64 c 1
 819 26 780 -10 724 -10 c 0
 649 -10 611 23 611 106 c 0
 611 125 613 146 617 170 c 2
 663 460 l 2
 664 469 665 478 665 485 c 0
 665 511 656 525 633 525 c 0
 585 525 543 437 486 418 c 1
 441 130 l 2
 427 41 343 -10 238 -10 c 0
 142 -10 79 32 79 107 c 0
 79 114 80 122 81 130 c 2
 108 300 l 2
 116 353 157 379 191 406 c 1
 185 405 180 405 174 405 c 0
 120 405 79 437 79 488 c 0
 79 493 79 499 80 505 c 0
 90 566 147 610 207 610 c 0
 271 610 310 570 310 518 c 0
 310 512 310 506 309 500 c 0
 294 403 211 380 198 300 c 2
 171 130 l 2
 171 127 170 124 170 121 c 0
 170 82 211 65 250 65 c 0
 292 65 344 85 351 130 c 2
 396 416 l 1
 365 428 340 456 340 495 c 0
 340 500 340 505 341 510 c 0
 351 571 410 610 462 610 c 0
 509 610 552 578 552 526 c 0
 552 523 552 520 552 517 c 1
 584 556 621 600 675 600 c 0
 720 600 758 570 758 508 c 0
 758 499 758 490 756 480 c 2
 707 170 l 2
 704 148 702 130 702 116 c 0
 702 79 714 65 745 65 c 0
 813 65 856 172 941 197 c 1
 1005 600 l 1
 1095 600 l 1
947 45 m 0
 975 45 1001 67 1005 95 c 0
 1005 98 1006 101 1006 103 c 0
 1006 127 988 145 963 145 c 0
 935 145 909 123 905 95 c 0
 905 92 904 89 904 87 c 0
 904 63 922 45 947 45 c 0
454 560 m 0
 426 560 400 538 396 510 c 0
 396 507 395 504 395 502 c 0
 395 478 413 460 438 460 c 0
 466 460 492 482 496 510 c 0
 496 513 497 516 497 518 c 0
 497 542 479 560 454 560 c 0
198 555 m 0
 170 555 144 533 140 505 c 0
 140 502 139 499 139 497 c 0
 139 473 157 455 182 455 c 0
 210 455 236 477 240 505 c 0
 240 508 241 511 241 513 c 0
 241 537 223 555 198 555 c 0
EndSplineSet
Layer: 3
SplineSet
452 550 m 0
 424 550 398 528 394 500 c 0
 394 497 393 494 393 492 c 0
 393 468 411 450 436 450 c 0
 464 450 490 472 494 500 c 0
 494 503 495 506 495 508 c 0
 495 532 477 550 452 550 c 0
165 445 m 0
 193 445 219 467 223 495 c 0
 223 498 224 501 224 503 c 0
 224 527 206 545 181 545 c 0
 153 545 127 523 123 495 c 0
 123 492 122 489 122 487 c 0
 122 463 140 445 165 445 c 0
156 385 m 0
 94 385 47 418 47 476 c 0
 47 482 47 489 48 495 c 0
 59 565 124 610 192 610 c 0
 265 610 318 564 318 500 c 0
 318 494 317 487 316 480 c 0
 301 383 238 364 223 270 c 2
 204 150 l 2
 203 147 203 144 203 141 c 0
 203 111 231 100 256 100 c 0
 283 100 318 114 324 150 c 2
 359 370 l 2
 361 384 366 396 370 405 c 1
 345 420 328 446 328 482 c 0
 328 488 328 494 329 500 c 0
 340 570 405 610 462 610 c 0
 514 610 561 576 561 517 c 1
 599 554 646 600 705 600 c 0
 763 600 788 567 788 511 c 0
 788 498 786 485 784 470 c 2
 753 270 l 1
 739 180 l 2
 737 166 736 154 736 144 c 0
 736 113 747 100 771 100 c 0
 821 100 858 164 912 200 c 1
 975 600 l 1
 1125 600 l 1
 1063 210 l 1
 1049 206 l 1
 1079 190 1098 161 1098 123 c 0
 1098 117 1098 111 1097 105 c 0
 1086 35 1021 -10 953 -10 c 0
 899 -10 857 18 847 65 c 1
 812 27 764 -10 693 -10 c 0
 625 -10 582 28 582 115 c 0
 582 131 584 150 587 170 c 2
 603 270 l 1
 627 420 l 2
 629 431 629 440 629 448 c 0
 629 470 623 480 606 480 c 0
 575 480 527 419 494 407 c 1
 454 150 l 2
 438 52 343 -10 233 -10 c 0
 132 -10 52 43 52 127 c 0
 52 135 53 142 54 150 c 2
 73 270 l 2
 82 325 122 356 161 385 c 1
 160 385 158 385 156 385 c 0
980 155 m 0
 952 155 926 133 922 105 c 0
 922 102 921 99 921 97 c 0
 921 73 939 55 964 55 c 0
 992 55 1018 77 1022 105 c 0
 1022 108 1023 111 1023 113 c 0
 1023 137 1005 155 980 155 c 0
EndSplineSet
Colour: ff00
EndChar

